<svg width="258" height="258" viewBox="0 0 258 258" fill="none" xmlns="http://www.w3.org/2000/svg">
  <path d="M0.499995 69.5C1.29999 12.3 44.1667 0.333338 65.5 1.50001C91.8333 0.666671 155.1 -0.299999 197.5 2.5C239.9 5.3 253.167 38.3333 254.5 54.5C256.833 73.5 260.1 121.7 254.5 162.5C248.9 203.3 217.5 216.167 202.5 217.5L171.5 219C161.5 218.6 157.333 224.5 156.5 227.5L146 244C130 268 116 254 111 244L99.5 226C96.7 220 88.6667 218.167 85 218H69.5C17.9 220 2 180.167 0.499995 160C0.166661 153.667 -0.300005 126.7 0.499995 69.5Z" fill="white" />
  <circle cx="77" cy="115" r="14" fill="#C255F4" />
  <circle cx="179" cy="115" r="14" fill="#C255F4" />
  <circle cx="128" cy="115" r="14" fill="#C255F4" />
</svg>