<svg id="visual" viewBox="0 0 900 675" width="900" height="675" xmlns="http://www.w3.org/2000/svg" xmlns:xlink="http://www.w3.org/1999/xlink" version="1.1"><path d="M0 563L15 563.3C30 563.7 60 564.3 90 578.2C120 592 150 619 180 627.5C210 636 240 626 270 617.5C300 609 330 602 360 609.2C390 616.3 420 637.7 450 622.3C480 607 510 555 540 553C570 551 600 599 630 599.2C660 599.3 690 551.7 720 544.3C750 537 780 570 810 575.2C840 580.3 870 557.7 885 546.3L900 535L900 676L885 676C870 676 840 676 810 676C780 676 750 676 720 676C690 676 660 676 630 676C600 676 570 676 540 676C510 676 480 676 450 676C420 676 390 676 360 676C330 676 300 676 270 676C240 676 210 676 180 676C150 676 120 676 90 676C60 676 30 676 15 676L0 676Z" fill="#bd4fff"></path><path d="M0 625L15 618.5C30 612 60 599 90 603C120 607 150 628 180 617.8C210 607.7 240 566.3 270 558C300 549.7 330 574.3 360 574.7C390 575 420 551 450 547.7C480 544.3 510 561.7 540 584.2C570 606.7 600 634.3 630 642.8C660 651.3 690 640.7 720 619.3C750 598 780 566 810 564C840 562 870 590 885 604L900 618L900 676L885 676C870 676 840 676 810 676C780 676 750 676 720 676C690 676 660 676 630 676C600 676 570 676 540 676C510 676 480 676 450 676C420 676 390 676 360 676C330 676 300 676 270 676C240 676 210 676 180 676C150 676 120 676 90 676C60 676 30 676 15 676L0 676Z" fill="#b044fd"></path><path d="M0 631L15 629C30 627 60 623 90 613.2C120 603.3 150 587.7 180 587.8C210 588 240 604 270 605.2C300 606.3 330 592.7 360 598.2C390 603.7 420 628.3 450 642.7C480 657 510 661 540 663C570 665 600 665 630 658.2C660 651.3 690 637.7 720 621.5C750 605.3 780 586.7 810 589.2C840 591.7 870 615.3 885 627.2L900 639L900 676L885 676C870 676 840 676 810 676C780 676 750 676 720 676C690 676 660 676 630 676C600 676 570 676 540 676C510 676 480 676 450 676C420 676 390 676 360 676C330 676 300 676 270 676C240 676 210 676 180 676C150 676 120 676 90 676C60 676 30 676 15 676L0 676Z" fill="#a239fb"></path><path d="M0 599L15 605C30 611 60 623 90 631.2C120 639.3 150 643.7 180 638.8C210 634 240 620 270 617.5C300 615 330 624 360 630.5C390 637 420 641 450 641.7C480 642.3 510 639.7 540 644.2C570 648.7 600 660.3 630 663.7C660 667 690 662 720 650.2C750 638.3 780 619.7 810 617.5C840 615.3 870 629.7 885 636.8L900 644L900 676L885 676C870 676 840 676 810 676C780 676 750 676 720 676C690 676 660 676 630 676C600 676 570 676 540 676C510 676 480 676 450 676C420 676 390 676 360 676C330 676 300 676 270 676C240 676 210 676 180 676C150 676 120 676 90 676C60 676 30 676 15 676L0 676Z" fill="#932ef9"></path></svg>