<svg id="visual" viewBox="0 0 900 675" width="900" height="675" xmlns="http://www.w3.org/2000/svg" xmlns:xlink="http://www.w3.org/1999/xlink" version="1.1">
  <path d="M0 596L10 585C20 574 40 552 60 539.3C80 526.7 100 523.3 120 524.8C140 526.3 160 532.7 180 545.3C200 558 220 577 240 572.7C260 568.3 280 540.7 300 531.5C320 522.3 340 531.7 360 549.2C380 566.7 400 592.3 420 593.7C440 595 460 572 480 554.3C500 536.7 520 524.3 540 536C560 547.7 580 583.3 600 592.5C620 601.7 640 584.3 660 570.2C680 556 700 545 720 544.8C740 544.7 760 555.3 780 561.3C800 567.3 820 568.7 840 562.2C860 555.7 880 541.3 890 534.2L900 527L900 676L890 676C880 676 860 676 840 676C820 676 800 676 780 676C760 676 740 676 720 676C700 676 680 676 660 676C640 676 620 676 600 676C580 676 560 676 540 676C520 676 500 676 480 676C460 676 440 676 420 676C400 676 380 676 360 676C340 676 320 676 300 676C280 676 260 676 240 676C220 676 200 676 180 676C160 676 140 676 120 676C100 676 80 676 60 676C40 676 20 676 10 676L0 676Z" fill="#b64bf3"></path>
  <path d="M0 586L10 592.5C20 599 40 612 60 605.7C80 599.3 100 573.7 120 568.8C140 564 160 580 180 584C200 588 220 580 240 584.2C260 588.3 280 604.7 300 612.5C320 620.3 340 619.7 360 614C380 608.3 400 597.7 420 585.7C440 573.7 460 560.3 480 568C500 575.7 520 604.3 540 608.3C560 612.3 580 591.7 600 585.3C620 579 640 587 660 585.7C680 584.3 700 573.7 720 574.7C740 575.7 760 588.3 780 594.7C800 601 820 601 840 599.3C860 597.7 880 594.3 890 592.7L900 591L900 676L890 676C880 676 860 676 840 676C820 676 800 676 780 676C760 676 740 676 720 676C700 676 680 676 660 676C640 676 620 676 600 676C580 676 560 676 540 676C520 676 500 676 480 676C460 676 440 676 420 676C400 676 380 676 360 676C340 676 320 676 300 676C280 676 260 676 240 676C220 676 200 676 180 676C160 676 140 676 120 676C100 676 80 676 60 676C40 676 20 676 10 676L0 676Z" fill="#9e3be2"></path>
  <path d="M0 614L10 615.7C20 617.3 40 620.7 60 625.7C80 630.7 100 637.3 120 638.2C140 639 160 634 180 630.8C200 627.7 220 626.3 240 623.3C260 620.3 280 615.7 300 617.3C320 619 340 627 360 625.7C380 624.3 400 613.7 420 609.3C440 605 460 607 480 612.7C500 618.3 520 627.7 540 632.2C560 636.7 580 636.3 600 626.3C620 616.3 640 596.7 660 592.7C680 588.7 700 600.3 720 601.3C740 602.3 760 592.7 780 593.8C800 595 820 607 840 608.5C860 610 880 601 890 596.5L900 592L900 676L890 676C880 676 860 676 840 676C820 676 800 676 780 676C760 676 740 676 720 676C700 676 680 676 660 676C640 676 620 676 600 676C580 676 560 676 540 676C520 676 500 676 480 676C460 676 440 676 420 676C400 676 380 676 360 676C340 676 320 676 300 676C280 676 260 676 240 676C220 676 200 676 180 676C160 676 140 676 120 676C100 676 80 676 60 676C40 676 20 676 10 676L0 676Z" fill="#862bd1"></path>
  <path d="M0 612L10 616C20 620 40 628 60 632.2C80 636.3 100 636.7 120 635C140 633.3 160 629.7 180 629.2C200 628.7 220 631.3 240 633.5C260 635.7 280 637.3 300 640.7C320 644 340 649 360 647.2C380 645.3 400 636.7 420 635.7C440 634.7 460 641.3 480 644.7C500 648 520 648 540 643.2C560 638.3 580 628.7 600 622.5C620 616.3 640 613.7 660 619.8C680 626 700 641 720 643.2C740 645.3 760 634.7 780 633.5C800 632.3 820 640.7 840 641C860 641.3 880 633.7 890 629.8L900 626L900 676L890 676C880 676 860 676 840 676C820 676 800 676 780 676C760 676 740 676 720 676C700 676 680 676 660 676C640 676 620 676 600 676C580 676 560 676 540 676C520 676 500 676 480 676C460 676 440 676 420 676C400 676 380 676 360 676C340 676 320 676 300 676C280 676 260 676 240 676C220 676 200 676 180 676C160 676 140 676 120 676C100 676 80 676 60 676C40 676 20 676 10 676L0 676Z" fill="#6d19c0"></path>
</svg>

<svg id="visual" viewBox="0 0 900 675" width="900" height="675" xmlns="http://www.w3.org/2000/svg" xmlns:xlink="http://www.w3.org/1999/xlink" version="1.1">
  <path d="M0 557L10 556C20 555 40 553 60 560.2C80 567.3 100 583.7 120 593.8C140 604 160 608 180 611.3C200 614.7 220 617.3 240 602.3C260 587.3 280 554.7 300 545.7C320 536.7 340 551.3 360 558.8C380 566.3 400 566.7 420 571.3C440 576 460 585 480 584.3C500 583.7 520 573.3 540 562C560 550.7 580 538.3 600 544.7C620 551 640 576 660 579.2C680 582.3 700 563.7 720 559.8C740 556 760 567 780 571.7C800 576.3 820 574.7 840 569.5C860 564.3 880 555.7 890 551.3L900 547L900 676L890 676C880 676 860 676 840 676C820 676 800 676 780 676C760 676 740 676 720 676C700 676 680 676 660 676C640 676 620 676 600 676C580 676 560 676 540 676C520 676 500 676 480 676C460 676 440 676 420 676C400 676 380 676 360 676C340 676 320 676 300 676C280 676 260 676 240 676C220 676 200 676 180 676C160 676 140 676 120 676C100 676 80 676 60 676C40 676 20 676 10 676L0 676Z" fill="#b64bf3"></path>
  <path d="M0 614L10 613C20 612 40 610 60 598.2C80 586.3 100 564.7 120 561.7C140 558.7 160 574.3 180 577.2C200 580 220 570 240 573.5C260 577 280 594 300 605.8C320 617.7 340 624.3 360 623.8C380 623.3 400 615.7 420 608.2C440 600.7 460 593.3 480 588.2C500 583 520 580 540 585.7C560 591.3 580 605.7 600 614.5C620 623.3 640 626.7 660 618.3C680 610 700 590 720 578.7C740 567.3 760 564.7 780 572C800 579.3 820 596.7 840 608.2C860 619.7 880 625.3 890 628.2L900 631L900 676L890 676C880 676 860 676 840 676C820 676 800 676 780 676C760 676 740 676 720 676C700 676 680 676 660 676C640 676 620 676 600 676C580 676 560 676 540 676C520 676 500 676 480 676C460 676 440 676 420 676C400 676 380 676 360 676C340 676 320 676 300 676C280 676 260 676 240 676C220 676 200 676 180 676C160 676 140 676 120 676C100 676 80 676 60 676C40 676 20 676 10 676L0 676Z" fill="#9e3be2"></path>
  <path d="M0 598L10 604.8C20 611.7 40 625.3 60 631.8C80 638.3 100 637.7 120 628.2C140 618.7 160 600.3 180 596.8C200 593.3 220 604.7 240 615C260 625.3 280 634.7 300 632.2C320 629.7 340 615.3 360 610.2C380 605 400 609 420 610.3C440 611.7 460 610.3 480 611.3C500 612.3 520 615.7 540 620C560 624.3 580 629.7 600 632.3C620 635 640 635 660 636C680 637 700 639 720 637.5C740 636 760 631 780 629.7C800 628.3 820 630.7 840 624C860 617.3 880 601.7 890 593.8L900 586L900 676L890 676C880 676 860 676 840 676C820 676 800 676 780 676C760 676 740 676 720 676C700 676 680 676 660 676C640 676 620 676 600 676C580 676 560 676 540 676C520 676 500 676 480 676C460 676 440 676 420 676C400 676 380 676 360 676C340 676 320 676 300 676C280 676 260 676 240 676C220 676 200 676 180 676C160 676 140 676 120 676C100 676 80 676 60 676C40 676 20 676 10 676L0 676Z" fill="#862bd1"></path>
  <path d="M0 619L10 620.3C20 621.7 40 624.3 60 629.8C80 635.3 100 643.7 120 647C140 650.3 160 648.7 180 649C200 649.3 220 651.7 240 652.2C260 652.7 280 651.3 300 649C320 646.7 340 643.3 360 644.3C380 645.3 400 650.7 420 649.2C440 647.7 460 639.3 480 634.7C500 630 520 629 540 626C560 623 580 618 600 621.7C620 625.3 640 637.7 660 640.8C680 644 700 638 720 638.3C740 638.7 760 645.3 780 643.7C800 642 820 632 840 629.3C860 626.7 880 631.3 890 633.7L900 636L900 676L890 676C880 676 860 676 840 676C820 676 800 676 780 676C760 676 740 676 720 676C700 676 680 676 660 676C640 676 620 676 600 676C580 676 560 676 540 676C520 676 500 676 480 676C460 676 440 676 420 676C400 676 380 676 360 676C340 676 320 676 300 676C280 676 260 676 240 676C220 676 200 676 180 676C160 676 140 676 120 676C100 676 80 676 60 676C40 676 20 676 10 676L0 676Z" fill="#6d19c0"></path>
</svg>