<?xml version="1.0" encoding="utf-8"?>
<!-- Generator: Adobe Illustrator 27.5.0, SVG Export Plug-In . SVG Version: 6.00 Build 0)  -->
<svg version="1.1" xmlns="http://www.w3.org/2000/svg" xmlns:xlink="http://www.w3.org/1999/xlink" x="0px" y="0px"
	 viewBox="0 0 500 500" style="enable-background:new 0 0 500 500;" xml:space="preserve">
<g id="_x37_50x500">
	<g>
		<defs>
			<rect id="SVGID_1_" x="540" width="750" height="500"/>
		</defs>
		<clipPath id="SVGID_00000001639786779831132910000016615372334388958641_">
			<use xlink:href="#SVGID_1_"  style="overflow:visible;"/>
		</clipPath>
		<path style="clip-path:url(#SVGID_00000001639786779831132910000016615372334388958641_);fill:#001C5C;" d="M492.809,286.492
			c-0.024-0.501-0.064-0.997-0.064-1.506c0-14.849,10.232-26.887,22.854-26.887c6.416,0,12.205,3.12,16.356,8.129
			c4.358-8.228,12.095-13.721,20.941-13.721c5.141,0,9.912,1.852,13.864,5.016c4.361-11.808,14.352-20.072,25.993-20.072
			c5.188,0,10.035,1.667,14.217,4.531c8.253-12.688,21.25-20.878,35.878-20.878c17.346,0,32.399,11.512,39.964,28.391
			c3.836-3.235,8.525-5.16,13.605-5.16c7.637,0,14.399,4.324,18.671,10.983c2.392-0.708,4.895-1.088,7.474-1.088
			c15.813,0,28.819,14.143,30.376,32.264H492.809z"/>
		<g style="clip-path:url(#SVGID_00000001639786779831132910000016615372334388958641_);">
			<polygon style="fill:#052785;" points="779.137,404.694 714.859,297.667 695.867,306.444 661.73,244.343 622.085,291.537 
				610.26,276.452 566.408,318.753 538.585,309.304 436.037,404.694 			"/>
			<path style="opacity:0.6;fill:#0932A6;" d="M538.585,309.304l13.117,22.338l10.237,14.517c0,0,11.52,22.148,11.52,21.475
				c0-0.674,7.847,24.985,7.847,24.985l-10.823,12.075H435.42L538.585,309.304"/>
		</g>
	</g>
</g>
<g id="_x35_00_x500">
	<g>
		<defs>
			<rect id="SVGID_00000031919613945527785440000008112360899846623899_" width="500" height="500"/>
		</defs>
		<clipPath id="SVGID_00000155126358212931785110000011145393810506563239_">
			<use xlink:href="#SVGID_00000031919613945527785440000008112360899846623899_"  style="overflow:visible;"/>
		</clipPath>
		
			<rect style="clip-path:url(#SVGID_00000155126358212931785110000011145393810506563239_);fill:#001445;" width="500" height="500"/>
		<g style="clip-path:url(#SVGID_00000155126358212931785110000011145393810506563239_);">
			<g>
				<circle style="fill:#00174F;" cx="250.899" cy="165.161" r="140"/>
				<circle style="fill:#001C5E;" cx="250.899" cy="165.161" r="122.701"/>
				
					<ellipse transform="matrix(0.7071 -0.7071 0.7071 0.7071 -43.2995 225.7868)" style="fill:#00237D;" cx="250.899" cy="165.161" rx="105.963" ry="105.963"/>
				<circle style="fill:#FFED9E;" cx="250.899" cy="165.161" r="87.858"/>
				<path style="opacity:0.1;fill:#857A4A;" d="M300.504,92.642c3.351,30.76-8.616,66.509-34.945,95.41
					c-21.283,23.361-47.893,37.792-73.652,42.215c15.593,14.138,36.287,22.752,58.993,22.752c48.523,0,87.858-39.335,87.858-87.858
					C338.757,135.044,323.601,108.472,300.504,92.642z"/>
				<g>
					<path style="fill:#FFED9E;" d="M256.259,218.545c0.247-0.456,0.478-0.922,0.7-1.393c0.06-0.128,0.117-0.258,0.175-0.387
						c0.16-0.352,0.312-0.708,0.457-1.068c0.061-0.152,0.121-0.303,0.18-0.456c0.14-0.366,0.272-0.735,0.397-1.108
						c0.045-0.133,0.092-0.265,0.135-0.399c0.162-0.508,0.313-1.021,0.447-1.542c0.001-0.004,0.002-0.009,0.003-0.013
						c0.13-0.507,0.242-1.021,0.344-1.539c0.031-0.159,0.057-0.319,0.086-0.479c0.066-0.372,0.127-0.746,0.178-1.123
						c0.025-0.184,0.049-0.369,0.07-0.555c0.044-0.377,0.079-0.756,0.108-1.137c0.013-0.169,0.029-0.337,0.039-0.507
						c0.032-0.546,0.052-1.094,0.052-1.648c0-9.217-4.436-17.398-11.29-22.523c-1.804-1.349-3.775-2.486-5.876-3.375
						c-1.261-0.533-2.569-0.977-3.916-1.324c-2.245-0.578-4.599-0.885-7.024-0.885l0,0l0,0c-0.489,0-0.976,0.013-1.459,0.038
						c-0.141,0.007-0.28,0.023-0.42,0.032c-0.342,0.023-0.684,0.044-1.022,0.079c-0.147,0.015-0.291,0.038-0.436,0.056
						c-0.33,0.039-0.661,0.077-0.987,0.128c-0.135,0.021-0.267,0.049-0.401,0.071c-0.335,0.057-0.67,0.114-1.001,0.182
						c-0.119,0.025-0.235,0.055-0.353,0.081c-0.344,0.076-0.688,0.153-1.027,0.241c-0.099,0.026-0.197,0.057-0.296,0.084
						c-0.355,0.097-0.708,0.196-1.057,0.306c-0.083,0.026-0.165,0.057-0.248,0.084c-0.363,0.118-0.724,0.24-1.08,0.372
						c-0.064,0.024-0.126,0.05-0.19,0.075c-0.373,0.142-0.743,0.288-1.108,0.445c-0.047,0.02-0.092,0.043-0.139,0.063
						c-0.38,0.166-0.756,0.338-1.127,0.519c-0.031,0.015-0.061,0.032-0.092,0.047c-0.385,0.19-0.765,0.388-1.14,0.595
						c-0.018,0.01-0.035,0.02-0.053,0.03c-0.387,0.215-0.768,0.438-1.143,0.67c-0.007,0.004-0.014,0.009-0.021,0.013
						c-1.946,1.208-3.732,2.646-5.322,4.278l-0.001,0.001l0,0c-4.939,5.065-7.986,11.983-7.986,19.616
						c0,15.523,12.584,28.107,28.107,28.107C242.211,233.299,251.506,227.331,256.259,218.545L256.259,218.545L256.259,218.545z"/>
					<g>
						
							<ellipse transform="matrix(0.2322 -0.9727 0.9727 0.2322 -21.8148 382.7484)" style="fill:#FFED9E;" cx="231.522" cy="205.191" rx="24.308" ry="24.308"/>
						
							<ellipse transform="matrix(0.2322 -0.9727 0.9727 0.2322 -21.8148 382.7484)" style="fill:#E3D283;" cx="231.522" cy="205.191" rx="24.308" ry="24.308"/>
						<path style="opacity:0.6;fill:#A89850;" d="M229.196,183.209c13.892,0,25.154,11.262,25.154,25.154
							c0,2.938-0.509,5.756-1.435,8.378c1.859-3.436,2.915-7.369,2.915-11.549c0-13.425-10.883-24.308-24.308-24.308
							c-6.824,0-12.987,2.815-17.402,7.343C218.321,185.076,223.54,183.209,229.196,183.209z"/>
					</g>
				</g>
				<g>
					<circle style="fill:#FFED9E;" cx="267.612" cy="117.469" r="17.051"/>
					<circle style="fill:#E3D283;" cx="267.612" cy="117.469" r="17.051"/>
					<path style="opacity:0.6;fill:#A89850;" d="M265.98,102.049c9.745,0,17.644,7.9,17.644,17.644c0,2.061-0.357,4.038-1.006,5.877
						c1.304-2.41,2.044-5.169,2.044-8.101c0-9.417-7.634-17.051-17.051-17.051c-4.786,0-9.11,1.975-12.206,5.151
						C258.352,103.359,262.013,102.049,265.98,102.049z"/>
				</g>
				<g>
					<circle style="fill:#FFED9E;" cx="200.891" cy="163.309" r="8.984"/>
					<circle style="fill:#E3D283;" cx="200.891" cy="163.309" r="8.984"/>
					<path style="opacity:0.6;fill:#A89850;" d="M200.031,155.184c5.134,0,9.297,4.162,9.297,9.297c0,1.086-0.188,2.128-0.53,3.096
						c0.687-1.27,1.077-2.723,1.077-4.268c0-4.962-4.022-8.984-8.984-8.984c-2.522,0-4.8,1.04-6.431,2.714
						C196.012,155.874,197.941,155.184,200.031,155.184z"/>
				</g>
				<g>
					<path style="fill:#FFED9E;" d="M314.415,138.137c0.102-0.188,0.197-0.38,0.288-0.574c0.025-0.053,0.048-0.107,0.072-0.16
						c0.066-0.145,0.129-0.292,0.189-0.44c0.025-0.062,0.05-0.125,0.074-0.188c0.058-0.151,0.112-0.303,0.163-0.457
						c0.018-0.055,0.038-0.109,0.056-0.165c0.067-0.21,0.129-0.421,0.184-0.635c0-0.002,0.001-0.004,0.001-0.005
						c0.054-0.209,0.1-0.421,0.142-0.634c0.013-0.065,0.024-0.131,0.035-0.197c0.027-0.153,0.052-0.307,0.073-0.463
						c0.01-0.076,0.02-0.152,0.029-0.229c0.018-0.155,0.033-0.312,0.044-0.469c0.005-0.07,0.012-0.139,0.016-0.209
						c0.013-0.225,0.021-0.451,0.021-0.679c0-3.799-1.828-7.17-4.653-9.283c-0.743-0.556-1.556-1.025-2.422-1.391
						c-0.52-0.22-1.059-0.403-1.614-0.546c-0.925-0.238-1.895-0.365-2.895-0.365l0,0l0,0c-0.202,0-0.402,0.005-0.601,0.015
						c-0.058,0.003-0.115,0.009-0.173,0.013c-0.141,0.009-0.282,0.018-0.421,0.033c-0.06,0.006-0.12,0.016-0.18,0.023
						c-0.136,0.016-0.272,0.032-0.407,0.053c-0.056,0.009-0.11,0.02-0.165,0.029c-0.138,0.023-0.276,0.047-0.413,0.075
						c-0.049,0.01-0.097,0.023-0.145,0.034c-0.142,0.031-0.283,0.063-0.423,0.099c-0.041,0.011-0.081,0.023-0.122,0.035
						c-0.146,0.04-0.292,0.081-0.436,0.126c-0.034,0.011-0.068,0.023-0.102,0.035c-0.149,0.049-0.298,0.099-0.445,0.153
						c-0.026,0.01-0.052,0.021-0.078,0.031c-0.154,0.058-0.306,0.119-0.457,0.184c-0.019,0.008-0.038,0.018-0.057,0.026
						c-0.157,0.068-0.312,0.139-0.465,0.214c-0.013,0.006-0.025,0.013-0.038,0.019c-0.159,0.078-0.315,0.16-0.47,0.245
						c-0.007,0.004-0.014,0.008-0.022,0.012c-0.159,0.089-0.316,0.181-0.471,0.276c-0.003,0.002-0.006,0.004-0.009,0.005
						c-0.802,0.498-1.538,1.091-2.194,1.763l0,0h0c-2.035,2.087-3.291,4.938-3.291,8.084c0,6.398,5.186,11.584,11.584,11.584
						C308.626,144.217,312.456,141.758,314.415,138.137L314.415,138.137L314.415,138.137z"/>
					<g>
						
							<ellipse transform="matrix(0.7071 -0.7071 0.7071 0.7071 -4.6819 253.9636)" style="fill:#FFED9E;" cx="304.22" cy="132.633" rx="8.984" ry="8.984"/>
						
							<ellipse transform="matrix(0.7071 -0.7071 0.7071 0.7071 -4.6819 253.9636)" style="fill:#E3D283;" cx="304.22" cy="132.633" rx="8.984" ry="8.984"/>
						<path style="opacity:0.6;fill:#A89850;" d="M303.361,124.509c5.134,0,9.297,4.162,9.297,9.297c0,1.086-0.188,2.128-0.53,3.096
							c0.687-1.27,1.077-2.723,1.077-4.268c0-4.962-4.022-8.984-8.984-8.984c-2.522,0-4.8,1.041-6.432,2.714
							C299.341,125.199,301.27,124.509,303.361,124.509z"/>
					</g>
				</g>
				<g>
					<path style="fill:#FFED9E;" d="M287.433,171.726c0.134-0.247,0.259-0.499,0.379-0.755c0.033-0.07,0.063-0.14,0.095-0.21
						c0.086-0.191,0.169-0.384,0.248-0.579c0.033-0.082,0.066-0.164,0.097-0.247c0.076-0.198,0.147-0.398,0.215-0.601
						c0.024-0.072,0.05-0.144,0.073-0.216c0.088-0.275,0.17-0.554,0.242-0.836c0.001-0.002,0.001-0.005,0.002-0.007
						c0.07-0.275,0.131-0.553,0.186-0.834c0.017-0.086,0.031-0.173,0.046-0.259c0.036-0.202,0.069-0.404,0.097-0.609
						c0.014-0.1,0.026-0.2,0.038-0.301c0.024-0.204,0.043-0.41,0.059-0.616c0.007-0.092,0.016-0.183,0.021-0.275
						c0.017-0.296,0.028-0.593,0.028-0.893c0-4.995-2.404-9.428-6.118-12.206c-0.977-0.731-2.046-1.347-3.184-1.829
						c-0.683-0.289-1.392-0.53-2.122-0.717c-1.217-0.313-2.492-0.48-3.807-0.48l0,0h0c-0.265,0-0.529,0.007-0.791,0.02
						c-0.076,0.004-0.152,0.012-0.228,0.017c-0.185,0.012-0.37,0.024-0.554,0.043c-0.079,0.008-0.157,0.021-0.237,0.03
						c-0.179,0.021-0.358,0.042-0.535,0.069c-0.073,0.011-0.145,0.026-0.217,0.039c-0.182,0.031-0.363,0.061-0.543,0.099
						c-0.064,0.013-0.127,0.03-0.191,0.044c-0.186,0.041-0.373,0.083-0.557,0.131c-0.054,0.014-0.107,0.031-0.16,0.045
						c-0.192,0.052-0.384,0.106-0.573,0.166c-0.045,0.014-0.089,0.031-0.134,0.046c-0.197,0.064-0.392,0.13-0.585,0.202
						c-0.034,0.013-0.068,0.027-0.103,0.04c-0.202,0.077-0.403,0.156-0.6,0.241c-0.025,0.011-0.05,0.023-0.075,0.034
						c-0.206,0.09-0.41,0.183-0.611,0.281c-0.017,0.008-0.033,0.017-0.05,0.026c-0.208,0.103-0.415,0.21-0.618,0.323
						c-0.01,0.005-0.019,0.011-0.028,0.016c-0.21,0.117-0.416,0.237-0.619,0.363c-0.004,0.002-0.007,0.005-0.011,0.007
						c-1.055,0.654-2.022,1.434-2.884,2.318l0,0l0,0c-2.676,2.745-4.328,6.494-4.328,10.631c0,8.412,6.82,15.232,15.232,15.232
						C279.821,179.721,284.858,176.486,287.433,171.726L287.433,171.726L287.433,171.726z"/>
					<g>
						<circle style="fill:#FFED9E;" cx="274.638" cy="164.141" r="12.324"/>
						<circle style="fill:#E3D283;" cx="274.638" cy="164.141" r="12.324"/>
						<path style="opacity:0.6;fill:#A89850;" d="M273.459,152.996c7.043,0,12.753,5.71,12.753,12.753
							c0,1.49-0.258,2.919-0.727,4.247c0.942-1.742,1.478-3.736,1.478-5.855c0-6.807-5.518-12.324-12.324-12.324
							c-3.46,0-6.585,1.428-8.823,3.723C267.945,153.943,270.591,152.996,273.459,152.996z"/>
					</g>
				</g>
				<g>
					<circle style="fill:#FFED9E;" cx="240.371" cy="142.222" r="4.876"/>
					<circle style="fill:#E3D283;" cx="240.371" cy="142.222" r="4.876"/>
					<path style="opacity:0.6;fill:#A89850;" d="M239.905,137.812c2.786,0,5.045,2.259,5.045,5.045c0,0.589-0.102,1.155-0.288,1.68
						c0.373-0.689,0.585-1.478,0.585-2.317c0-2.693-2.183-4.876-4.876-4.876c-1.369,0-2.605,0.565-3.49,1.473
						C237.723,138.187,238.77,137.812,239.905,137.812z"/>
				</g>
				<g>
					<path style="opacity:0.4;fill:#FFED9E;" d="M292.093,224.783c0.084-0.156,0.163-0.315,0.239-0.476
						c0.021-0.044,0.04-0.088,0.06-0.132c0.055-0.12,0.107-0.242,0.157-0.365c0.021-0.052,0.041-0.104,0.061-0.156
						c0.048-0.125,0.093-0.251,0.136-0.379c0.015-0.046,0.031-0.091,0.046-0.136c0.055-0.174,0.107-0.349,0.153-0.527
						c0-0.001,0.001-0.003,0.001-0.005c0.044-0.173,0.083-0.349,0.118-0.526c0.011-0.054,0.02-0.109,0.029-0.164
						c0.023-0.127,0.043-0.255,0.061-0.384c0.009-0.063,0.017-0.126,0.024-0.19c0.015-0.129,0.027-0.258,0.037-0.389
						c0.004-0.058,0.01-0.115,0.013-0.174c0.011-0.186,0.018-0.374,0.018-0.563c0-3.151-1.517-5.948-3.86-7.7
						c-0.617-0.461-1.29-0.85-2.009-1.154c-0.431-0.182-0.878-0.334-1.339-0.453c-0.768-0.198-1.572-0.303-2.401-0.303l0,0l0,0
						c-0.167,0-0.334,0.005-0.499,0.013c-0.048,0.003-0.096,0.008-0.144,0.011c-0.117,0.008-0.234,0.015-0.349,0.027
						c-0.05,0.005-0.099,0.013-0.149,0.019c-0.113,0.013-0.226,0.026-0.337,0.044c-0.046,0.007-0.091,0.017-0.137,0.024
						c-0.115,0.019-0.229,0.039-0.342,0.062c-0.041,0.008-0.08,0.019-0.121,0.028c-0.118,0.026-0.235,0.052-0.351,0.083
						c-0.034,0.009-0.067,0.02-0.101,0.029c-0.121,0.033-0.242,0.067-0.361,0.105c-0.029,0.009-0.056,0.019-0.085,0.029
						c-0.124,0.04-0.247,0.082-0.369,0.127c-0.022,0.008-0.043,0.017-0.065,0.026c-0.128,0.048-0.254,0.099-0.379,0.152
						c-0.016,0.007-0.032,0.014-0.048,0.021c-0.13,0.057-0.259,0.116-0.385,0.178c-0.01,0.005-0.021,0.011-0.031,0.016
						c-0.132,0.065-0.262,0.133-0.39,0.204c-0.006,0.003-0.012,0.007-0.018,0.01c-0.132,0.073-0.262,0.15-0.391,0.229
						c-0.003,0.001-0.005,0.003-0.007,0.004c-0.665,0.413-1.276,0.905-1.819,1.463l0,0h0c-1.688,1.732-2.73,4.097-2.73,6.706
						c0,5.307,4.302,9.609,9.609,9.609C287.291,229.826,290.469,227.786,292.093,224.783L292.093,224.783L292.093,224.783z"/>
					<g>
						<path style="fill:#FFED9E;" d="M290.858,220.217c0,3.988-3.233,7.222-7.222,7.222c-3.988,0-7.222-3.233-7.222-7.222
							c0-3.988,3.233-7.222,7.222-7.222C287.625,212.995,290.858,216.229,290.858,220.217z"/>
						<path style="fill:#E3D283;" d="M290.858,220.217c0,3.988-3.233,7.222-7.222,7.222c-3.988,0-7.222-3.233-7.222-7.222
							c0-3.988,3.233-7.222,7.222-7.222C287.625,212.995,290.858,216.229,290.858,220.217z"/>
						<path style="opacity:0.6;fill:#A89850;" d="M282.946,213.686c4.127,0,7.473,3.346,7.473,7.473c0,0.873-0.151,1.71-0.426,2.489
							c0.552-1.021,0.866-2.189,0.866-3.431c0-3.988-3.233-7.222-7.222-7.222c-2.027,0-3.858,0.836-5.17,2.182
							C279.715,214.241,281.266,213.686,282.946,213.686z"/>
					</g>
				</g>
				<g>
					<path style="fill:#FFED9E;" d="M240.821,94.447c0,1.75-1.418,3.168-3.168,3.168s-3.168-1.418-3.168-3.168
						c0-1.749,1.418-3.168,3.168-3.168S240.821,92.698,240.821,94.447z"/>
					<path style="fill:#E3D283;" d="M240.821,94.447c0,1.75-1.418,3.168-3.168,3.168s-3.168-1.418-3.168-3.168
						c0-1.749,1.418-3.168,3.168-3.168S240.821,92.698,240.821,94.447z"/>
					<path style="opacity:0.6;fill:#A89850;" d="M237.35,91.583c1.81,0,3.278,1.467,3.278,3.278c0,0.383-0.066,0.75-0.187,1.092
						c0.242-0.448,0.38-0.96,0.38-1.505c0-1.749-1.418-3.168-3.168-3.168c-0.889,0-1.692,0.367-2.268,0.957
						C235.933,91.826,236.613,91.583,237.35,91.583z"/>
				</g>
				<g>
					<path style="fill:#FFED9E;" d="M184.915,193.72c0,1.749-1.418,3.168-3.168,3.168c-1.749,0-3.167-1.418-3.167-3.168
						c0-1.749,1.418-3.168,3.167-3.168C183.497,190.552,184.915,191.97,184.915,193.72z"/>
					<path style="fill:#E3D283;" d="M184.915,193.72c0,1.749-1.418,3.168-3.168,3.168c-1.749,0-3.167-1.418-3.167-3.168
						c0-1.749,1.418-3.168,3.167-3.168C183.497,190.552,184.915,191.97,184.915,193.72z"/>
					<path style="opacity:0.6;fill:#A89850;" d="M181.444,190.855c1.81,0,3.278,1.467,3.278,3.278c0,0.383-0.066,0.75-0.187,1.092
						c0.242-0.448,0.38-0.96,0.38-1.505c0-1.749-1.418-3.168-3.168-3.168c-0.889,0-1.692,0.367-2.268,0.957
						C180.027,191.098,180.707,190.855,181.444,190.855z"/>
				</g>
				<g>
					
						<ellipse transform="matrix(0.2065 -0.9785 0.9785 0.2065 49.6244 298.2724)" style="fill:#FFED9E;" cx="208.703" cy="118.542" rx="10.387" ry="10.387"/>
					
						<ellipse transform="matrix(0.2065 -0.9785 0.9785 0.2065 49.6244 298.2724)" style="fill:#E3D283;" cx="208.703" cy="118.542" rx="10.387" ry="10.387"/>
					<path style="opacity:0.6;fill:#A89850;" d="M207.709,109.148c5.936,0,10.748,4.812,10.748,10.748
						c0,1.256-0.217,2.46-0.613,3.58c0.794-1.468,1.245-3.149,1.245-4.935c0-5.737-4.65-10.387-10.387-10.387
						c-2.916,0-5.549,1.203-7.436,3.138C203.062,109.946,205.292,109.148,207.709,109.148z"/>
				</g>
				<g>
					<path style="opacity:0.4;fill:#FFED9E;" d="M320.442,195.431c0.145-0.269,0.281-0.543,0.412-0.82
						c0.036-0.075,0.069-0.152,0.103-0.228c0.094-0.207,0.184-0.417,0.269-0.629c0.036-0.089,0.071-0.178,0.106-0.268
						c0.082-0.215,0.16-0.433,0.234-0.653c0.026-0.079,0.054-0.156,0.08-0.235c0.095-0.299,0.184-0.602,0.263-0.908
						c0.001-0.002,0.001-0.005,0.002-0.008c0.076-0.299,0.143-0.602,0.202-0.906c0.018-0.093,0.034-0.188,0.05-0.282
						c0.039-0.219,0.074-0.439,0.105-0.661c0.015-0.109,0.029-0.217,0.042-0.327c0.026-0.222,0.047-0.445,0.064-0.67
						c0.008-0.1,0.017-0.199,0.023-0.299c0.019-0.321,0.031-0.644,0.031-0.971c0-5.428-2.613-10.245-6.649-13.264
						c-1.062-0.794-2.223-1.464-3.46-1.987c-0.743-0.314-1.513-0.576-2.306-0.78c-1.322-0.34-2.708-0.521-4.137-0.521l0,0l0,0
						c-0.288,0-0.575,0.008-0.859,0.022c-0.083,0.004-0.165,0.013-0.247,0.019c-0.201,0.013-0.403,0.026-0.602,0.047
						c-0.086,0.009-0.171,0.023-0.257,0.033c-0.194,0.023-0.389,0.046-0.581,0.075c-0.079,0.012-0.157,0.029-0.236,0.042
						c-0.197,0.033-0.395,0.067-0.59,0.107c-0.07,0.014-0.138,0.033-0.208,0.048c-0.203,0.045-0.405,0.09-0.605,0.142
						c-0.059,0.015-0.116,0.034-0.174,0.049c-0.209,0.057-0.417,0.115-0.622,0.18c-0.049,0.015-0.097,0.033-0.146,0.049
						c-0.214,0.07-0.426,0.141-0.636,0.219c-0.038,0.014-0.074,0.03-0.112,0.044c-0.22,0.083-0.438,0.17-0.652,0.262
						c-0.028,0.012-0.054,0.025-0.082,0.037c-0.224,0.098-0.445,0.199-0.664,0.306c-0.018,0.009-0.036,0.019-0.054,0.028
						c-0.227,0.112-0.451,0.229-0.671,0.351c-0.01,0.006-0.021,0.012-0.031,0.018c-0.228,0.127-0.452,0.258-0.673,0.395
						c-0.004,0.003-0.008,0.005-0.012,0.008c-1.146,0.711-2.198,1.558-3.134,2.519l0,0l0,0c-2.908,2.983-4.703,7.057-4.703,11.552
						c0,9.141,7.41,16.552,16.552,16.552C312.169,204.119,317.643,200.605,320.442,195.431L320.442,195.431L320.442,195.431z"/>
					<g>
						<circle style="fill:#FFED9E;" cx="305.874" cy="187.567" r="13.238"/>
						<circle style="fill:#E3D283;" cx="305.874" cy="187.567" r="13.238"/>
						<path style="opacity:0.6;fill:#A89850;" d="M304.608,175.596c7.566,0,13.699,6.133,13.699,13.699
							c0,1.6-0.277,3.135-0.781,4.562c1.012-1.871,1.587-4.013,1.587-6.29c0-7.311-5.927-13.238-13.238-13.238
							c-3.716,0-7.072,1.533-9.477,3.999C298.686,176.613,301.528,175.596,304.608,175.596z"/>
					</g>
				</g>
				<path style="fill:#EDDD93;" d="M195.714,133.984c0,1.051-0.852,1.904-1.904,1.904c-1.051,0-1.904-0.852-1.904-1.904
					s0.852-1.904,1.904-1.904C194.861,132.081,195.714,132.933,195.714,133.984z"/>
				<path style="opacity:0.8;fill:#EDDD93;" d="M219.58,97.615c0,0.599-0.485,1.084-1.084,1.084c-0.599,0-1.084-0.486-1.084-1.084
					c0-0.599,0.485-1.084,1.084-1.084C219.095,96.531,219.58,97.016,219.58,97.615z"/>
				<path style="opacity:0.8;fill:#EDDD93;" d="M247.98,171.016c0,0.599-0.486,1.084-1.084,1.084c-0.599,0-1.084-0.486-1.084-1.084
					c0-0.599,0.485-1.084,1.084-1.084C247.495,169.931,247.98,170.417,247.98,171.016z"/>
				<path style="opacity:0.8;fill:#EDDD93;" d="M286.831,137.499c0,0.599-0.485,1.084-1.084,1.084c-0.599,0-1.084-0.486-1.084-1.084
					s0.485-1.084,1.084-1.084C286.346,136.415,286.831,136.9,286.831,137.499z"/>
				<path style="fill:#E6D27A;" d="M196.461,184.093c0,0.413-0.335,0.748-0.748,0.748s-0.748-0.335-0.748-0.748
					c0-0.413,0.335-0.748,0.748-0.748S196.461,183.68,196.461,184.093z"/>
				<path style="fill:#E6D27A;" d="M265.815,145.315c0,0.413-0.335,0.748-0.748,0.748c-0.413,0-0.748-0.335-0.748-0.748
					c0-0.413,0.335-0.748,0.748-0.748C265.48,144.567,265.815,144.902,265.815,145.315z"/>
				<path style="fill:#E6D27A;" d="M253.002,98.363c0,0.413-0.335,0.748-0.748,0.748c-0.413,0-0.748-0.335-0.748-0.748
					c0-0.413,0.335-0.748,0.748-0.748C252.667,97.615,253.002,97.95,253.002,98.363z"/>
				<path style="fill:#E6D27A;" d="M219.045,144.766c0,0.303-0.246,0.549-0.549,0.549c-0.303,0-0.549-0.246-0.549-0.549
					c0-0.303,0.246-0.549,0.549-0.549C218.799,144.217,219.045,144.463,219.045,144.766z"/>
				<path style="fill:#E6D27A;" d="M194.359,214.547c0,0.303-0.246,0.549-0.549,0.549c-0.303,0-0.549-0.246-0.549-0.549
					c0-0.303,0.246-0.549,0.549-0.549C194.113,213.998,194.359,214.244,194.359,214.547z"/>
				<path style="fill:#E6D27A;" d="M232.368,121.308c0,0.303-0.246,0.549-0.549,0.549c-0.303,0-0.549-0.246-0.549-0.549
					c0-0.303,0.246-0.549,0.549-0.549C232.123,120.759,232.368,121.005,232.368,121.308z"/>
				<path style="fill:#C4B67A;" d="M267.846,203.411c0,0.391-0.317,0.708-0.708,0.708c-0.391,0-0.708-0.317-0.708-0.708
					c0-0.391,0.317-0.708,0.708-0.708C267.529,202.704,267.846,203.02,267.846,203.411z"/>
				<path style="fill:#C4B67A;" d="M309.3,211.952c0,0.455-0.369,0.823-0.823,0.823s-0.823-0.369-0.823-0.823
					c0-0.455,0.369-0.823,0.823-0.823S309.3,211.498,309.3,211.952z"/>
				<path style="fill:#DECB76;" d="M282.796,238.648c0,0.569-0.461,1.029-1.029,1.029c-0.568,0-1.029-0.461-1.029-1.029
					c0-0.569,0.461-1.029,1.029-1.029C282.335,237.619,282.796,238.08,282.796,238.648z"/>
				<path style="fill:#DECB76;" d="M306.219,157.366c0,0.379-0.307,0.686-0.686,0.686c-0.379,0-0.686-0.307-0.686-0.686
					c0-0.379,0.307-0.686,0.686-0.686C305.912,156.68,306.219,156.987,306.219,157.366z"/>
				<path style="fill:#DECB76;" d="M219.239,239.021c0,0.41-0.332,0.742-0.743,0.742c-0.41,0-0.743-0.332-0.743-0.742
					c0-0.41,0.333-0.742,0.743-0.742C218.906,238.279,219.239,238.611,219.239,239.021z"/>
				<circle style="fill:#DECB76;" cx="322.988" cy="168.386" r="0.773"/>
				<path style="opacity:0.8;fill:#EDDD93;" d="M274.028,89.477c0,1.138-0.922,2.06-2.06,2.06s-2.06-0.922-2.06-2.06
					c0-1.138,0.922-2.06,2.06-2.06S274.028,88.339,274.028,89.477z"/>
				<circle style="opacity:0.8;fill:#EDDD93;" cx="222.203" cy="173.395" r="3.113"/>
				<circle style="fill:#D4C583;" cx="260.639" cy="232.364" r="3.113"/>
				<path style="fill:#D4C583;" d="M314.006,114.854c0,1.141-0.925,2.066-2.066,2.066c-1.141,0-2.066-0.925-2.066-2.066
					c0-1.141,0.925-2.065,2.066-2.065C313.082,112.789,314.006,113.714,314.006,114.854z"/>
				<path style="fill:#D4C583;" d="M284.338,196.887c0,0.852-0.69,1.542-1.542,1.542c-0.851,0-1.542-0.69-1.542-1.542
					c0-0.851,0.69-1.542,1.542-1.542C283.648,195.346,284.338,196.036,284.338,196.887z"/>
				<path style="fill:#D4C583;" d="M241.272,242.72c0,0.691-0.56,1.252-1.252,1.252c-0.691,0-1.252-0.561-1.252-1.252
					c0-0.691,0.561-1.252,1.252-1.252C240.711,241.468,241.272,242.028,241.272,242.72z"/>
				<path style="fill:#D4C583;" d="M326.844,153.651c0,0.851-0.69,1.542-1.542,1.542c-0.852,0-1.542-0.69-1.542-1.542
					c0-0.852,0.69-1.542,1.542-1.542C326.154,152.109,326.844,152.799,326.844,153.651z"/>
				<path style="opacity:0.8;fill:#EDDD93;" d="M182.009,149.713c0,2.732-2.215,4.947-4.947,4.947c-2.732,0-4.947-2.215-4.947-4.947
					c0-2.732,2.215-4.947,4.947-4.947C179.794,144.766,182.009,146.981,182.009,149.713z"/>
			</g>
			<circle style="opacity:0.4;fill:#FFFBED;" cx="250.899" cy="165.161" r="87.858"/>
		</g>
		<path style="clip-path:url(#SVGID_00000155126358212931785110000011145393810506563239_);fill:#001C5C;" d="M360.96,296.925
			c-0.264-1.572-0.407-3.184-0.407-4.829c0-16.476,13.777-29.832,30.771-29.832c5.778,0,11.182,1.547,15.801,4.232
			c6.93-8.111,17.21-13.22,28.661-13.136c15.227,0.111,28.265,9.366,34.05,22.558c3.306-3.283,7.748-5.297,12.636-5.297
			c4.423,0,8.482,1.648,11.664,4.393c3.818-4.86,9.57-7.955,16.004-7.955c11.496,0,20.815,9.875,20.815,22.057
			c0,2.75-0.479,5.381-1.347,7.809H360.96z"/>
		<path style="clip-path:url(#SVGID_00000155126358212931785110000011145393810506563239_);fill:#2653C7;" d="M199.967,138.105
			c0.01-0.186,0.028-0.37,0.028-0.558c0-5.504-4.462-9.967-9.967-9.967c-2.798,0-5.323,1.156-7.133,3.013
			c-1.9-3.05-5.274-5.086-9.132-5.086c-2.242,0-4.323,0.687-6.046,1.859c-1.902-4.377-6.259-7.44-11.335-7.44
			c-2.262,0-4.376,0.618-6.2,1.679c-3.599-4.703-9.267-7.739-15.646-7.739c-7.565,0-14.129,4.267-17.428,10.524
			c-1.673-1.199-3.718-1.913-5.933-1.913c-3.331,0-6.28,1.603-8.142,4.071c-1.043-0.262-2.135-0.404-3.259-0.404
			c-6.896,0-12.568,5.243-13.247,11.96H199.967z"/>
		<path style="clip-path:url(#SVGID_00000155126358212931785110000011145393810506563239_);fill:#001C5C;" d="M-31.811,309.046
			c-0.015-0.325-0.042-0.647-0.042-0.977c0-9.63,6.636-17.437,14.821-17.437c4.161,0,7.915,2.023,10.607,5.272
			c2.826-5.336,7.844-8.898,13.581-8.898c3.334,0,6.428,1.201,8.991,3.253c2.828-7.658,9.308-13.017,16.857-13.017
			c3.364,0,6.508,1.081,9.22,2.938c5.352-8.228,13.781-13.54,23.268-13.54c11.249,0,21.012,7.466,25.917,18.412
			c2.488-2.098,5.529-3.347,8.823-3.347c4.953,0,9.338,2.804,12.108,7.123c1.551-0.459,3.174-0.706,4.847-0.706
			c10.255,0,18.69,9.172,19.7,20.924H-31.811z"/>
		<path style="clip-path:url(#SVGID_00000155126358212931785110000011145393810506563239_);fill:#002B94;" d="M109.572,145.646
			c0.111-0.507,0.17-1.029,0.17-1.564c0-4.556-4.2-8.25-9.382-8.25c-2.794,0-5.301,1.075-7.02,2.779
			c-1.183-6.607-6.954-11.622-13.901-11.622c-5.686,0-10.584,3.361-12.825,8.203c-1.798-1.614-4.16-2.596-6.748-2.596
			c-5.631,0-10.196,4.635-10.196,10.353c0,0.933,0.124,1.836,0.351,2.696H109.572z"/>
		<g style="clip-path:url(#SVGID_00000155126358212931785110000011145393810506563239_);">
			<polygon style="fill:#052785;" points="26.226,427.481 104.417,269.781 127.519,282.662 179.054,192.499 249.248,326.939 
				271.461,317.278 323.885,427.481 			"/>
			<path style="opacity:0.6;fill:#0932A6;" d="M179.054,192.499c0,0,1.299,21.27,1.299,22.259s4.493,16.374,4.493,16.374
				s-5.72,14.865-6.856,17.398c-1.136,2.533-3.449,28.917-4.501,29.973c-1.052,1.055-3.72,21.754-5.468,23.509
				c-1.748,1.755-10.936,36.015-10.936,36.015l-29.567-55.364L179.054,192.499z"/>
			<path style="opacity:0.6;fill:#0932A6;" d="M271.461,317.278l-0.192,0.946l-3.723,18.315l2.363,9.93c0,0-6.618,9.076-7.67,10.132
				c-1.052,1.055-4.466,13.509-4.466,13.509l-8.525-43.171"/>
			<polygon style="opacity:0.6;fill:#0932A6;" points="104.417,269.781 113.342,291.167 110.818,309.99 124.278,332.116 
				136.476,375.175 139.841,400.504 152.88,413.169 157.086,427.481 26.226,427.481 			"/>
		</g>
		<g style="clip-path:url(#SVGID_00000155126358212931785110000011145393810506563239_);">
			<polygon style="fill:#052785;" points="513.394,428.44 455.82,325.697 438.809,334.122 408.233,274.507 372.723,319.812 
				362.132,305.331 322.853,345.939 297.932,336.868 206.081,428.44 			"/>
			<polygon style="opacity:0.6;fill:#0932A6;" points="408.233,274.507 402.774,299.862 406.729,315.771 396.225,329.194 
				387.862,342.12 372.723,319.812 			"/>
			<polygon style="opacity:0.6;fill:#0932A6;" points="362.132,305.331 359.258,320.159 362.917,328.094 362.917,335.839 
				356.661,351.138 343.958,363.818 323.669,345.822 			"/>
			<path style="opacity:0.6;fill:#0932A6;" d="M455.82,325.697l-17.217,8.023l8.626,18.221c0,0,6.9-4.409,6.9-4.777
				c0-0.367-1.941-4.287-1.941-4.654c0-0.368-2.372-5.389-2.372-5.389l4.313-2.94L455.82,325.697z"/>
			<path style="opacity:0.6;fill:#0932A6;" d="M297.932,336.868l11.749,21.444l9.169,13.936c0,0,10.318,21.262,10.318,20.615
				s7.029,23.985,7.029,23.985l-9.694,11.591H205.528L297.932,336.868"/>
		</g>
		<polygon style="clip-path:url(#SVGID_00000155126358212931785110000011145393810506563239_);fill:#113CB5;" points="
			113.019,407.582 104.757,391.514 108.81,391.514 99.95,374.282 104.707,374.282 96.757,358.819 100.367,358.819 92.3,343.129 
			84.232,358.819 87.843,358.819 79.892,374.282 84.65,374.282 75.789,391.514 79.843,391.514 71.581,407.582 		"/>
		<polygon style="clip-path:url(#SVGID_00000155126358212931785110000011145393810506563239_);fill:#1C48C4;" points="
			123.521,405.437 115.905,393.798 119.641,393.798 111.474,381.316 115.86,381.316 108.531,370.116 111.859,370.116 
			104.422,358.752 96.986,370.116 100.314,370.116 92.985,381.316 97.371,381.316 89.203,393.798 92.94,393.798 85.324,405.437 		
			"/>
		<polygon style="clip-path:url(#SVGID_00000155126358212931785110000011145393810506563239_);fill:#113CB5;" points="
			346.889,422.337 337.884,404.825 342.302,404.825 332.645,386.043 337.83,386.043 329.165,369.19 333.1,369.19 324.307,352.089 
			315.514,369.19 319.449,369.19 310.784,386.043 315.969,386.043 306.312,404.825 310.73,404.825 301.725,422.337 		"/>
		<polygon style="clip-path:url(#SVGID_00000155126358212931785110000011145393810506563239_);fill:#113CB5;" points="
			243.77,433.265 234.766,415.752 239.183,415.752 229.526,396.97 234.712,396.97 226.046,380.117 229.981,380.117 221.188,363.017 
			212.396,380.117 216.33,380.117 207.665,396.97 212.851,396.97 203.194,415.752 207.611,415.752 198.607,433.265 		"/>
		<polygon style="clip-path:url(#SVGID_00000155126358212931785110000011145393810506563239_);fill:#113CB5;" points="
			88.366,402.864 79.361,385.351 83.779,385.351 74.122,366.569 79.307,366.569 70.642,349.716 74.577,349.716 65.784,332.615 
			56.991,349.716 60.926,349.716 52.26,366.569 57.446,366.569 47.789,385.351 52.207,385.351 43.202,402.864 		"/>
		<polygon style="clip-path:url(#SVGID_00000155126358212931785110000011145393810506563239_);fill:#113CB5;" points="
			55.084,409.817 45.582,389.634 50.244,389.634 40.053,367.989 45.525,367.989 36.381,348.567 40.533,348.567 31.255,328.859 
			21.976,348.567 26.128,348.567 16.984,367.989 22.456,367.989 12.265,389.634 16.927,389.634 7.425,409.817 		"/>
		<polygon style="clip-path:url(#SVGID_00000155126358212931785110000011145393810506563239_);fill:#113CB5;" points="
			147.357,411.646 138.352,394.133 142.77,394.133 133.113,375.352 138.298,375.352 129.633,358.499 133.568,358.499 
			124.775,341.398 115.982,358.499 119.917,358.499 111.252,375.352 116.437,375.352 106.78,394.133 111.198,394.133 
			102.193,411.646 		"/>
		<polygon style="clip-path:url(#SVGID_00000155126358212931785110000011145393810506563239_);fill:#113CB5;" points="
			189.153,414.737 181.772,400.381 185.393,400.381 177.477,384.985 181.728,384.985 174.625,371.171 177.85,371.171 
			170.642,357.152 163.435,371.171 166.66,371.171 159.557,384.985 163.808,384.985 155.891,400.381 159.513,400.381 
			152.131,414.737 		"/>
		<polygon style="clip-path:url(#SVGID_00000155126358212931785110000011145393810506563239_);fill:#113CB5;" points="
			459.465,403.733 449.328,388.24 454.301,388.24 443.43,371.626 449.267,371.626 439.512,356.718 443.942,356.718 434.043,341.59 
			424.145,356.718 428.574,356.718 418.819,371.626 424.657,371.626 413.785,388.24 418.759,388.24 408.621,403.733 		"/>
		<polygon style="clip-path:url(#SVGID_00000155126358212931785110000011145393810506563239_);fill:#2350CC;" points="
			327.948,436.489 317.811,420.997 322.784,420.997 311.913,404.383 317.75,404.383 307.995,389.474 312.425,389.474 
			302.526,374.347 292.628,389.474 297.057,389.474 287.302,404.383 293.14,404.383 282.268,420.997 287.242,420.997 
			277.104,436.489 		"/>
		<polygon style="clip-path:url(#SVGID_00000155126358212931785110000011145393810506563239_);fill:#113CB5;" points="
			392.412,414.619 382.111,398.877 387.165,398.877 376.118,381.994 382.049,381.994 372.137,366.846 376.638,366.846 
			366.58,351.474 356.521,366.846 361.022,366.846 351.11,381.994 357.042,381.994 345.995,398.877 351.048,398.877 
			340.747,414.619 		"/>
		<polygon style="clip-path:url(#SVGID_00000155126358212931785110000011145393810506563239_);fill:#113CB5;" points="
			419.6,402.737 411.681,388.01 415.566,388.01 407.074,372.217 411.634,372.217 404.014,358.046 407.474,358.046 399.742,343.666 
			392.009,358.046 395.469,358.046 387.849,372.217 392.409,372.217 383.917,388.01 387.802,388.01 379.883,402.737 		"/>
		<polygon style="clip-path:url(#SVGID_00000155126358212931785110000011145393810506563239_);fill:#113CB5;" points="
			275.638,435.473 267.451,420.185 271.468,420.185 262.687,403.789 267.402,403.789 259.523,389.078 263.101,389.078 
			255.106,374.149 247.111,389.078 250.689,389.078 242.81,403.789 247.525,403.789 238.744,420.185 242.761,420.185 
			234.574,435.473 		"/>
		<polygon style="clip-path:url(#SVGID_00000155126358212931785110000011145393810506563239_);fill:#1C48C4;" points="
			255.106,433.927 246.918,421.415 250.935,421.415 242.155,407.996 246.869,407.996 238.991,395.955 242.568,395.955 
			234.573,383.737 226.579,395.955 230.156,395.955 222.278,407.996 226.993,407.996 218.212,421.415 222.229,421.415 
			214.041,433.927 		"/>
		<polygon style="clip-path:url(#SVGID_00000155126358212931785110000011145393810506563239_);fill:#113CB5;" points="
			217.629,423.854 209.442,409.213 213.458,409.213 204.678,393.512 209.393,393.512 201.514,379.422 205.092,379.422 
			197.097,365.126 189.102,379.422 192.68,379.422 184.801,393.512 189.516,393.512 180.735,409.213 184.752,409.213 
			176.564,423.854 		"/>
		<polygon style="clip-path:url(#SVGID_00000155126358212931785110000011145393810506563239_);fill:#113CB5;" points="
			306.666,438.481 296.179,422.454 301.324,422.454 290.077,405.267 296.116,405.267 286.025,389.844 290.607,389.844 
			280.367,374.194 270.127,389.844 274.709,389.844 264.618,405.267 270.657,405.267 259.41,422.454 264.555,422.454 
			254.068,438.481 		"/>
		<polygon style="clip-path:url(#SVGID_00000155126358212931785110000011145393810506563239_);fill:#113CB5;" points="
			488.231,386.538 480.899,375.333 484.496,375.333 476.632,363.315 480.855,363.315 473.799,352.532 477.003,352.532 
			469.843,341.59 462.683,352.532 465.887,352.532 458.832,363.315 463.054,363.315 455.19,375.333 458.788,375.333 
			451.455,386.538 		"/>
		<polygon style="clip-path:url(#SVGID_00000155126358212931785110000011145393810506563239_);fill:#2350CC;" points="
			366.961,420.652 357.462,406.136 362.122,406.136 351.935,390.568 357.405,390.568 348.265,376.599 352.415,376.599 
			343.14,362.424 333.865,376.599 338.016,376.599 328.875,390.568 334.345,390.568 324.158,406.136 328.818,406.136 
			319.319,420.652 		"/>
		<polygon style="clip-path:url(#SVGID_00000155126358212931785110000011145393810506563239_);fill:#1C48C4;" points="
			470.469,397.897 463.137,386.691 466.734,386.691 458.87,374.674 463.093,374.674 456.037,363.891 459.241,363.891 
			452.081,352.949 444.921,363.891 448.125,363.891 441.069,374.674 445.292,374.674 437.428,386.691 441.026,386.691 
			433.693,397.897 		"/>
		<polygon style="clip-path:url(#SVGID_00000155126358212931785110000011145393810506563239_);fill:#1C48C4;" points="
			313.96,446.328 306.628,435.122 310.225,435.122 302.361,423.105 306.584,423.105 299.528,412.322 302.732,412.322 
			295.572,401.38 288.412,412.322 291.617,412.322 284.561,423.105 288.783,423.105 280.919,435.122 284.517,435.122 
			277.184,446.328 		"/>
		<polygon style="clip-path:url(#SVGID_00000155126358212931785110000011145393810506563239_);fill:#2350CC;" points="
			181.467,417.491 171.878,402.836 176.582,402.836 166.298,387.121 171.82,387.121 162.593,373.019 166.783,373.019 157.42,358.71 
			148.056,373.019 152.247,373.019 143.019,387.121 148.541,387.121 138.257,402.836 142.962,402.836 133.373,417.491 		"/>
		<polygon style="clip-path:url(#SVGID_00000155126358212931785110000011145393810506563239_);fill:#2350CC;" points="
			221.188,427.383 215.965,419.401 218.528,419.401 212.927,410.841 215.934,410.841 210.908,403.16 213.191,403.16 208.09,395.366 
			202.99,403.16 205.273,403.16 200.247,410.841 203.255,410.841 197.653,419.401 200.216,419.401 194.993,427.383 		"/>
		<polygon style="clip-path:url(#SVGID_00000155126358212931785110000011145393810506563239_);fill:#2350CC;" points="
			98.976,404.408 93.753,396.427 96.315,396.427 90.714,387.866 93.721,387.866 88.695,380.185 90.978,380.185 85.878,372.391 
			80.778,380.185 83.06,380.185 78.034,387.866 81.042,387.866 75.44,396.427 78.003,396.427 72.78,404.408 		"/>
		<polygon style="clip-path:url(#SVGID_00000155126358212931785110000011145393810506563239_);fill:#1C48C4;" points="
			435.604,406.211 428.271,395.005 431.869,395.005 424.005,382.988 428.227,382.988 421.172,372.205 424.376,372.205 
			417.216,361.263 410.056,372.205 413.26,372.205 406.204,382.988 410.427,382.988 402.563,395.005 406.16,395.005 
			398.828,406.211 		"/>
		<polygon style="clip-path:url(#SVGID_00000155126358212931785110000011145393810506563239_);fill:#1C48C4;" points="
			504.23,385.318 499.121,377.511 501.628,377.511 496.149,369.137 499.091,369.137 494.174,361.624 496.407,361.624 491.418,354 
			486.43,361.624 488.662,361.624 483.746,369.137 486.688,369.137 481.209,377.511 483.715,377.511 478.606,385.318 		"/>
		<polygon style="clip-path:url(#SVGID_00000155126358212931785110000011145393810506563239_);fill:#1C48C4;" points="
			288.579,448.218 281.247,437.012 284.844,437.012 276.98,424.995 281.203,424.995 274.147,414.212 277.351,414.212 
			270.191,403.27 263.031,414.212 266.236,414.212 259.18,424.995 263.402,424.995 255.539,437.012 259.136,437.012 
			251.803,448.218 		"/>
		<polygon style="clip-path:url(#SVGID_00000155126358212931785110000011145393810506563239_);fill:#1C48C4;" points="
			69.407,402.035 60.795,386.576 65.02,386.576 55.784,369.997 60.743,369.997 52.456,355.121 56.219,355.121 47.81,340.026 
			39.4,355.121 43.163,355.121 34.876,369.997 39.835,369.997 30.599,386.576 34.824,386.576 26.212,402.035 		"/>
		<polygon style="clip-path:url(#SVGID_00000155126358212931785110000011145393810506563239_);fill:#1C48C4;" points="
			199.032,422.402 191.7,411.196 195.297,411.196 187.433,399.179 191.656,399.179 184.6,388.396 187.804,388.396 180.644,377.454 
			173.484,388.396 176.688,388.396 169.632,399.179 173.855,399.179 165.991,411.196 169.588,411.196 162.256,422.402 		"/>
		<polygon style="clip-path:url(#SVGID_00000155126358212931785110000011145393810506563239_);fill:#1C48C4;" points="
			151.867,410.795 144.535,399.59 148.132,399.59 140.269,387.572 144.491,387.572 137.435,376.789 140.639,376.789 
			133.479,365.847 126.32,376.789 129.524,376.789 122.468,387.572 126.69,387.572 118.827,399.59 122.424,399.59 115.092,410.795 
					"/>
		<polygon style="clip-path:url(#SVGID_00000155126358212931785110000011145393810506563239_);fill:#1C48C4;" points="
			27.177,400.343 19.844,389.137 23.442,389.137 15.578,377.12 19.8,377.12 12.745,366.337 15.949,366.337 8.789,355.395 
			1.629,366.337 4.833,366.337 -2.223,377.12 2,377.12 -5.864,389.137 -2.267,389.137 -9.599,400.343 		"/>
		<polygon style="clip-path:url(#SVGID_00000155126358212931785110000011145393810506563239_);fill:#1C48C4;" points="
			342.54,426.52 335.208,415.315 338.805,415.315 330.942,403.297 335.164,403.297 328.108,392.514 331.312,392.514 
			324.152,381.572 316.993,392.514 320.197,392.514 313.141,403.297 317.363,403.297 309.5,415.315 313.097,415.315 305.765,426.52 
					"/>
		<polygon style="clip-path:url(#SVGID_00000155126358212931785110000011145393810506563239_);fill:#2350CC;" points="
			400.615,412.872 393.282,401.667 396.88,401.667 389.016,389.65 393.238,389.65 386.183,378.866 389.387,378.866 382.227,367.924 
			375.067,378.866 378.271,378.866 371.215,389.65 375.438,389.65 367.574,401.667 371.171,401.667 363.839,412.872 		"/>
		<polygon style="clip-path:url(#SVGID_00000155126358212931785110000011145393810506563239_);fill:#2350CC;" points="
			260.84,442.254 255.803,434.556 258.274,434.556 252.872,426.299 255.772,426.299 250.925,418.892 253.126,418.892 
			248.207,411.374 243.289,418.892 245.49,418.892 240.642,426.299 243.543,426.299 238.141,434.556 240.612,434.556 
			235.575,442.254 		"/>
		<polygon style="clip-path:url(#SVGID_00000155126358212931785110000011145393810506563239_);fill:#2350CC;" points="
			415.869,403.27 410.831,395.572 413.303,395.572 407.9,387.315 410.801,387.315 405.954,379.907 408.155,379.907 403.236,372.39 
			398.317,379.907 400.519,379.907 395.671,387.315 398.572,387.315 393.17,395.572 395.641,395.572 390.604,403.27 		"/>
		<polygon style="clip-path:url(#SVGID_00000155126358212931785110000011145393810506563239_);fill:#2350CC;" points="
			130.753,405.54 125.53,397.558 128.092,397.558 122.491,388.998 125.499,388.998 120.473,381.317 122.755,381.317 
			117.655,373.523 112.555,381.317 114.837,381.317 109.811,388.998 112.819,388.998 107.218,397.558 109.78,397.558 
			104.557,405.54 		"/>
		<polygon style="clip-path:url(#SVGID_00000155126358212931785110000011145393810506563239_);fill:#2350CC;" points="
			42.193,396.808 36.97,388.826 39.533,388.826 33.931,380.266 36.939,380.266 31.913,372.585 34.195,372.585 29.095,364.791 
			23.995,372.585 26.278,372.585 21.252,380.266 24.259,380.266 18.658,388.826 21.22,388.826 15.997,396.808 		"/>
		<polygon style="clip-path:url(#SVGID_00000155126358212931785110000011145393810506563239_);fill:#2350CC;" points="
			77.239,399.398 70.415,388.97 73.763,388.97 66.445,377.786 70.374,377.786 63.808,367.751 66.79,367.751 60.126,357.568 
			53.463,367.751 56.445,367.751 49.879,377.786 53.808,377.786 46.49,388.97 49.838,388.97 43.014,399.398 		"/>
		<polygon style="clip-path:url(#SVGID_00000155126358212931785110000011145393810506563239_);fill:#2350CC;" points="
			455.89,409.556 447.801,397.194 451.77,397.194 443.094,383.935 447.752,383.935 439.968,372.039 443.503,372.039 
			435.604,359.967 427.704,372.039 431.239,372.039 423.455,383.935 428.113,383.935 419.438,397.194 423.406,397.194 
			415.317,409.556 		"/>
		<polygon style="clip-path:url(#SVGID_00000155126358212931785110000011145393810506563239_);fill:#2350CC;" points="
			492.662,387.213 487.382,379.145 489.972,379.145 484.31,370.492 487.351,370.492 482.27,362.728 484.577,362.728 
			479.422,354.849 474.267,362.728 476.574,362.728 471.493,370.492 474.533,370.492 468.871,379.145 471.462,379.145 
			466.182,387.213 		"/>
		<g style="clip-path:url(#SVGID_00000155126358212931785110000011145393810506563239_);">
			<path style="fill:#002A91;" d="M499.613,374.48v125.224H188.68C241.32,446.885,431.358,374.481,499.613,374.48z"/>
			<path style="fill:#002275;" d="M500.899,384.846V500H188.358C241.27,451.428,432.291,384.847,500.899,384.846z"/>
			<path style="fill:#0030A3;" d="M0,386.933v112.771h401.051C333.155,452.137,88.037,386.934,0,386.933z"/>
			<path style="fill:#002275;" d="M0,394.582V500h406.25C337.474,455.535,89.178,394.582,0,394.582z"/>
		</g>
		<g style="opacity:0.6;clip-path:url(#SVGID_00000155126358212931785110000011145393810506563239_);">
			<path style="fill:#001A57;" d="M67.069,448.984c0,2.003-6.729,3.627-15.03,3.627s-15.03-1.624-15.03-3.627
				c0-2.003,6.729-3.627,15.03-3.627S67.069,446.98,67.069,448.984z"/>
			<ellipse style="fill:#001A57;" cx="176.571" cy="459.9" rx="12.814" ry="3.092"/>
			<ellipse style="opacity:0.28;fill:#001445;" cx="11.352" cy="470.232" rx="37.988" ry="9.167"/>
			<ellipse style="fill:#001A57;" cx="91.786" cy="477.404" rx="22.116" ry="5.694"/>
			<ellipse style="opacity:0.4;fill:#001445;" cx="155.346" cy="437.272" rx="16.932" ry="4.8"/>
			<ellipse style="opacity:0.28;fill:#001445;" cx="441.119" cy="460.511" rx="26.344" ry="7.486"/>
			<path style="opacity:0.6;fill:#001445;" d="M508.39,447.524c0,2.465-7.507,4.463-16.767,4.463c-9.26,0-16.767-1.998-16.767-4.463
				c0-2.465,7.507-4.463,16.767-4.463C500.883,443.061,508.39,445.059,508.39,447.524z"/>
			<path style="opacity:0.2;fill:#00123B;" d="M415.553,446.975c0,1.558-4.411,2.822-9.853,2.822c-5.442,0-9.853-1.263-9.853-2.822
				c0-1.559,4.411-2.822,9.853-2.822C411.142,444.153,415.553,445.416,415.553,446.975z"/>
			<ellipse style="opacity:0.4;fill:#00123B;" cx="350.116" cy="450.806" rx="13.376" ry="3.831"/>
			<path style="opacity:0.4;fill:#000D2B;" d="M400.882,466.713c0,0.631-1.786,1.142-3.989,1.142c-2.203,0-3.989-0.512-3.989-1.142
				c0-0.631,1.786-1.142,3.989-1.142C399.096,465.57,400.882,466.082,400.882,466.713z"/>
			<path style="opacity:0.6;fill:#000D2B;" d="M436.253,438.746c0,0.332-0.94,0.602-2.1,0.602c-1.16,0-2.1-0.269-2.1-0.602
				c0-0.332,0.94-0.602,2.1-0.602C435.312,438.144,436.253,438.414,436.253,438.746z"/>
			<path style="opacity:0.4;fill:#000D2B;" d="M212.51,456.217c0,0.326-0.739,0.591-1.651,0.591c-0.912,0-1.651-0.265-1.651-0.591
				c0-0.326,0.739-0.591,1.651-0.591C211.771,455.626,212.51,455.89,212.51,456.217z"/>
			<path style="opacity:0.4;fill:#000D2B;" d="M60.682,488.08c0,0.326-0.739,0.591-1.651,0.591c-0.912,0-1.651-0.265-1.651-0.591
				c0-0.327,0.739-0.591,1.651-0.591C59.943,487.489,60.682,487.753,60.682,488.08z"/>
			<path style="opacity:0.4;fill:#000D2B;" d="M24.693,442.584c0,0.326-0.739,0.591-1.651,0.591c-0.912,0-1.651-0.265-1.651-0.591
				c0-0.327,0.739-0.591,1.651-0.591C23.953,441.993,24.693,442.258,24.693,442.584z"/>
			<path style="opacity:0.4;fill:#000D2B;" d="M381.717,442.663c0,0.326-0.739,0.591-1.651,0.591c-0.912,0-1.651-0.265-1.651-0.591
				c0-0.327,0.739-0.591,1.651-0.591C380.977,442.072,381.717,442.336,381.717,442.663z"/>
			<path style="opacity:0.4;fill:#000D2B;" d="M497.893,463.151c0,0.388-0.878,0.702-1.961,0.702c-1.083,0-1.961-0.314-1.961-0.702
				c0-0.388,0.878-0.702,1.961-0.702C497.015,462.449,497.893,462.763,497.893,463.151z"/>
			<path style="opacity:0.4;fill:#000D2B;" d="M161.553,474.191c0,0.327-0.739,0.591-1.651,0.591c-0.912,0-1.651-0.265-1.651-0.591
				c0-0.326,0.739-0.591,1.651-0.591C160.813,473.6,161.553,473.865,161.553,474.191z"/>
			<path style="opacity:0.7;fill:#000D2B;" d="M150.78,451.059c0,0.251-0.568,0.454-1.268,0.454c-0.7,0-1.268-0.203-1.268-0.454
				c0-0.251,0.568-0.454,1.268-0.454C150.212,450.605,150.78,450.809,150.78,451.059z"/>
			<ellipse style="opacity:0.7;fill:#000D2B;" cx="119.353" cy="462.538" rx="1.268" ry="0.454"/>
			<path style="opacity:0.4;fill:#000D2B;" d="M374.159,460.042c0,0.517-1.171,0.936-2.616,0.936s-2.616-0.419-2.616-0.936
				c0-0.517,1.171-0.936,2.616-0.936S374.159,459.525,374.159,460.042z"/>
			<path style="opacity:0.7;fill:#000D2B;" d="M429.294,485.006c0,0.251-0.51,0.454-1.139,0.454c-0.629,0-1.139-0.203-1.139-0.454
				s0.51-0.454,1.139-0.454C428.784,484.552,429.294,484.755,429.294,485.006z"/>
			<path style="opacity:0.2;fill:#000D2B;" d="M482.944,478.823c0,1.011-2.056,1.83-4.592,1.83s-4.592-0.819-4.592-1.83
				c0-1.011,2.056-1.83,4.592-1.83S482.944,477.812,482.944,478.823z"/>
			<ellipse style="opacity:0.2;fill:#000D2B;" cx="185.063" cy="444.493" rx="4.592" ry="1.83"/>
			<path style="opacity:0.6;fill:#001445;" d="M96.971,460.436c0,0.91-2.321,1.648-5.185,1.648c-2.864,0-5.185-0.738-5.185-1.648
				s2.321-1.648,5.185-1.648C94.65,458.789,96.971,459.526,96.971,460.436z"/>
			<path style="opacity:0.6;fill:#001445;" d="M138.854,482.107c0,0.567-1.447,1.027-3.232,1.027c-1.785,0-3.232-0.46-3.232-1.027
				c0-0.567,1.447-1.027,3.232-1.027C137.407,481.08,138.854,481.54,138.854,482.107z"/>
		</g>
		<g style="clip-path:url(#SVGID_00000155126358212931785110000011145393810506563239_);">
			<g>
				<polygon style="fill:#2C61F5;" points="90.55,405.295 80.822,383.016 85.594,383.722 75.161,359.828 80.763,360.657 
					71.402,339.217 75.653,339.846 66.153,318.091 56.653,337.036 60.905,337.664 51.543,356.335 57.145,357.163 46.712,377.97 
					51.485,378.676 41.756,398.078 				"/>
				<polygon style="opacity:0.1;fill:#001445;" points="66.153,318.091 66.153,401.686 90.55,405.295 80.822,383.016 
					85.594,383.722 75.161,359.828 80.763,360.657 71.402,339.217 75.653,339.846 				"/>
			</g>
			<g>
				<polygon style="fill:#2C61F5;" points="419.747,410.998 410.148,390.749 414.857,389.82 404.563,368.105 410.091,367.015 
					400.854,347.529 405.048,346.702 395.676,326.93 386.303,350.398 390.497,349.571 381.261,372.699 386.788,371.609 
					376.494,397.385 381.203,396.456 371.605,420.49 				"/>
				<polygon style="opacity:0.1;fill:#001445;" points="395.676,326.93 395.676,415.744 419.747,410.998 410.148,390.749 
					414.857,389.82 404.563,368.105 410.091,367.015 400.854,347.529 405.048,346.702 				"/>
			</g>
			<g>
				<polygon style="fill:#2C61F5;" points="496.055,390.861 487.812,373.472 491.856,372.674 483.016,354.026 487.763,353.09 
					479.831,336.357 483.433,335.647 475.384,318.667 467.335,338.821 470.937,338.11 463.005,357.972 467.752,357.036 
					458.912,379.17 462.956,378.373 454.713,399.012 				"/>
				<polygon style="opacity:0.1;fill:#001445;" points="475.384,318.667 475.384,394.936 496.055,390.861 487.812,373.472 
					491.856,372.674 483.016,354.026 487.763,353.09 479.831,336.357 483.433,335.647 				"/>
			</g>
			<g>
				<polygon style="fill:#2C61F5;" points="466.39,414.434 457.624,395.94 461.924,395.092 452.523,375.259 457.571,374.263 
					449.135,356.466 452.966,355.711 444.405,337.652 435.845,359.087 439.676,358.332 431.24,379.455 436.288,378.46 
					426.886,402.001 431.187,401.153 422.421,423.104 				"/>
				<polygon style="opacity:0.1;fill:#001445;" points="444.405,337.652 444.405,418.769 466.39,414.434 457.624,395.94 
					461.924,395.092 452.523,375.259 457.571,374.263 449.135,356.466 452.966,355.711 				"/>
			</g>
			<g>
				<polygon style="fill:#2C61F5;" points="139.116,437.567 127.729,411.49 133.316,412.316 121.104,384.35 127.661,385.32 
					116.703,360.226 121.679,360.962 110.56,335.498 99.441,357.672 104.417,358.409 93.46,380.261 100.017,381.231 87.805,405.585 
					93.391,406.411 82.004,429.12 				"/>
				<polygon style="opacity:0.1;fill:#001445;" points="110.56,335.498 110.56,433.343 139.116,437.567 127.729,411.49 
					133.316,412.316 121.104,384.35 127.661,385.32 116.703,360.226 121.679,360.962 				"/>
			</g>
			<g>
				<polygon style="fill:#2C61F5;" points="60.126,419.201 46.88,388.865 53.379,389.826 39.172,357.293 46.801,358.421 
					34.053,329.229 39.842,330.085 26.907,300.463 13.972,326.258 19.761,327.115 7.014,352.536 14.642,353.664 0.436,381.995 
					6.934,382.956 -6.312,409.373 				"/>
				<polygon style="opacity:0.1;fill:#001445;" points="26.907,300.463 26.907,414.287 60.126,419.201 46.88,388.865 
					53.379,389.826 39.172,357.293 46.801,358.421 34.053,329.229 39.842,330.085 				"/>
			</g>
		</g>
		
			<circle style="clip-path:url(#SVGID_00000155126358212931785110000011145393810506563239_);fill:#FFFFFF;" cx="447.211" cy="149.207" r="0.933"/>
		<path style="clip-path:url(#SVGID_00000155126358212931785110000011145393810506563239_);fill:#FFFFFF;" d="M339.43,250.943
			c0,0.515-0.418,0.933-0.933,0.933c-0.515,0-0.933-0.417-0.933-0.933c0-0.515,0.418-0.933,0.933-0.933
			C339.012,250.01,339.43,250.428,339.43,250.943z"/>
		<path style="clip-path:url(#SVGID_00000155126358212931785110000011145393810506563239_);fill:#FFFFFF;" d="M172.094,18.527
			c0,0.515-0.418,0.933-0.933,0.933c-0.515,0-0.933-0.418-0.933-0.933s0.417-0.933,0.933-0.933
			C171.676,17.594,172.094,18.011,172.094,18.527z"/>
		<path style="clip-path:url(#SVGID_00000155126358212931785110000011145393810506563239_);fill:#FFFFFF;" d="M376.989,209.768
			c0,0.515-0.418,0.933-0.933,0.933s-0.933-0.418-0.933-0.933c0-0.515,0.418-0.933,0.933-0.933S376.989,209.253,376.989,209.768z"/>
		<path style="clip-path:url(#SVGID_00000155126358212931785110000011145393810506563239_);fill:#FFFFFF;" d="M406.845,24.76
			c0,0.805-0.652,1.457-1.457,1.457c-0.805,0-1.457-0.653-1.457-1.457s0.652-1.457,1.457-1.457
			C406.193,23.302,406.845,23.955,406.845,24.76z"/>
		
			<circle style="clip-path:url(#SVGID_00000155126358212931785110000011145393810506563239_);fill:#FFFFFF;" cx="355.562" cy="115.423" r="1.457"/>
		<path style="clip-path:url(#SVGID_00000155126358212931785110000011145393810506563239_);fill:#FFFFFF;" d="M130.449,176.192
			c0,0.805-0.652,1.457-1.457,1.457c-0.805,0-1.457-0.653-1.457-1.457c0-0.805,0.653-1.457,1.457-1.457
			C129.797,174.735,130.449,175.387,130.449,176.192z"/>
		<path style="clip-path:url(#SVGID_00000155126358212931785110000011145393810506563239_);fill:#FFFFFF;" d="M448.669,215.409
			c0,0.805-0.652,1.457-1.457,1.457c-0.805,0-1.457-0.653-1.457-1.457c0-0.805,0.652-1.457,1.457-1.457
			C448.016,213.952,448.669,214.604,448.669,215.409z"/>
		
			<circle style="clip-path:url(#SVGID_00000155126358212931785110000011145393810506563239_);fill:#FFFFFF;" cx="83.755" cy="249.501" r="1.457"/>
		<path style="opacity:0.2;clip-path:url(#SVGID_00000155126358212931785110000011145393810506563239_);fill:#FFFFFF;" d="
			M232.222,17.014c0,0.805-0.652,1.457-1.457,1.457c-0.805,0-1.457-0.653-1.457-1.457c0-0.805,0.652-1.457,1.457-1.457
			C231.569,15.557,232.222,16.21,232.222,17.014z"/>
		<path style="opacity:0.2;clip-path:url(#SVGID_00000155126358212931785110000011145393810506563239_);fill:#FFFFFF;" d="
			M417.216,200.325c0,0.805-0.652,1.457-1.457,1.457c-0.805,0-1.457-0.652-1.457-1.457c0-0.805,0.652-1.457,1.457-1.457
			C416.563,198.867,417.216,199.52,417.216,200.325z"/>
		<path style="opacity:0.2;clip-path:url(#SVGID_00000155126358212931785110000011145393810506563239_);fill:#FFFFFF;" d="
			M24.532,144.542c0,0.805-0.652,1.457-1.457,1.457c-0.805,0-1.457-0.652-1.457-1.457c0-0.805,0.652-1.457,1.457-1.457
			C23.88,143.085,24.532,143.738,24.532,144.542z"/>
		
			<circle style="opacity:0.2;clip-path:url(#SVGID_00000155126358212931785110000011145393810506563239_);fill:#FFFFFF;" cx="66.799" cy="206.852" r="1.457"/>
		<path style="clip-path:url(#SVGID_00000155126358212931785110000011145393810506563239_);fill:#0035B8;" d="M299.045,18.527
			c0,1.239-1.004,2.244-2.244,2.244c-1.239,0-2.244-1.004-2.244-2.244s1.005-2.244,2.244-2.244
			C298.041,16.283,299.045,17.287,299.045,18.527z"/>
		<path style="clip-path:url(#SVGID_00000155126358212931785110000011145393810506563239_);fill:#0035B8;" d="M139.132,51.932
			c0,1.239-1.005,2.244-2.244,2.244c-1.239,0-2.244-1.005-2.244-2.244c0-1.239,1.004-2.244,2.244-2.244
			C138.128,49.688,139.132,50.692,139.132,51.932z"/>
		<path style="clip-path:url(#SVGID_00000155126358212931785110000011145393810506563239_);fill:#0035B8;" d="M466.407,116.461
			c0,1.239-1.004,2.244-2.244,2.244c-1.239,0-2.244-1.005-2.244-2.244c0-1.239,1.004-2.244,2.244-2.244
			C465.403,114.217,466.407,115.221,466.407,116.461z"/>
		<path style="clip-path:url(#SVGID_00000155126358212931785110000011145393810506563239_);fill:#0035B8;" d="M75.024,107.037
			c0,1.239-1.005,2.244-2.244,2.244c-1.239,0-2.244-1.005-2.244-2.244c0-1.239,1.005-2.244,2.244-2.244
			C74.019,104.793,75.024,105.798,75.024,107.037z"/>
		
			<circle style="clip-path:url(#SVGID_00000155126358212931785110000011145393810506563239_);fill:#0035B8;" cx="406.345" cy="239.559" r="1.227"/>
		<path style="clip-path:url(#SVGID_00000155126358212931785110000011145393810506563239_);fill:#0035B8;" d="M44.744,181.511
			c0,0.678-0.549,1.227-1.227,1.227c-0.678,0-1.227-0.549-1.227-1.227c0-0.678,0.549-1.227,1.227-1.227
			C44.195,180.283,44.744,180.833,44.744,181.511z"/>
		
			<circle style="clip-path:url(#SVGID_00000155126358212931785110000011145393810506563239_);fill:#0035B8;" cx="460.693" cy="37.942" r="1.227"/>
		<path style="clip-path:url(#SVGID_00000155126358212931785110000011145393810506563239_);fill:#0035B8;" d="M404.464,145.044
			c0,0.678-0.549,1.227-1.227,1.227c-0.678,0-1.227-0.549-1.227-1.227c0-0.678,0.549-1.227,1.227-1.227
			C403.914,143.817,404.464,144.366,404.464,145.044z"/>
		
			<circle style="clip-path:url(#SVGID_00000155126358212931785110000011145393810506563239_);fill:#0035B8;" cx="39.174" cy="24.76" r="1.227"/>
		<path style="clip-path:url(#SVGID_00000155126358212931785110000011145393810506563239_);fill:#FFFFFF;" d="M477.658,247.547
			c0,0.515-0.418,0.933-0.933,0.933c-0.515,0-0.933-0.417-0.933-0.933c0-0.515,0.417-0.933,0.933-0.933
			C477.24,246.615,477.658,247.032,477.658,247.547z"/>
		<path style="clip-path:url(#SVGID_00000155126358212931785110000011145393810506563239_);fill:#FFFFFF;" d="M412.277,110.69
			c0,0.573-0.464,1.037-1.037,1.037c-0.573,0-1.037-0.464-1.037-1.037c0-0.573,0.464-1.037,1.037-1.037
			C411.813,109.653,412.277,110.118,412.277,110.69z"/>
		<path style="clip-path:url(#SVGID_00000155126358212931785110000011145393810506563239_);fill:#FFFFFF;" d="M226.927,56.284
			c0,0.515-0.418,0.933-0.933,0.933c-0.515,0-0.933-0.418-0.933-0.933c0-0.515,0.418-0.933,0.933-0.933
			C226.51,55.352,226.927,55.769,226.927,56.284z"/>
		<path style="clip-path:url(#SVGID_00000155126358212931785110000011145393810506563239_);fill:#FFFFFF;" d="M301.934,52.864
			c0,0.515-0.418,0.933-0.933,0.933c-0.515,0-0.933-0.418-0.933-0.933s0.418-0.933,0.933-0.933
			C301.517,51.932,301.934,52.349,301.934,52.864z"/>
		<path style="clip-path:url(#SVGID_00000155126358212931785110000011145393810506563239_);fill:#FFFFFF;" d="M31.255,106.104
			c0,0.515-0.417,0.933-0.933,0.933c-0.515,0-0.933-0.418-0.933-0.933c0-0.515,0.417-0.933,0.933-0.933
			C30.838,105.172,31.255,105.589,31.255,106.104z"/>
		<path style="clip-path:url(#SVGID_00000155126358212931785110000011145393810506563239_);fill:#FFFFFF;" d="M25.465,210.889
			c0,0.515-0.418,0.933-0.933,0.933c-0.515,0-0.933-0.417-0.933-0.933c0-0.515,0.418-0.933,0.933-0.933
			C25.047,209.957,25.465,210.374,25.465,210.889z"/>
		<polygon style="clip-path:url(#SVGID_00000155126358212931785110000011145393810506563239_);fill:#FFFFFF;" points="
			85.878,167.459 86.281,170.061 88.883,170.464 86.281,170.867 85.878,173.469 85.475,170.867 82.873,170.464 85.475,170.061 		"/>
		<polygon style="clip-path:url(#SVGID_00000155126358212931785110000011145393810506563239_);fill:#FFFFFF;" points="
			357.019,41.28 357.467,44.172 360.358,44.619 357.467,45.067 357.019,47.958 356.572,45.067 353.68,44.619 356.572,44.172 		"/>
		<polygon style="clip-path:url(#SVGID_00000155126358212931785110000011145393810506563239_);fill:#FFFFFF;" points="
			470.562,173.205 471.077,176.533 474.405,177.048 471.077,177.563 470.562,180.891 470.047,177.563 466.719,177.048 
			470.047,176.533 		"/>
		<polygon style="clip-path:url(#SVGID_00000155126358212931785110000011145393810506563239_);fill:#FFFFFF;" points="
			39.174,245.801 39.533,248.121 41.853,248.48 39.533,248.839 39.174,251.159 38.815,248.839 36.495,248.48 38.815,248.121 		"/>
		<polygon style="clip-path:url(#SVGID_00000155126358212931785110000011145393810506563239_);fill:#FFFFFF;" points="
			432.198,116.025 432.557,118.345 434.876,118.704 432.557,119.064 432.198,121.383 431.838,119.064 429.518,118.704 
			431.838,118.345 		"/>
		<polygon style="clip-path:url(#SVGID_00000155126358212931785110000011145393810506563239_);fill:#FFFFFF;" points="
			102.193,24.76 103.029,30.157 108.426,30.993 103.029,31.828 102.193,37.225 101.358,31.828 95.96,30.993 101.358,30.157 		"/>
		<path style="clip-path:url(#SVGID_00000155126358212931785110000011145393810506563239_);fill:#2653C7;" d="M415.478,167.331
			c-3.159,0-6.022,1.097-8.115,2.875c-2.458-4.759-7.42-8.014-13.146-8.014c-4.908,0-9.256,2.393-11.946,6.073
			c-2.399-5.766-8.085-9.821-14.72-9.821c-1.369,0-2.698,0.173-3.966,0.498c-2.585-7.981-10.074-13.753-18.916-13.753
			c-9.804,0-17.945,7.098-19.579,16.433c-2.515-1.418-5.417-2.231-8.51-2.231c-9.587,0-17.358,7.772-17.358,17.358
			c0,0.532,0.028,1.058,0.075,1.578h30.556h4.011h18.242h7.38h20.004h3.506h20.923h5.025h18.091c0.031-0.302,0.05-0.607,0.05-0.916
			C427.086,171.844,421.889,167.331,415.478,167.331z"/>
		<path style="clip-path:url(#SVGID_00000155126358212931785110000011145393810506563239_);fill:#001C5C;" d="M-39.909,74.046
			c4.336,0,8.264,1.506,11.137,3.946c3.374-6.531,10.184-10.998,18.041-10.998c6.736,0,12.703,3.284,16.395,8.335
			C8.956,67.415,16.76,61.85,25.865,61.85c1.879,0,3.702,0.237,5.442,0.683c3.547-10.952,13.826-18.875,25.96-18.875
			c13.455,0,24.627,9.74,26.87,22.553c3.452-1.946,7.434-3.062,11.679-3.062c13.157,0,23.823,10.666,23.823,23.823
			c0,0.73-0.038,1.452-0.102,2.166H77.602h-5.505H47.062H36.934H9.48H4.668h-28.715h-6.897h-24.829
			c-0.043-0.415-0.068-0.834-0.068-1.258C-55.84,80.24-48.708,74.046-39.909,74.046z"/>
		<path style="clip-path:url(#SVGID_00000155126358212931785110000011145393810506563239_);fill:#2653C7;" d="M113.208,235.773
			c3.078,0,5.835,1.23,7.73,3.176c1.721-3.442,5.278-5.805,9.387-5.805c2.681,0,5.122,1.01,6.976,2.664
			c0.733-8.522,7.879-15.212,16.591-15.212c9.2,0,16.658,7.458,16.658,16.658c0,1.918-0.328,3.758-0.924,5.472h-28.848h-2.619
			h-14.97h-3.316h-16.646C104.422,238.72,108.436,235.773,113.208,235.773z"/>
		<path style="clip-path:url(#SVGID_00000155126358212931785110000011145393810506563239_);fill:#002B94;" d="M410.202,176.441
			c-2.477,0-4.697,0.99-6.221,2.556c-1.386-2.77-4.248-4.673-7.556-4.673c-2.158,0-4.122,0.813-5.615,2.145
			c-0.59-6.86-6.342-12.244-13.354-12.244c-7.405,0-13.408,6.003-13.408,13.408c0,1.544,0.264,3.025,0.744,4.404h23.22h2.108h12.049
			h2.669h13.398C417.274,178.813,414.042,176.441,410.202,176.441z"/>
		<g style="clip-path:url(#SVGID_00000155126358212931785110000011145393810506563239_);">
			<path style="fill:#002B94;" d="M361.69,88.136c-0.011-0.218-0.03-0.434-0.03-0.655c0-6.456,4.776-11.69,10.667-11.69
				c2.994,0,5.697,1.356,7.634,3.534c2.034-3.577,5.645-5.966,9.774-5.966c2.399,0,4.626,0.805,6.471,2.181
				c2.036-5.134,6.699-8.727,12.132-8.727c2.422,0,4.684,0.725,6.636,1.97c3.852-5.516,9.918-9.077,16.746-9.077
				c8.096,0,15.122,5.005,18.653,12.344c1.791-1.407,3.979-2.244,6.35-2.244c3.565,0,6.721,1.88,8.715,4.775
				c1.117-0.308,2.285-0.473,3.488-0.473c7.381,0,13.451,6.149,14.178,14.028H361.69z"/>
			<path style="fill:#002B94;" d="M324.755,87.713c1.07-2.691,3.516-4.574,6.365-4.574c1.643,0,3.15,0.629,4.339,1.674
				c1.667-3.498,5.003-5.889,8.853-5.889c4.842,0,8.877,3.777,9.792,8.788H324.755z"/>
		</g>
		<path style="clip-path:url(#SVGID_00000155126358212931785110000011145393810506563239_);fill:#2653C7;" d="M247.366,267.201
			c0.105-0.48,0.162-0.975,0.162-1.482c0-4.318-3.98-7.818-8.891-7.818c-2.648,0-5.023,1.019-6.652,2.633
			c-1.121-6.26-6.59-11.013-13.173-11.013c-5.388,0-10.03,3.185-12.153,7.773c-1.704-1.529-3.942-2.459-6.395-2.459
			c-5.336,0-9.661,4.392-9.661,9.81c0,0.884,0.117,1.74,0.333,2.555H247.366z"/>
		<path style="clip-path:url(#SVGID_00000155126358212931785110000011145393810506563239_);fill:#2653C7;" d="M406.89,86.401
			c2.444,0,4.635,0.977,6.139,2.523c1.367-2.733,4.192-4.611,7.456-4.611c2.129,0,4.068,0.802,5.541,2.116
			c0.582-6.769,6.258-12.083,13.178-12.083c7.307,0,13.231,5.924,13.231,13.231c0,1.523-0.261,2.984-0.734,4.346h-22.914h-2.08
			h-11.891h-2.634h-13.221C399.912,88.742,403.1,86.401,406.89,86.401z"/>
	</g>
</g>
</svg>