<svg width="470" height="470" viewBox="0 0 470 470" fill="none" xmlns="http://www.w3.org/2000/svg">
<g clip-path="url(#clip0_10_1576)">
<rect width="470" height="470" fill="white"/>
<mask id="mask0_10_1576" style="mask-type:luminance" maskUnits="userSpaceOnUse" x="0" y="0" width="470" height="470">
<path d="M470 0H0V470H470V0Z" fill="white"/>
</mask>
<g mask="url(#mask0_10_1576)">
<path d="M470 0H0V470H470V0Z" fill="#001445"/>
</g>
<mask id="mask1_10_1576" style="mask-type:luminance" maskUnits="userSpaceOnUse" x="0" y="0" width="470" height="470">
<path d="M470 0H0V470H470V0Z" fill="white"/>
</mask>
<g mask="url(#mask1_10_1576)">
<path d="M268.307 209.897C328.833 209.897 377.899 160.831 377.899 100.305C377.899 39.7786 328.833 -9.28752 268.307 -9.28752C207.781 -9.28752 158.715 39.7786 158.715 100.305C158.715 160.831 207.781 209.897 268.307 209.897Z" fill="#00174F"/>
<path d="M268.307 196.355C321.354 196.355 364.357 153.352 364.357 100.305C364.357 47.2574 321.354 4.25415 268.307 4.25415C215.26 4.25415 172.256 47.2574 172.256 100.305C172.256 153.352 215.26 196.355 268.307 196.355Z" fill="#001C5E"/>
<path d="M326.957 158.957C359.35 126.565 359.35 74.0454 326.957 41.6525C294.565 9.25962 242.045 9.25962 209.652 41.6525C177.26 74.0454 177.26 126.565 209.652 158.957C242.045 191.35 294.565 191.35 326.957 158.957Z" fill="#00237D"/>
<path d="M268.307 169.08C306.29 169.08 337.082 138.288 337.082 100.305C337.082 62.321 306.29 31.5293 268.307 31.5293C230.323 31.5293 199.532 62.321 199.532 100.305C199.532 138.288 230.323 169.08 268.307 169.08Z" fill="#FFED9E"/>
<path opacity="0.1" d="M307.138 43.5367C309.761 67.6156 300.393 95.6 279.783 118.224C263.122 136.511 242.292 147.807 222.128 151.27C234.334 162.337 250.533 169.08 268.308 169.08C306.292 169.08 337.083 138.288 337.083 100.305C337.082 76.729 325.218 55.9284 307.138 43.5367Z" fill="#857A4A"/>
<path d="M272.503 142.094C272.696 141.737 272.877 141.372 273.051 141.003C273.098 140.903 273.142 140.801 273.188 140.7C273.313 140.425 273.432 140.146 273.545 139.864C273.593 139.745 273.64 139.627 273.686 139.507C273.796 139.221 273.899 138.932 273.997 138.64C274.032 138.536 274.069 138.432 274.103 138.328C274.23 137.93 274.348 137.528 274.453 137.121C274.453 137.117 274.454 137.113 274.455 137.11C274.557 136.713 274.644 136.311 274.724 135.906C274.749 135.781 274.769 135.656 274.792 135.531C274.843 135.239 274.891 134.947 274.931 134.652C274.951 134.508 274.969 134.363 274.986 134.217C275.02 133.922 275.048 133.625 275.07 133.327C275.08 133.195 275.093 133.063 275.101 132.93C275.126 132.503 275.142 132.074 275.142 131.64C275.142 124.425 271.669 118.021 266.304 114.009C264.892 112.953 263.349 112.063 261.704 111.367C260.717 110.95 259.693 110.602 258.639 110.331C256.881 109.878 255.038 109.638 253.14 109.638C252.757 109.638 252.376 109.648 251.998 109.668C251.888 109.673 251.779 109.686 251.669 109.693C251.402 109.711 251.134 109.727 250.869 109.755C250.754 109.766 250.641 109.784 250.528 109.798C250.27 109.829 250.01 109.859 249.755 109.899C249.65 109.915 249.546 109.937 249.441 109.954C249.179 109.999 248.917 110.043 248.658 110.097C248.565 110.116 248.474 110.14 248.381 110.16C248.112 110.22 247.843 110.28 247.578 110.349C247.5 110.369 247.423 110.393 247.346 110.414C247.068 110.49 246.792 110.568 246.518 110.654C246.453 110.674 246.389 110.699 246.324 110.72C246.04 110.812 245.758 110.908 245.479 111.011C245.429 111.03 245.38 111.05 245.33 111.07C245.038 111.181 244.748 111.295 244.463 111.418C244.426 111.434 244.391 111.452 244.354 111.467C244.057 111.597 243.762 111.732 243.472 111.874C243.447 111.885 243.424 111.899 243.4 111.91C243.098 112.059 242.801 112.214 242.507 112.376C242.493 112.384 242.48 112.392 242.466 112.4C242.163 112.568 241.865 112.743 241.571 112.924C241.566 112.927 241.56 112.931 241.555 112.934C240.031 113.88 238.633 115.006 237.389 116.283L237.388 116.284C233.522 120.249 231.136 125.664 231.136 131.639C231.136 143.791 240.987 153.642 253.139 153.642C261.506 153.643 268.782 148.971 272.503 142.094Z" fill="#FFED9E"/>
<path d="M271.657 136.06C274.097 125.837 267.788 115.572 257.566 113.132C247.344 110.692 237.079 117.001 234.639 127.223C232.199 137.445 238.507 147.71 248.729 150.15C258.952 152.59 269.217 146.282 271.657 136.06Z" fill="#FFED9E"/>
<path d="M271.657 136.06C274.097 125.837 267.788 115.572 257.566 113.132C247.344 110.692 237.079 117.001 234.639 127.223C232.199 137.445 238.507 147.71 248.729 150.15C258.952 152.59 269.217 146.282 271.657 136.06Z" fill="#E3D283"/>
<path opacity="0.6" d="M251.318 114.433C262.192 114.433 271.008 123.248 271.008 134.123C271.008 136.423 270.61 138.629 269.885 140.681C271.34 137.992 272.167 134.913 272.167 131.641C272.167 121.132 263.648 112.613 253.139 112.613C247.797 112.613 242.972 114.816 239.516 118.361C242.805 115.894 246.89 114.433 251.318 114.433Z" fill="#A89850"/>
<path d="M281.39 76.3188C288.762 76.3188 294.737 70.3429 294.737 62.9713C294.737 55.5996 288.762 49.6237 281.39 49.6237C274.018 49.6237 268.042 55.5996 268.042 62.9713C268.042 70.3429 274.018 76.3188 281.39 76.3188Z" fill="#FFED9E"/>
<path d="M281.39 76.3188C288.762 76.3188 294.737 70.3429 294.737 62.9713C294.737 55.5996 288.762 49.6237 281.39 49.6237C274.018 49.6237 268.042 55.5996 268.042 62.9713C268.042 70.3429 274.018 76.3188 281.39 76.3188Z" fill="#E3D283"/>
<path opacity="0.6" d="M280.112 50.9005C287.741 50.9005 293.924 57.0846 293.924 64.7122C293.924 66.3256 293.645 67.8732 293.137 69.3127C294.157 67.4262 294.737 65.2664 294.737 62.9713C294.737 55.5996 288.761 49.6237 281.389 49.6237C277.643 49.6237 274.258 51.1698 271.834 53.6559C274.141 51.9259 277.007 50.9005 280.112 50.9005Z" fill="#A89850"/>
<path d="M229.161 105.888C233.045 105.888 236.193 102.739 236.193 98.8549C236.193 94.9708 233.045 91.8222 229.161 91.8222C225.277 91.8222 222.128 94.9708 222.128 98.8549C222.128 102.739 225.277 105.888 229.161 105.888Z" fill="#FFED9E"/>
<path d="M229.161 105.888C233.045 105.888 236.193 102.739 236.193 98.8549C236.193 94.9708 233.045 91.8222 229.161 91.8222C225.277 91.8222 222.128 94.9708 222.128 98.8549C222.128 102.739 225.277 105.888 229.161 105.888Z" fill="#E3D283"/>
<path opacity="0.6" d="M228.487 92.4946C232.506 92.4946 235.765 95.7526 235.765 99.7723C235.765 100.622 235.618 101.438 235.35 102.196C235.888 101.202 236.193 100.064 236.193 98.8549C236.193 94.9706 233.045 91.8222 229.161 91.8222C227.186 91.8222 225.403 92.6363 224.126 93.9467C225.341 93.0347 226.851 92.4946 228.487 92.4946Z" fill="#A89850"/>
<path d="M318.027 79.1502C318.107 79.003 318.181 78.8527 318.253 78.7009C318.272 78.6594 318.29 78.6171 318.309 78.5756C318.361 78.4621 318.41 78.347 318.457 78.2312C318.477 78.1827 318.496 78.1333 318.515 78.084C318.56 77.9658 318.603 77.8468 318.643 77.7263C318.657 77.6832 318.672 77.641 318.686 77.5971C318.739 77.4327 318.787 77.2676 318.83 77.1C318.83 77.0985 318.831 77.0961 318.831 77.0961C318.873 76.9325 318.91 76.7666 318.942 76.5998C318.953 76.5489 318.961 76.4973 318.97 76.4456C318.991 76.3259 319.01 76.2053 319.027 76.0832C319.035 76.0237 319.043 75.9642 319.05 75.9039C319.064 75.7826 319.075 75.6597 319.084 75.5368C319.088 75.482 319.093 75.428 319.097 75.3732C319.107 75.1971 319.113 75.0201 319.113 74.8417C319.113 71.8678 317.682 69.229 315.471 67.5749C314.889 67.1397 314.253 66.7725 313.575 66.486C313.168 66.3138 312.746 66.1706 312.311 66.0586C311.587 65.8723 310.828 65.7729 310.045 65.7729C309.887 65.7729 309.73 65.7768 309.575 65.7847C309.529 65.787 309.485 65.7917 309.439 65.7948C309.329 65.8019 309.218 65.8089 309.11 65.8207C309.063 65.8254 309.016 65.8332 308.969 65.8387C308.862 65.8512 308.756 65.8637 308.65 65.8802C308.606 65.8872 308.564 65.8958 308.521 65.9029C308.413 65.9209 308.305 65.9397 308.198 65.9616C308.159 65.9694 308.122 65.9796 308.084 65.9882C307.973 66.0124 307.863 66.0375 307.753 66.0657C307.721 66.0743 307.69 66.0837 307.658 66.0931C307.543 66.1244 307.429 66.1565 307.316 66.1917C307.29 66.2003 307.263 66.2097 307.236 66.2191C307.12 66.2575 307.003 66.2966 306.888 66.3389C306.868 66.3467 306.847 66.3553 306.827 66.3631C306.706 66.4085 306.587 66.4563 306.469 66.5072C306.454 66.5134 306.439 66.5213 306.425 66.5275C306.302 66.5808 306.18 66.6363 306.061 66.6951C306.05 66.6997 306.041 66.7052 306.031 66.7099C305.906 66.771 305.784 66.8352 305.663 66.9017C305.657 66.9048 305.652 66.908 305.646 66.9111C305.521 66.9808 305.398 67.0528 305.277 67.1272C305.275 67.1287 305.272 67.1303 305.27 67.1311C304.642 67.5209 304.066 67.9851 303.553 68.5111C301.96 70.1449 300.976 72.3766 300.976 74.8393C300.976 79.8477 305.036 83.9073 310.044 83.9073C313.496 83.9096 316.494 81.9847 318.027 79.1502Z" fill="#FFED9E"/>
<path d="M315.017 79.8156C317.763 77.0692 317.763 72.6164 315.017 69.87C312.271 67.1236 307.818 67.1236 305.071 69.87C302.325 72.6164 302.325 77.0692 305.071 79.8156C307.818 82.562 312.271 82.562 315.017 79.8156Z" fill="#FFED9E"/>
<path d="M315.017 79.8156C317.763 77.0692 317.763 72.6164 315.017 69.87C312.271 67.1236 307.818 67.1236 305.071 69.87C302.325 72.6164 302.325 77.0692 305.071 79.8156C307.818 82.562 312.271 82.562 315.017 79.8156Z" fill="#E3D283"/>
<path opacity="0.6" d="M309.374 68.4822C313.393 68.4822 316.652 71.7402 316.652 75.7599C316.652 76.61 316.505 77.4257 316.237 78.1834C316.775 77.1893 317.08 76.0519 317.08 74.8424C317.08 70.9582 313.932 67.8098 310.047 67.8098C308.073 67.8098 306.29 68.6247 305.012 69.9343C306.227 69.0223 307.737 68.4822 309.374 68.4822Z" fill="#A89850"/>
<path d="M296.906 105.444C297.011 105.25 297.109 105.053 297.202 104.853C297.228 104.798 297.252 104.743 297.277 104.688C297.344 104.539 297.409 104.388 297.471 104.235C297.497 104.171 297.523 104.107 297.547 104.042C297.606 103.887 297.662 103.73 297.715 103.571C297.734 103.515 297.754 103.459 297.772 103.402C297.841 103.187 297.905 102.968 297.962 102.748C297.963 102.746 297.963 102.744 297.963 102.742C298.018 102.527 298.066 102.309 298.109 102.089C298.122 102.022 298.133 101.954 298.145 101.887C298.173 101.729 298.199 101.57 298.221 101.41C298.232 101.332 298.241 101.253 298.251 101.174C298.269 101.015 298.284 100.853 298.297 100.692C298.302 100.62 298.309 100.549 298.313 100.477C298.327 100.245 298.335 100.013 298.335 99.7778C298.335 95.8677 296.453 92.3975 293.546 90.2229C292.781 89.6507 291.944 89.1685 291.054 88.7912C290.519 88.5649 289.964 88.3763 289.392 88.2299C288.44 87.9849 287.442 87.8541 286.412 87.8541C286.205 87.8541 285.998 87.8596 285.793 87.8698C285.734 87.8729 285.674 87.8792 285.615 87.8831C285.47 87.8925 285.325 87.9019 285.181 87.9168C285.119 87.923 285.058 87.9332 284.995 87.9403C284.855 87.9567 284.715 87.9731 284.577 87.9943C284.52 88.0029 284.463 88.0146 284.407 88.0248C284.264 88.0491 284.123 88.0726 283.982 88.1023C283.932 88.1125 283.882 88.1258 283.832 88.1367C283.687 88.1688 283.54 88.2017 283.396 88.2393C283.354 88.2502 283.312 88.2636 283.271 88.2745C283.121 88.3152 282.97 88.3575 282.822 88.4045C282.787 88.4154 282.753 88.4287 282.717 88.4405C282.563 88.4906 282.411 88.5422 282.26 88.5986C282.233 88.6088 282.206 88.6197 282.179 88.6299C282.021 88.6902 281.863 88.752 281.709 88.8186C281.69 88.8272 281.67 88.8366 281.651 88.8452C281.489 88.9156 281.33 88.9884 281.172 89.0651C281.159 89.0714 281.146 89.0784 281.133 89.0855C280.97 89.1661 280.808 89.2499 280.649 89.3383C280.641 89.3423 280.634 89.347 280.627 89.3509C280.463 89.4425 280.302 89.5364 280.143 89.635C280.14 89.6366 280.137 89.6389 280.134 89.6405C279.308 90.1525 278.551 90.763 277.877 91.455C275.782 93.6038 274.489 96.5385 274.489 99.777C274.489 106.362 279.827 111.701 286.412 111.701C290.947 111.702 294.89 109.17 296.906 105.444Z" fill="#FFED9E"/>
<path d="M286.89 109.153C292.218 109.153 296.537 104.834 296.537 99.5061C296.537 94.1781 292.218 89.8589 286.89 89.8589C281.562 89.8589 277.243 94.1781 277.243 99.5061C277.243 104.834 281.562 109.153 286.89 109.153Z" fill="#FFED9E"/>
<path d="M286.89 109.153C292.218 109.153 296.537 104.834 296.537 99.5061C296.537 94.1781 292.218 89.8589 286.89 89.8589C281.562 89.8589 277.243 94.1781 277.243 99.5061C277.243 104.834 281.562 109.153 286.89 109.153Z" fill="#E3D283"/>
<path opacity="0.6" d="M285.967 90.7818C291.48 90.7818 295.95 95.2516 295.95 100.765C295.95 101.931 295.748 103.05 295.381 104.089C296.118 102.726 296.538 101.165 296.538 99.5061C296.538 94.1776 292.218 89.8589 286.891 89.8589C284.182 89.8589 281.736 90.9767 279.984 92.7733C281.651 91.5231 283.722 90.7818 285.967 90.7818Z" fill="#A89850"/>
<path d="M260.066 86.1649C262.174 86.1649 263.883 84.456 263.883 82.348C263.883 80.2399 262.174 78.531 260.066 78.531C257.958 78.531 256.249 80.2399 256.249 82.348C256.249 84.456 257.958 86.1649 260.066 86.1649Z" fill="#FFED9E"/>
<path d="M260.066 86.1649C262.174 86.1649 263.883 84.456 263.883 82.348C263.883 80.2399 262.174 78.531 260.066 78.531C257.958 78.531 256.249 80.2399 256.249 82.348C256.249 84.456 257.958 86.1649 260.066 86.1649Z" fill="#E3D283"/>
<path opacity="0.6" d="M259.701 78.8958C261.882 78.8958 263.65 80.6641 263.65 82.845C263.65 83.3061 263.57 83.7492 263.425 84.1601C263.717 83.6208 263.882 83.0031 263.882 82.3464C263.882 80.2383 262.174 78.5294 260.066 78.5294C258.994 78.5294 258.026 78.9717 257.334 79.6825C257.993 79.1893 258.812 78.8958 259.701 78.8958Z" fill="#A89850"/>
<path opacity="0.4" d="M300.554 146.977C300.619 146.855 300.681 146.73 300.741 146.604C300.757 146.57 300.772 146.535 300.788 146.501C300.831 146.407 300.871 146.311 300.911 146.215C300.927 146.174 300.943 146.134 300.958 146.093C300.996 145.995 301.031 145.896 301.065 145.796C301.077 145.76 301.089 145.725 301.101 145.69C301.144 145.554 301.185 145.417 301.221 145.277C301.221 145.277 301.221 145.275 301.221 145.273C301.256 145.138 301.286 145 301.314 144.862C301.322 144.819 301.329 144.776 301.336 144.733C301.354 144.634 301.37 144.534 301.384 144.433C301.391 144.383 301.397 144.334 301.403 144.284C301.415 144.183 301.424 144.082 301.432 143.979C301.435 143.934 301.44 143.889 301.442 143.843C301.451 143.698 301.456 143.55 301.456 143.402C301.456 140.936 300.269 138.746 298.435 137.375C297.952 137.014 297.425 136.71 296.862 136.472C296.525 136.329 296.175 136.21 295.814 136.117C295.213 135.962 294.583 135.88 293.934 135.88C293.804 135.88 293.673 135.884 293.544 135.89C293.506 135.892 293.468 135.896 293.431 135.899C293.339 135.905 293.248 135.91 293.158 135.92C293.119 135.924 293.08 135.93 293.041 135.935C292.953 135.945 292.864 135.955 292.777 135.969C292.741 135.974 292.706 135.982 292.67 135.988C292.58 136.003 292.491 136.018 292.402 136.036C292.37 136.043 292.34 136.051 292.308 136.058C292.215 136.079 292.124 136.099 292.033 136.123C292.006 136.13 291.98 136.139 291.954 136.146C291.859 136.172 291.764 136.198 291.671 136.228C291.648 136.235 291.627 136.243 291.605 136.251C291.508 136.282 291.411 136.315 291.316 136.35C291.299 136.357 291.282 136.364 291.265 136.371C291.165 136.408 291.066 136.448 290.968 136.49C290.956 136.495 290.943 136.501 290.931 136.506C290.829 136.551 290.728 136.597 290.629 136.645C290.621 136.649 290.613 136.654 290.605 136.658C290.502 136.709 290.4 136.762 290.3 136.818C290.295 136.82 290.29 136.823 290.286 136.825C290.182 136.883 290.081 136.943 289.98 137.005C289.977 137.005 289.976 137.007 289.974 137.008C289.453 137.331 288.975 137.716 288.55 138.153C287.229 139.509 286.413 141.36 286.413 143.402C286.413 147.557 289.781 150.924 293.935 150.924C296.795 150.924 299.282 149.328 300.554 146.977Z" fill="#FFED9E"/>
<path d="M299.587 143.402C299.587 146.524 297.056 149.056 293.933 149.056C290.812 149.056 288.28 146.525 288.28 143.402C288.28 140.281 290.811 137.749 293.933 137.749C297.056 137.749 299.587 140.281 299.587 143.402Z" fill="#FFED9E"/>
<path d="M299.587 143.402C299.587 146.524 297.056 149.056 293.933 149.056C290.812 149.056 288.28 146.525 288.28 143.402C288.28 140.281 290.811 137.749 293.933 137.749C297.056 137.749 299.587 140.281 299.587 143.402Z" fill="#E3D283"/>
<path opacity="0.6" d="M293.393 138.29C296.624 138.29 299.243 140.909 299.243 144.14C299.243 144.823 299.125 145.478 298.91 146.088C299.342 145.289 299.588 144.375 299.588 143.402C299.588 140.281 297.057 137.749 293.934 137.749C292.347 137.749 290.914 138.404 289.887 139.457C290.864 138.724 292.078 138.29 293.393 138.29Z" fill="#A89850"/>
<path d="M260.418 44.9496C260.418 46.3195 259.308 47.4295 257.938 47.4295C256.568 47.4295 255.458 46.3195 255.458 44.9496C255.458 43.5805 256.568 42.4697 257.938 42.4697C259.308 42.4697 260.418 43.5805 260.418 44.9496Z" fill="#FFED9E"/>
<path d="M260.418 44.9496C260.418 46.3195 259.308 47.4295 257.938 47.4295C256.568 47.4295 255.458 46.3195 255.458 44.9496C255.458 43.5805 256.568 42.4697 257.938 42.4697C259.308 42.4697 260.418 43.5805 260.418 44.9496Z" fill="#E3D283"/>
<path opacity="0.6" d="M257.701 42.7077C259.118 42.7077 260.267 43.8561 260.267 45.2737C260.267 45.5735 260.215 45.8608 260.12 46.1285C260.31 45.7778 260.418 45.377 260.418 44.9504C260.418 43.5813 259.308 42.4705 257.938 42.4705C257.242 42.4705 256.613 42.7578 256.163 43.2196C256.592 42.8979 257.124 42.7077 257.701 42.7077Z" fill="#A89850"/>
<path d="M216.655 122.661C216.655 124.03 215.545 125.141 214.175 125.141C212.806 125.141 211.696 124.031 211.696 122.661C211.696 121.292 212.806 120.181 214.175 120.181C215.545 120.181 216.655 121.291 216.655 122.661Z" fill="#FFED9E"/>
<path d="M216.655 122.661C216.655 124.03 215.545 125.141 214.175 125.141C212.806 125.141 211.696 124.031 211.696 122.661C211.696 121.292 212.806 120.181 214.175 120.181C215.545 120.181 216.655 121.291 216.655 122.661Z" fill="#E3D283"/>
<path opacity="0.6" d="M213.937 120.418C215.354 120.418 216.503 121.566 216.503 122.984C216.503 123.284 216.452 123.571 216.357 123.839C216.547 123.488 216.655 123.087 216.655 122.661C216.655 121.291 215.545 120.181 214.175 120.181C213.479 120.181 212.85 120.468 212.399 120.93C212.828 120.608 213.361 120.418 213.937 120.418Z" fill="#A89850"/>
<path d="M243.241 65.4851C244.169 61.0911 241.358 56.7772 236.964 55.8499C232.57 54.9226 228.256 57.733 227.329 62.127C226.402 66.5211 229.212 70.8349 233.606 71.7622C238 72.6895 242.314 69.8792 243.241 65.4851Z" fill="#FFED9E"/>
<path d="M243.241 65.4851C244.169 61.0911 241.358 56.7772 236.964 55.8499C232.57 54.9226 228.256 57.733 227.329 62.127C226.402 66.5211 229.212 70.8349 233.606 71.7622C238 72.6895 242.314 69.8792 243.241 65.4851Z" fill="#E3D283"/>
<path opacity="0.6" d="M234.498 56.4576C239.144 56.4576 242.911 60.2244 242.911 64.8711C242.911 65.8543 242.741 66.7968 242.431 67.6735C243.053 66.5244 243.406 65.2085 243.406 63.8104C243.406 59.3195 239.766 55.6795 235.275 55.6795C232.992 55.6795 230.931 56.6212 229.454 58.1359C230.86 57.0823 232.606 56.4576 234.498 56.4576Z" fill="#A89850"/>
<path opacity="0.4" d="M322.745 124C322.859 123.789 322.965 123.575 323.068 123.358C323.096 123.299 323.122 123.239 323.148 123.18C323.222 123.018 323.292 122.853 323.359 122.687C323.387 122.618 323.415 122.548 323.442 122.477C323.506 122.309 323.567 122.138 323.625 121.966C323.645 121.904 323.667 121.844 323.688 121.782C323.762 121.548 323.832 121.311 323.894 121.072C323.894 121.07 323.894 121.068 323.895 121.065C323.955 120.831 324.007 120.594 324.053 120.356C324.067 120.283 324.08 120.209 324.092 120.135C324.123 119.964 324.15 119.792 324.175 119.618C324.186 119.533 324.197 119.448 324.208 119.362C324.228 119.188 324.244 119.014 324.258 118.837C324.264 118.759 324.271 118.682 324.276 118.603C324.29 118.352 324.3 118.099 324.3 117.843C324.3 113.594 322.254 109.823 319.095 107.46C318.264 106.839 317.355 106.314 316.387 105.905C315.805 105.659 315.202 105.454 314.581 105.294C313.547 105.028 312.462 104.886 311.343 104.886C311.118 104.886 310.893 104.893 310.671 104.904C310.606 104.907 310.541 104.914 310.477 104.918C310.32 104.929 310.162 104.939 310.006 104.955C309.939 104.962 309.872 104.973 309.805 104.981C309.653 104.999 309.5 105.017 309.35 105.04C309.288 105.049 309.227 105.062 309.165 105.073C309.011 105.098 308.856 105.125 308.703 105.156C308.649 105.167 308.595 105.182 308.541 105.194C308.382 105.229 308.224 105.264 308.067 105.305C308.021 105.317 307.976 105.332 307.931 105.344C307.767 105.388 307.604 105.434 307.444 105.484C307.405 105.496 307.368 105.51 307.33 105.523C307.162 105.578 306.996 105.633 306.832 105.694C306.802 105.705 306.774 105.718 306.744 105.729C306.572 105.794 306.401 105.862 306.234 105.934C306.212 105.943 306.191 105.953 306.169 105.963C305.994 106.039 305.821 106.118 305.65 106.202C305.636 106.209 305.621 106.217 305.607 106.224C305.43 106.312 305.254 106.403 305.082 106.499C305.074 106.504 305.066 106.508 305.058 106.513C304.879 106.612 304.704 106.715 304.531 106.822C304.528 106.825 304.525 106.826 304.522 106.828C303.625 107.385 302.801 108.048 302.068 108.8C299.792 111.135 298.387 114.325 298.387 117.843C298.387 124.999 304.187 130.8 311.344 130.8C316.269 130.801 320.554 128.05 322.745 124Z" fill="#FFED9E"/>
<path d="M311.341 128.207C317.065 128.207 321.704 123.567 321.704 117.844C321.704 112.121 317.065 107.481 311.341 107.481C305.618 107.481 300.979 112.121 300.979 117.844C300.979 123.567 305.618 128.207 311.341 128.207Z" fill="#FFED9E"/>
<path d="M311.341 128.207C317.065 128.207 321.704 123.567 321.704 117.844C321.704 112.121 317.065 107.481 311.341 107.481C305.618 107.481 300.979 112.121 300.979 117.844C300.979 123.567 305.618 128.207 311.341 128.207Z" fill="#E3D283"/>
<path opacity="0.6" d="M310.35 108.473C316.273 108.473 321.074 113.274 321.074 119.197C321.074 120.449 320.857 121.651 320.463 122.768C321.255 121.303 321.705 119.626 321.705 117.844C321.705 112.121 317.065 107.481 311.342 107.481C308.433 107.481 305.806 108.681 303.924 110.612C305.715 109.269 307.939 108.473 310.35 108.473Z" fill="#A89850"/>
<path d="M225.108 75.8992C225.108 76.7219 224.441 77.3897 223.618 77.3897C222.795 77.3897 222.127 76.7227 222.127 75.8992C222.127 75.0757 222.794 74.4088 223.618 74.4088C224.44 74.4096 225.108 75.0765 225.108 75.8992Z" fill="#EDDD93"/>
<path opacity="0.8" d="M243.79 47.4295C243.79 47.8984 243.411 48.2781 242.942 48.2781C242.473 48.2781 242.093 47.8977 242.093 47.4295C242.093 46.9606 242.473 46.581 242.942 46.581C243.411 46.581 243.79 46.9606 243.79 47.4295Z" fill="#EDDD93"/>
<path opacity="0.8" d="M266.022 104.888C266.022 105.357 265.641 105.736 265.173 105.736C264.704 105.736 264.325 105.356 264.325 104.888C264.325 104.419 264.704 104.039 265.173 104.039C265.642 104.039 266.022 104.419 266.022 104.888Z" fill="#EDDD93"/>
<path opacity="0.8" d="M296.435 78.6508C296.435 79.1197 296.055 79.4993 295.586 79.4993C295.117 79.4993 294.737 79.1189 294.737 78.6508C294.737 78.1826 295.117 77.8022 295.586 77.8022C296.055 77.8022 296.435 78.1819 296.435 78.6508Z" fill="#EDDD93"/>
<path d="M225.693 115.125C225.693 115.448 225.431 115.71 225.107 115.71C224.784 115.71 224.522 115.448 224.522 115.125C224.522 114.801 224.784 114.539 225.107 114.539C225.431 114.539 225.693 114.801 225.693 115.125Z" fill="#E6D27A"/>
<path d="M279.983 84.7691C279.983 85.0924 279.721 85.3547 279.398 85.3547C279.074 85.3547 278.812 85.0924 278.812 84.7691C278.812 84.4458 279.074 84.1836 279.398 84.1836C279.721 84.1836 279.983 84.4458 279.983 84.7691Z" fill="#E6D27A"/>
<path d="M269.953 48.0151C269.953 48.3384 269.691 48.6006 269.368 48.6006C269.044 48.6006 268.782 48.3384 268.782 48.0151C268.782 47.6918 269.044 47.4295 269.368 47.4295C269.691 47.4295 269.953 47.6918 269.953 48.0151Z" fill="#E6D27A"/>
<path d="M243.372 84.3394C243.372 84.5766 243.179 84.7691 242.942 84.7691C242.705 84.7691 242.512 84.5766 242.512 84.3394C242.512 84.1022 242.705 83.9096 242.942 83.9096C243.179 83.9096 243.372 84.1022 243.372 84.3394Z" fill="#E6D27A"/>
<path d="M224.047 138.964C224.047 139.201 223.855 139.394 223.618 139.394C223.38 139.394 223.188 139.201 223.188 138.964C223.188 138.727 223.38 138.534 223.618 138.534C223.855 138.534 224.047 138.727 224.047 138.964Z" fill="#E6D27A"/>
<path d="M253.801 65.9764C253.801 66.2136 253.608 66.4062 253.371 66.4062C253.134 66.4062 252.941 66.2136 252.941 65.9764C252.941 65.7393 253.134 65.5467 253.371 65.5467C253.609 65.5467 253.801 65.7393 253.801 65.9764Z" fill="#E6D27A"/>
<path d="M281.573 130.247C281.573 130.553 281.325 130.801 281.019 130.801C280.713 130.801 280.465 130.553 280.465 130.247C280.465 129.941 280.713 129.693 281.019 129.693C281.325 129.693 281.573 129.941 281.573 130.247Z" fill="#C4B67A"/>
<path d="M314.023 136.933C314.023 137.289 313.734 137.577 313.379 137.577C313.024 137.577 312.735 137.288 312.735 136.933C312.735 136.576 313.024 136.288 313.379 136.288C313.734 136.288 314.023 136.577 314.023 136.933Z" fill="#C4B67A"/>
<path d="M293.276 157.83C293.276 158.276 292.915 158.636 292.47 158.636C292.026 158.636 291.665 158.275 291.665 157.83C291.665 157.385 292.026 157.025 292.47 157.025C292.915 157.025 293.276 157.386 293.276 157.83Z" fill="#DECB76"/>
<path d="M311.611 94.2027C311.611 94.4994 311.371 94.7397 311.074 94.7397C310.778 94.7397 310.537 94.4994 310.537 94.2027C310.537 93.906 310.778 93.6657 311.074 93.6657C311.371 93.6657 311.611 93.906 311.611 94.2027Z" fill="#DECB76"/>
<path d="M243.523 158.122C243.523 158.443 243.264 158.703 242.942 158.703C242.621 158.703 242.36 158.443 242.36 158.122C242.36 157.801 242.621 157.541 242.942 157.541C243.263 157.541 243.523 157.801 243.523 158.122Z" fill="#DECB76"/>
<path d="M324.738 103.434C325.072 103.434 325.343 103.163 325.343 102.829C325.343 102.495 325.072 102.224 324.738 102.224C324.404 102.224 324.133 102.495 324.133 102.829C324.133 103.163 324.404 103.434 324.738 103.434Z" fill="#DECB76"/>
<path opacity="0.8" d="M286.412 41.0591C286.412 41.9499 285.691 42.6717 284.8 42.6717C283.909 42.6717 283.187 41.9499 283.187 41.0591C283.187 40.1683 283.909 39.4465 284.8 39.4465C285.691 39.4465 286.412 40.1683 286.412 41.0591Z" fill="#EDDD93"/>
<path opacity="0.8" d="M245.844 109.187C247.189 109.187 248.281 108.096 248.281 106.75C248.281 105.404 247.189 104.313 245.844 104.313C244.498 104.313 243.407 105.404 243.407 106.75C243.407 108.096 244.498 109.187 245.844 109.187Z" fill="#EDDD93"/>
<path d="M275.931 155.348C277.277 155.348 278.368 154.257 278.368 152.911C278.368 151.565 277.277 150.474 275.931 150.474C274.586 150.474 273.495 151.565 273.495 152.911C273.495 154.257 274.586 155.348 275.931 155.348Z" fill="#D4C583"/>
<path d="M317.707 60.9242C317.707 61.8174 316.983 62.5415 316.09 62.5415C315.197 62.5415 314.473 61.8174 314.473 60.9242C314.473 60.0311 315.197 59.3078 316.09 59.3078C316.984 59.3078 317.707 60.0318 317.707 60.9242Z" fill="#D4C583"/>
<path d="M294.483 125.14C294.483 125.807 293.943 126.347 293.276 126.347C292.61 126.347 292.069 125.807 292.069 125.14C292.069 124.474 292.609 123.933 293.276 123.933C293.943 123.933 294.483 124.474 294.483 125.14Z" fill="#D4C583"/>
<path d="M260.771 161.018C260.771 161.559 260.333 161.998 259.791 161.998C259.25 161.998 258.811 161.559 258.811 161.018C258.811 160.477 259.25 160.038 259.791 160.038C260.332 160.038 260.771 160.476 260.771 161.018Z" fill="#D4C583"/>
<path d="M327.757 91.2946C327.757 91.9607 327.217 92.5016 326.55 92.5016C325.883 92.5016 325.343 91.9615 325.343 91.2946C325.343 90.6276 325.883 90.0875 326.55 90.0875C327.217 90.0875 327.757 90.6276 327.757 91.2946Z" fill="#D4C583"/>
<path opacity="0.8" d="M214.38 88.2119C214.38 90.3505 212.646 92.0844 210.507 92.0844C208.369 92.0844 206.635 90.3505 206.635 88.2119C206.635 86.0733 208.369 84.3394 210.507 84.3394C212.646 84.3394 214.38 86.0733 214.38 88.2119Z" fill="#EDDD93"/>
<path opacity="0.4" d="M268.307 169.08C306.29 169.08 337.082 138.288 337.082 100.305C337.082 62.321 306.29 31.5293 268.307 31.5293C230.323 31.5293 199.532 62.321 199.532 100.305C199.532 138.288 230.323 169.08 268.307 169.08Z" fill="#FFFBED"/>
</g>
<mask id="mask2_10_1576" style="mask-type:luminance" maskUnits="userSpaceOnUse" x="0" y="0" width="470" height="470">
<path d="M470 0H0V470H470V0Z" fill="white"/>
</mask>
<g mask="url(#mask2_10_1576)">
<path d="M339.302 279.109C339.054 277.632 338.92 276.117 338.92 274.57C338.92 259.083 351.87 246.528 367.845 246.528C373.276 246.528 378.356 247.982 382.698 250.506C389.212 242.882 398.875 238.079 409.639 238.158C423.952 238.263 436.208 246.962 441.646 259.363C444.753 256.277 448.929 254.384 453.524 254.384C457.681 254.384 461.497 255.933 464.488 258.513C468.077 253.945 473.484 251.035 479.532 251.035C490.338 251.035 499.098 260.318 499.098 271.769C499.098 274.354 498.647 276.827 497.831 279.109H339.302Z" fill="#001C5C"/>
</g>
<mask id="mask3_10_1576" style="mask-type:luminance" maskUnits="userSpaceOnUse" x="0" y="0" width="470" height="470">
<path d="M470 0H0V470H470V0Z" fill="white"/>
</mask>
<g mask="url(#mask3_10_1576)">
<path d="M187.969 129.819C187.978 129.644 187.995 129.471 187.995 129.294C187.995 124.12 183.801 119.925 178.626 119.925C175.996 119.925 173.623 121.012 171.921 122.757C170.135 119.89 166.964 117.977 163.337 117.977C161.23 117.977 159.274 118.622 157.654 119.724C155.866 115.61 151.771 112.73 146.999 112.73C144.873 112.73 142.886 113.311 141.171 114.309C137.788 109.888 132.46 107.034 126.464 107.034C119.353 107.034 113.183 111.045 110.082 116.927C108.509 115.8 106.587 115.128 104.505 115.128C101.373 115.128 98.6013 116.635 96.851 118.955C95.8706 118.709 94.8441 118.575 93.7876 118.575C87.3053 118.575 81.9736 123.504 81.3354 129.818L187.969 129.819Z" fill="#2653C7"/>
</g>
<mask id="mask4_10_1576" style="mask-type:luminance" maskUnits="userSpaceOnUse" x="0" y="0" width="470" height="470">
<path d="M470 0H0V470H470V0Z" fill="white"/>
</mask>
<g mask="url(#mask4_10_1576)">
<path d="M-29.9023 290.503C-29.9164 290.198 -29.9418 289.895 -29.9418 289.585C-29.9418 280.533 -23.704 273.194 -16.0101 273.194C-12.0987 273.194 -8.56998 275.096 -6.0395 278.15C-3.38306 273.134 1.33386 269.786 6.72664 269.786C9.8606 269.786 12.769 270.915 15.1782 272.843C17.8365 265.645 23.9277 260.607 31.0238 260.607C34.1859 260.607 37.1413 261.624 39.6906 263.369C44.7214 255.635 52.6447 250.642 61.5625 250.642C72.1365 250.642 81.3137 257.66 85.9244 267.949C88.2632 265.977 91.1217 264.803 94.2181 264.803C98.8739 264.803 102.996 267.438 105.6 271.498C107.058 271.067 108.583 270.835 110.156 270.835C119.795 270.835 127.724 279.456 128.674 290.503H-29.9023Z" fill="#001C5C"/>
</g>
<mask id="mask5_10_1576" style="mask-type:luminance" maskUnits="userSpaceOnUse" x="0" y="0" width="470" height="470">
<path d="M470 0H0V470H470V0Z" fill="white"/>
</mask>
<g mask="url(#mask5_10_1576)">
<path d="M102.998 136.907C103.102 136.431 103.157 135.94 103.157 135.437C103.157 131.154 99.2095 127.682 94.3384 127.682C91.712 127.682 89.3555 128.693 87.7396 130.294C86.6276 124.084 81.2028 119.37 74.6727 119.37C69.3278 119.37 64.7237 122.529 62.6172 127.08C60.927 125.563 58.7068 124.64 56.274 124.64C50.9809 124.64 46.6898 128.997 46.6898 134.372C46.6898 135.249 46.8064 136.098 47.0197 136.906L102.998 136.907Z" fill="#002B94"/>
</g>
<mask id="mask6_10_1576" style="mask-type:luminance" maskUnits="userSpaceOnUse" x="0" y="0" width="470" height="470">
<path d="M470 0H0V470H470V0Z" fill="white"/>
</mask>
<g mask="url(#mask6_10_1576)">
<path d="M24.6524 401.832L98.152 253.594L119.868 265.702L168.311 180.949L234.293 307.323L255.173 298.241L304.452 401.832H24.6524Z" fill="#052785"/>
<path opacity="0.6" d="M168.311 180.949C168.311 180.949 169.532 200.943 169.532 201.873C169.532 202.802 173.755 217.264 173.755 217.264C173.755 217.264 168.378 231.237 167.311 233.618C166.243 235.999 164.069 260.8 163.08 261.793C162.091 262.785 159.583 282.242 157.94 283.891C156.297 285.541 147.66 317.745 147.66 317.745L119.867 265.703L168.311 180.949Z" fill="#0932A6"/>
<path opacity="0.6" d="M255.173 298.241L254.993 299.131L251.493 316.347L253.714 325.681C253.714 325.681 247.494 334.212 246.505 335.205C245.516 336.197 242.307 347.903 242.307 347.903L234.293 307.323" fill="#0932A6"/>
<path opacity="0.6" d="M98.152 253.594L106.541 273.697L104.169 291.391L116.821 312.189L128.287 352.664L131.451 376.474L143.707 388.379L147.661 401.832H24.6524L98.152 253.594Z" fill="#0932A6"/>
</g>
<mask id="mask7_10_1576" style="mask-type:luminance" maskUnits="userSpaceOnUse" x="0" y="0" width="470" height="470">
<path d="M470 0H0V470H470V0Z" fill="white"/>
</mask>
<g mask="url(#mask7_10_1576)">
<path d="M482.59 402.734L428.471 306.155L412.48 314.075L383.739 258.037L350.36 300.623L340.404 287.011L303.482 325.183L280.056 316.656L193.716 402.734H482.59Z" fill="#052785"/>
<path opacity="0.6" d="M383.739 258.037L378.608 281.87L382.325 296.825L372.452 309.442L364.59 321.593L350.36 300.623L383.739 258.037Z" fill="#0932A6"/>
<path opacity="0.6" d="M340.404 287.011L337.703 300.949L341.142 308.408V315.689L335.261 330.07L323.321 341.989L304.249 325.073L340.404 287.011Z" fill="#0932A6"/>
<path opacity="0.6" d="M428.471 306.155L412.287 313.697L420.395 330.825C420.395 330.825 426.881 326.68 426.881 326.334C426.881 325.989 425.057 322.304 425.057 321.959C425.057 321.613 422.827 316.894 422.827 316.894L426.881 314.13L428.471 306.155Z" fill="#0932A6"/>
<path opacity="0.6" d="M280.056 316.656L291.1 336.813L299.719 349.913C299.719 349.913 309.418 369.899 309.418 369.291C309.418 368.683 316.025 391.837 316.025 391.837L306.913 402.733H193.196L280.056 316.656Z" fill="#0932A6"/>
</g>
<mask id="mask8_10_1576" style="mask-type:luminance" maskUnits="userSpaceOnUse" x="0" y="0" width="470" height="470">
<path d="M470 0H0V470H470V0Z" fill="white"/>
</mask>
<g mask="url(#mask8_10_1576)">
<path d="M106.238 383.127L98.4716 368.023H102.281L93.953 351.825H98.4246L90.9516 337.29H94.345L86.762 322.541L79.1781 337.29H82.5724L75.0985 351.825H79.571L71.2417 368.023H75.0524L67.2861 383.127H106.238Z" fill="#113CB5"/>
</g>
<mask id="mask9_10_1576" style="mask-type:luminance" maskUnits="userSpaceOnUse" x="0" y="0" width="470" height="470">
<path d="M470 0H0V470H470V0Z" fill="white"/>
</mask>
<g mask="url(#mask9_10_1576)">
<path d="M116.11 381.111L108.951 370.17H112.463L104.786 358.437H108.908L102.019 347.909H105.147L98.1567 337.227L91.1668 347.909H94.2952L87.4059 358.437H91.5287L83.8508 370.17H87.3636L80.2046 381.111H116.11Z" fill="#1C48C4"/>
</g>
<mask id="mask10_10_1576" style="mask-type:luminance" maskUnits="userSpaceOnUse" x="0" y="0" width="470" height="470">
<path d="M470 0H0V470H470V0Z" fill="white"/>
</mask>
<g mask="url(#mask10_10_1576)">
<path d="M326.076 396.997L317.611 380.536H321.764L312.686 362.88H317.56L309.415 347.039H313.114L304.849 330.964L296.583 347.039H300.282L292.137 362.88H297.011L287.933 380.536H292.086L283.622 396.997H326.076Z" fill="#113CB5"/>
</g>
<mask id="mask11_10_1576" style="mask-type:luminance" maskUnits="userSpaceOnUse" x="0" y="0" width="470" height="470">
<path d="M470 0H0V470H470V0Z" fill="white"/>
</mask>
<g mask="url(#mask11_10_1576)">
<path d="M229.144 407.269L220.68 390.807H224.832L215.754 373.152H220.629L212.483 357.31H216.182L207.917 341.236L199.652 357.31H203.35L195.205 373.152H200.08L191.002 390.807H195.154L186.691 407.269H229.144Z" fill="#113CB5"/>
</g>
<mask id="mask12_10_1576" style="mask-type:luminance" maskUnits="userSpaceOnUse" x="0" y="0" width="470" height="470">
<path d="M470 0H0V470H470V0Z" fill="white"/>
</mask>
<g mask="url(#mask12_10_1576)">
<path d="M83.064 378.692L74.5993 362.23H78.7523L69.6747 344.575H74.5486L66.4035 328.733H70.1024L61.837 312.658L53.5715 328.733H57.2704L49.1244 344.575H53.9992L44.9217 362.23H49.0746L40.6099 378.692H83.064Z" fill="#113CB5"/>
</g>
<mask id="mask13_10_1576" style="mask-type:luminance" maskUnits="userSpaceOnUse" x="0" y="0" width="470" height="470">
<path d="M470 0H0V470H470V0Z" fill="white"/>
</mask>
<g mask="url(#mask13_10_1576)">
<path d="M51.779 385.228L42.8471 366.256H47.2294L37.6498 345.91H42.7935L34.1981 327.653H38.101L29.3797 309.127L20.6574 327.653H24.5603L15.965 345.91H21.1086L11.5291 366.256H15.9114L6.9795 385.228H51.779Z" fill="#113CB5"/>
</g>
<mask id="mask14_10_1576" style="mask-type:luminance" maskUnits="userSpaceOnUse" x="0" y="0" width="470" height="470">
<path d="M470 0H0V470H470V0Z" fill="white"/>
</mask>
<g mask="url(#mask14_10_1576)">
<path d="M138.516 386.947L130.051 370.485H134.204L125.126 352.831H130L121.855 336.989H125.554L117.289 320.914L109.023 336.989H112.722L104.577 352.831H109.451L100.373 370.485H104.526L96.0614 386.947H138.516Z" fill="#113CB5"/>
</g>
<mask id="mask15_10_1576" style="mask-type:luminance" maskUnits="userSpaceOnUse" x="0" y="0" width="470" height="470">
<path d="M470 0H0V470H470V0Z" fill="white"/>
</mask>
<g mask="url(#mask15_10_1576)">
<path d="M177.804 389.853L170.866 376.358H174.269L166.828 361.886H170.824L164.148 348.901H167.179L160.403 335.723L153.629 348.901H156.66L149.984 361.886H153.98L146.538 376.358H149.942L143.003 389.853H177.804Z" fill="#113CB5"/>
</g>
<mask id="mask16_10_1576" style="mask-type:luminance" maskUnits="userSpaceOnUse" x="0" y="0" width="470" height="470">
<path d="M470 0H0V470H470V0Z" fill="white"/>
</mask>
<g mask="url(#mask16_10_1576)">
<path d="M431.897 379.509L422.368 364.946H427.043L416.824 349.328H422.311L413.141 335.315H417.305L408 321.095L398.696 335.315H402.86L393.69 349.328H399.178L388.958 364.946H393.633L384.104 379.509H431.897Z" fill="#113CB5"/>
</g>
<mask id="mask17_10_1576" style="mask-type:luminance" maskUnits="userSpaceOnUse" x="0" y="0" width="470" height="470">
<path d="M470 0H0V470H470V0Z" fill="white"/>
</mask>
<g mask="url(#mask17_10_1576)">
<path d="M308.271 410.3L298.742 395.737H303.417L293.198 380.12H298.685L289.515 366.106H293.679L284.374 351.886L275.07 366.106H279.234L270.064 380.12H275.552L265.332 395.737H270.007L260.478 410.3H308.271Z" fill="#2350CC"/>
</g>
<mask id="mask18_10_1576" style="mask-type:luminance" maskUnits="userSpaceOnUse" x="0" y="0" width="470" height="470">
<path d="M470 0H0V470H470V0Z" fill="white"/>
</mask>
<g mask="url(#mask18_10_1576)">
<path d="M368.867 389.742L359.184 374.944H363.935L353.551 359.074H359.126L349.809 344.835H354.04L344.585 330.386L335.13 344.835H339.361L330.043 359.074H335.619L325.235 374.944H329.985L320.302 389.742H368.867Z" fill="#113CB5"/>
</g>
<mask id="mask19_10_1576" style="mask-type:luminance" maskUnits="userSpaceOnUse" x="0" y="0" width="470" height="470">
<path d="M470 0H0V470H470V0Z" fill="white"/>
</mask>
<g mask="url(#mask19_10_1576)">
<path d="M394.424 378.573L386.98 364.729H390.632L382.65 349.884H386.936L379.773 336.563H383.026L375.757 323.046L368.488 336.563H371.741L364.578 349.884H368.864L360.882 364.729H364.534L357.09 378.573H394.424Z" fill="#113CB5"/>
</g>
<mask id="mask20_10_1576" style="mask-type:luminance" maskUnits="userSpaceOnUse" x="0" y="0" width="470" height="470">
<path d="M470 0H0V470H470V0Z" fill="white"/>
</mask>
<g mask="url(#mask20_10_1576)">
<path d="M259.1 409.345L251.404 394.974H255.18L246.926 379.562H251.358L243.952 365.733H247.315L239.8 351.7L232.284 365.733H235.648L228.241 379.562H232.673L224.419 394.974H228.195L220.5 409.345H259.1Z" fill="#113CB5"/>
</g>
<mask id="mask21_10_1576" style="mask-type:luminance" maskUnits="userSpaceOnUse" x="0" y="0" width="470" height="470">
<path d="M470 0H0V470H470V0Z" fill="white"/>
</mask>
<g mask="url(#mask21_10_1576)">
<path d="M239.8 407.891L232.103 396.13H235.879L227.626 383.516H232.057L224.652 372.198H228.014L220.499 360.713L212.984 372.198H216.347L208.941 383.516H213.373L205.119 396.13H208.895L201.199 407.891H239.8Z" fill="#1C48C4"/>
</g>
<mask id="mask22_10_1576" style="mask-type:luminance" maskUnits="userSpaceOnUse" x="0" y="0" width="470" height="470">
<path d="M470 0H0V470H470V0Z" fill="white"/>
</mask>
<g mask="url(#mask22_10_1576)">
<path d="M204.571 398.423L196.875 384.66H200.651L192.397 369.901H196.829L189.423 356.657H192.786L185.271 343.218L177.756 356.657H181.119L173.713 369.901H178.145L169.891 384.66H173.667L165.97 398.423H204.571Z" fill="#113CB5"/>
</g>
<mask id="mask23_10_1576" style="mask-type:luminance" maskUnits="userSpaceOnUse" x="0" y="0" width="470" height="470">
<path d="M470 0H0V470H470V0Z" fill="white"/>
</mask>
<g mask="url(#mask23_10_1576)">
<path d="M288.266 412.172L278.408 397.107H283.245L272.672 380.951H278.349L268.863 366.453H273.171L263.545 351.742L253.919 366.453H258.226L248.741 380.951H254.418L243.845 397.107H248.682L238.824 412.172H288.266Z" fill="#113CB5"/>
</g>
<mask id="mask24_10_1576" style="mask-type:luminance" maskUnits="userSpaceOnUse" x="0" y="0" width="470" height="470">
<path d="M470 0H0V470H470V0Z" fill="white"/>
</mask>
<g mask="url(#mask24_10_1576)">
<path d="M458.937 363.346L452.045 352.813H455.426L448.034 341.516H452.004L445.371 331.38H448.383L441.652 321.095L434.922 331.38H437.934L431.302 341.516H435.271L427.879 352.813H431.261L424.368 363.346H458.937Z" fill="#113CB5"/>
</g>
<mask id="mask25_10_1576" style="mask-type:luminance" maskUnits="userSpaceOnUse" x="0" y="0" width="470" height="470">
<path d="M470 0H0V470H470V0Z" fill="white"/>
</mask>
<g mask="url(#mask25_10_1576)">
<path d="M344.943 395.413L336.014 381.768H340.395L330.819 367.134H335.961L327.369 354.003H331.27L322.552 340.679L313.833 354.003H317.735L309.142 367.134H314.284L304.709 381.768H309.089L300.16 395.413H344.943Z" fill="#2350CC"/>
</g>
<mask id="mask26_10_1576" style="mask-type:luminance" maskUnits="userSpaceOnUse" x="0" y="0" width="470" height="470">
<path d="M470 0H0V470H470V0Z" fill="white"/>
</mask>
<g mask="url(#mask26_10_1576)">
<path d="M442.241 374.023L435.349 363.49H438.73L431.338 352.194H435.307L428.675 342.058H431.687L424.956 331.772L418.226 342.058H421.238L414.605 352.194H418.574L411.182 363.49H414.564L407.671 374.023H442.241Z" fill="#1C48C4"/>
</g>
<mask id="mask27_10_1576" style="mask-type:luminance" maskUnits="userSpaceOnUse" x="0" y="0" width="470" height="470">
<path d="M470 0H0V470H470V0Z" fill="white"/>
</mask>
<g mask="url(#mask27_10_1576)">
<path d="M295.122 419.548L288.23 409.015H291.612L284.219 397.719H288.189L281.556 387.583H284.568L277.838 377.297L271.107 387.583H274.12L267.487 397.719H271.456L264.064 409.015H267.446L260.553 419.548H295.122Z" fill="#1C48C4"/>
</g>
<mask id="mask28_10_1576" style="mask-type:luminance" maskUnits="userSpaceOnUse" x="0" y="0" width="470" height="470">
<path d="M470 0H0V470H470V0Z" fill="white"/>
</mask>
<g mask="url(#mask28_10_1576)">
<path d="M170.579 392.442L161.565 378.666H165.987L156.32 363.894H161.511L152.837 350.638H156.776L147.975 337.187L139.173 350.638H143.112L134.438 363.894H139.629L129.962 378.666H134.384L125.371 392.442H170.579Z" fill="#2350CC"/>
</g>
<mask id="mask29_10_1576" style="mask-type:luminance" maskUnits="userSpaceOnUse" x="0" y="0" width="470" height="470">
<path d="M470 0H0V470H470V0Z" fill="white"/>
</mask>
<g mask="url(#mask29_10_1576)">
<path d="M207.917 401.74L203.007 394.237H205.416L200.151 386.191H202.978L198.254 378.97H200.4L195.605 371.644L190.811 378.97H192.957L188.232 386.191H191.06L185.794 394.237H188.203L183.293 401.74H207.917Z" fill="#2350CC"/>
</g>
<mask id="mask30_10_1576" style="mask-type:luminance" maskUnits="userSpaceOnUse" x="0" y="0" width="470" height="470">
<path d="M470 0H0V470H470V0Z" fill="white"/>
</mask>
<g mask="url(#mask30_10_1576)">
<path d="M93.0374 380.144L88.1278 372.641H90.5361L85.2712 364.594H88.0977L83.3733 357.374H85.5193L80.7253 350.048L75.9313 357.374H78.0764L73.352 364.594H76.1795L70.9136 372.641H73.3228L68.4132 380.144H93.0374Z" fill="#2350CC"/>
</g>
<mask id="mask31_10_1576" style="mask-type:luminance" maskUnits="userSpaceOnUse" x="0" y="0" width="470" height="470">
<path d="M470 0H0V470H470V0Z" fill="white"/>
</mask>
<g mask="url(#mask31_10_1576)">
<path d="M409.468 381.838L402.575 371.305H405.957L398.565 360.009H402.533L395.902 349.873H398.913L392.183 339.587L385.453 349.873H388.464L381.832 360.009H385.801L378.409 371.305H381.79L374.898 381.838H409.468Z" fill="#1C48C4"/>
</g>
<mask id="mask32_10_1576" style="mask-type:luminance" maskUnits="userSpaceOnUse" x="0" y="0" width="470" height="470">
<path d="M470 0H0V470H470V0Z" fill="white"/>
</mask>
<g mask="url(#mask32_10_1576)">
<path d="M473.976 362.199L469.174 354.86H471.53L466.38 346.989H469.146L464.524 339.927H466.623L461.933 332.76L457.244 339.927H459.342L454.721 346.989H457.487L452.336 354.86H454.692L449.89 362.199H473.976Z" fill="#1C48C4"/>
</g>
<mask id="mask33_10_1576" style="mask-type:luminance" maskUnits="userSpaceOnUse" x="0" y="0" width="470" height="470">
<path d="M470 0H0V470H470V0Z" fill="white"/>
</mask>
<g mask="url(#mask33_10_1576)">
<path d="M271.264 421.325L264.372 410.791H267.753L260.361 399.495H264.331L257.698 389.359H260.71L253.98 379.074L247.249 389.359H250.262L243.629 399.495H247.598L240.207 410.791H243.588L236.695 421.325H271.264Z" fill="#1C48C4"/>
</g>
<mask id="mask34_10_1576" style="mask-type:luminance" maskUnits="userSpaceOnUse" x="0" y="0" width="470" height="470">
<path d="M470 0H0V470H470V0Z" fill="white"/>
</mask>
<g mask="url(#mask34_10_1576)">
<path d="M65.2426 377.913L57.1473 363.381H61.1188L52.437 347.797H57.0984L49.3086 333.814H52.8459L44.9414 319.624L37.036 333.814H40.5732L32.7834 347.797H37.4449L28.7631 363.381H32.7346L24.6393 377.913H65.2426Z" fill="#1C48C4"/>
</g>
<mask id="mask35_10_1576" style="mask-type:luminance" maskUnits="userSpaceOnUse" x="0" y="0" width="470" height="470">
<path d="M470 0H0V470H470V0Z" fill="white"/>
</mask>
<g mask="url(#mask35_10_1576)">
<path d="M187.09 397.058L180.198 386.524H183.579L176.187 375.228H180.157L173.524 365.092H176.536L169.805 354.807L163.075 365.092H166.087L159.454 375.228H163.424L156.032 386.524H159.413L152.521 397.058H187.09Z" fill="#1C48C4"/>
</g>
<mask id="mask36_10_1576" style="mask-type:luminance" maskUnits="userSpaceOnUse" x="0" y="0" width="470" height="470">
<path d="M470 0H0V470H470V0Z" fill="white"/>
</mask>
<g mask="url(#mask36_10_1576)">
<path d="M142.755 386.147L135.863 375.615H139.244L131.853 364.318H135.822L129.189 354.182H132.201L125.47 343.896L118.741 354.182H121.753L115.12 364.318H119.089L111.697 375.615H115.079L108.186 386.147H142.755Z" fill="#1C48C4"/>
</g>
<mask id="mask37_10_1576" style="mask-type:luminance" maskUnits="userSpaceOnUse" x="0" y="0" width="470" height="470">
<path d="M470 0H0V470H470V0Z" fill="white"/>
</mask>
<g mask="url(#mask37_10_1576)">
<path d="M25.5464 376.322L18.6534 365.789H22.0355L14.6433 354.493H18.612L11.9803 344.357H14.9921L8.26166 334.071L1.53126 344.357H4.54302L-2.08962 354.493H1.88L-5.51216 365.789H-2.13098L-9.02306 376.322H25.5464Z" fill="#1C48C4"/>
</g>
<mask id="mask38_10_1576" style="mask-type:luminance" maskUnits="userSpaceOnUse" x="0" y="0" width="470" height="470">
<path d="M470 0H0V470H470V0Z" fill="white"/>
</mask>
<g mask="url(#mask38_10_1576)">
<path d="M321.988 400.929L315.096 390.396H318.477L311.085 379.099H315.054L308.422 368.963H311.433L304.703 358.678L297.973 368.963H300.985L294.353 379.099H298.321L290.93 390.396H294.311L287.419 400.929H321.988Z" fill="#1C48C4"/>
</g>
<mask id="mask39_10_1576" style="mask-type:luminance" maskUnits="userSpaceOnUse" x="0" y="0" width="470" height="470">
<path d="M470 0H0V470H470V0Z" fill="white"/>
</mask>
<g mask="url(#mask39_10_1576)">
<path d="M376.578 388.1L369.685 377.567H373.067L365.675 366.271H369.644L363.012 356.134H366.024L359.293 345.849L352.563 356.134H355.575L348.942 366.271H352.912L345.52 377.567H348.901L342.009 388.1H376.578Z" fill="#2350CC"/>
</g>
<mask id="mask40_10_1576" style="mask-type:luminance" maskUnits="userSpaceOnUse" x="0" y="0" width="470" height="470">
<path d="M470 0H0V470H470V0Z" fill="white"/>
</mask>
<g mask="url(#mask40_10_1576)">
<path d="M245.19 415.719L240.455 408.483H242.778L237.7 400.721H240.426L235.869 393.758H237.938L233.315 386.692L228.692 393.758H230.761L226.203 400.721H228.93L223.853 408.483H226.175L221.44 415.719H245.19Z" fill="#2350CC"/>
</g>
<mask id="mask41_10_1576" style="mask-type:luminance" maskUnits="userSpaceOnUse" x="0" y="0" width="470" height="470">
<path d="M470 0H0V470H470V0Z" fill="white"/>
</mask>
<g mask="url(#mask41_10_1576)">
<path d="M390.917 379.074L386.181 371.838H388.505L383.426 364.076H386.153L381.597 357.113H383.666L379.042 350.047L374.418 357.113H376.488L371.931 364.076H374.658L369.58 371.838H371.903L367.168 379.074H390.917Z" fill="#2350CC"/>
</g>
<mask id="mask42_10_1576" style="mask-type:luminance" maskUnits="userSpaceOnUse" x="0" y="0" width="470" height="470">
<path d="M470 0H0V470H470V0Z" fill="white"/>
</mask>
<g mask="url(#mask42_10_1576)">
<path d="M122.908 381.208L117.998 373.705H120.406L115.142 365.658H117.969L113.245 358.438H115.39L110.596 351.112L105.802 358.438H107.947L103.222 365.658H106.05L100.785 373.705H103.193L98.2836 381.208H122.908Z" fill="#2350CC"/>
</g>
<mask id="mask43_10_1576" style="mask-type:luminance" maskUnits="userSpaceOnUse" x="0" y="0" width="470" height="470">
<path d="M470 0H0V470H470V0Z" fill="white"/>
</mask>
<g mask="url(#mask43_10_1576)">
<path d="M39.6614 373L34.7518 365.496H37.161L31.8951 357.45H34.7227L29.9982 350.23H32.1433L27.3493 342.904L22.5553 350.23H24.7013L19.9769 357.45H22.8035L17.5385 365.496H19.9468L15.0372 373H39.6614Z" fill="#2350CC"/>
</g>
<mask id="mask44_10_1576" style="mask-type:luminance" maskUnits="userSpaceOnUse" x="0" y="0" width="470" height="470">
<path d="M470 0H0V470H470V0Z" fill="white"/>
</mask>
<g mask="url(#mask44_10_1576)">
<path d="M72.6047 375.434L66.1901 365.632H69.3372L62.4583 355.119H66.1516L59.9795 345.686H62.7826L56.5184 336.114L50.2552 345.686H53.0583L46.8863 355.119H50.5795L43.7006 365.632H46.8477L40.4332 375.434H72.6047Z" fill="#2350CC"/>
</g>
<mask id="mask45_10_1576" style="mask-type:luminance" maskUnits="userSpaceOnUse" x="0" y="0" width="470" height="470">
<path d="M470 0H0V470H470V0Z" fill="white"/>
</mask>
<g mask="url(#mask45_10_1576)">
<path d="M428.537 384.983L420.933 373.362H424.664L416.508 360.899H420.887L413.57 349.717H416.893L409.468 338.369L402.042 349.717H405.365L398.048 360.899H402.426L394.272 373.362H398.002L390.398 384.983H428.537Z" fill="#2350CC"/>
</g>
<mask id="mask46_10_1576" style="mask-type:luminance" maskUnits="userSpaceOnUse" x="0" y="0" width="470" height="470">
<path d="M470 0H0V470H470V0Z" fill="white"/>
</mask>
<g mask="url(#mask46_10_1576)">
<path d="M463.102 363.98L458.139 356.396H460.574L455.251 348.262H458.11L453.334 340.964H455.502L450.657 333.558L445.811 340.964H447.98L443.203 348.262H446.061L440.739 356.396H443.174L438.211 363.98H463.102Z" fill="#2350CC"/>
</g>
<mask id="mask47_10_1576" style="mask-type:luminance" maskUnits="userSpaceOnUse" x="0" y="0" width="470" height="470">
<path d="M470 0H0V470H470V0Z" fill="white"/>
</mask>
<g mask="url(#mask47_10_1576)">
<path d="M469.636 352.011V469.722H177.359C226.841 420.072 405.477 352.012 469.636 352.011Z" fill="#002A91"/>
<path d="M470.845 361.755V470H177.057C226.794 424.342 406.354 361.756 470.845 361.755Z" fill="#002275"/>
<path d="M0 363.717V469.722H376.988C313.166 425.009 82.7548 363.718 0 363.717Z" fill="#0030A3"/>
<path d="M0 370.907V470H381.875C317.226 428.203 83.8273 370.907 0 370.907Z" fill="#002275"/>
</g>
<mask id="mask48_10_1576" style="mask-type:luminance" maskUnits="userSpaceOnUse" x="0" y="0" width="470" height="470">
<path d="M470 0H0V470H470V0Z" fill="white"/>
</mask>
<g mask="url(#mask48_10_1576)">
<g opacity="0.6">
<path d="M63.0449 422.045C63.0449 423.928 56.7196 425.454 48.9167 425.454C41.1137 425.454 34.7885 423.928 34.7885 422.045C34.7885 420.162 41.1137 418.636 48.9167 418.636C56.7196 418.636 63.0449 420.161 63.0449 422.045Z" fill="#001A57"/>
<path d="M165.977 435.212C172.629 435.212 178.022 433.911 178.022 432.306C178.022 430.701 172.629 429.4 165.977 429.4C159.324 429.4 153.932 430.701 153.932 432.306C153.932 433.911 159.324 435.212 165.977 435.212Z" fill="#001A57"/>
<path opacity="0.28" d="M10.6709 450.635C30.3923 450.635 46.3796 446.777 46.3796 442.018C46.3796 437.259 30.3923 433.401 10.6709 433.401C-9.0505 433.401 -25.0378 437.259 -25.0378 442.018C-25.0378 446.777 -9.0505 450.635 10.6709 450.635Z" fill="#001445"/>
<path d="M86.2788 454.112C97.7603 454.112 107.068 451.716 107.068 448.76C107.068 445.804 97.7603 443.407 86.2788 443.407C74.7974 443.407 65.4898 445.804 65.4898 448.76C65.4898 451.716 74.7974 454.112 86.2788 454.112Z" fill="#001A57"/>
<path opacity="0.4" d="M146.025 415.548C154.815 415.548 161.941 413.528 161.941 411.036C161.941 408.544 154.815 406.524 146.025 406.524C137.235 406.524 130.109 408.544 130.109 411.036C130.109 413.528 137.235 415.548 146.025 415.548Z" fill="#001445"/>
<path opacity="0.28" d="M414.652 439.917C428.328 439.917 439.415 436.767 439.415 432.88C439.415 428.994 428.328 425.844 414.652 425.844C400.975 425.844 389.888 428.994 389.888 432.88C389.888 436.767 400.975 439.917 414.652 439.917Z" fill="#001445"/>
<path opacity="0.6" d="M477.887 420.673C477.887 422.99 470.83 424.868 462.126 424.868C453.421 424.868 446.365 422.99 446.365 420.673C446.365 418.355 453.421 416.477 462.126 416.477C470.83 416.477 477.887 418.355 477.887 420.673Z" fill="#001445"/>
<path opacity="0.2" d="M390.62 420.157C390.62 421.621 386.473 422.809 381.358 422.809C376.243 422.809 372.096 421.622 372.096 420.157C372.096 418.691 376.243 417.504 381.358 417.504C386.473 417.504 390.62 418.691 390.62 420.157Z" fill="#00123B"/>
<path opacity="0.4" d="M329.109 427.359C336.053 427.359 341.682 425.746 341.682 423.758C341.682 421.769 336.053 420.156 329.109 420.156C322.165 420.156 316.536 421.769 316.536 423.758C316.536 425.746 322.165 427.359 329.109 427.359Z" fill="#00123B"/>
<path opacity="0.4" d="M376.829 438.71C376.829 439.303 375.15 439.784 373.079 439.784C371.009 439.784 369.33 439.302 369.33 438.71C369.33 438.117 371.009 437.637 373.079 437.637C375.15 437.636 376.829 438.117 376.829 438.71Z" fill="#000D2B"/>
<path opacity="0.6" d="M410.078 412.421C410.078 412.733 409.194 412.987 408.104 412.987C407.013 412.987 406.13 412.734 406.13 412.421C406.13 412.109 407.013 411.855 408.104 411.855C409.193 411.855 410.078 412.109 410.078 412.421Z" fill="#000D2B"/>
<path opacity="0.4" d="M199.759 428.844C199.759 429.15 199.065 429.4 198.207 429.4C197.35 429.4 196.656 429.15 196.656 428.844C196.656 428.538 197.35 428.288 198.207 428.288C199.065 428.288 199.759 428.537 199.759 428.844Z" fill="#000D2B"/>
<path opacity="0.4" d="M57.0411 458.795C57.0411 459.102 56.3464 459.351 55.4891 459.351C54.6319 459.351 53.9372 459.102 53.9372 458.795C53.9372 458.488 54.6319 458.24 55.4891 458.24C56.3464 458.24 57.0411 458.488 57.0411 458.795Z" fill="#000D2B"/>
<path opacity="0.4" d="M23.2114 416.029C23.2114 416.335 22.5168 416.584 21.6595 416.584C20.8022 416.584 20.1075 416.335 20.1075 416.029C20.1075 415.722 20.8022 415.473 21.6595 415.473C22.5158 415.473 23.2114 415.723 23.2114 416.029Z" fill="#000D2B"/>
<path opacity="0.4" d="M358.814 416.103C358.814 416.41 358.119 416.659 357.262 416.659C356.405 416.659 355.71 416.41 355.71 416.103C355.71 415.796 356.405 415.548 357.262 415.548C358.118 415.548 358.814 415.796 358.814 416.103Z" fill="#000D2B"/>
<path opacity="0.4" d="M468.019 435.362C468.019 435.727 467.194 436.022 466.176 436.022C465.158 436.022 464.333 435.727 464.333 435.362C464.333 434.997 465.158 434.702 466.176 434.702C467.194 434.702 468.019 434.997 468.019 435.362Z" fill="#000D2B"/>
<path opacity="0.4" d="M151.86 445.74C151.86 446.047 151.165 446.295 150.308 446.295C149.451 446.295 148.756 446.046 148.756 445.74C148.756 445.433 149.451 445.184 150.308 445.184C151.164 445.184 151.86 445.433 151.86 445.74Z" fill="#000D2B"/>
<path opacity="0.7" d="M141.733 423.995C141.733 424.231 141.199 424.422 140.541 424.422C139.883 424.422 139.349 424.231 139.349 423.995C139.349 423.76 139.883 423.569 140.541 423.569C141.199 423.569 141.733 423.76 141.733 423.995Z" fill="#000D2B"/>
<path opacity="0.7" d="M112.192 435.212C112.85 435.212 113.384 435.021 113.384 434.786C113.384 434.55 112.85 434.359 112.192 434.359C111.534 434.359 111 434.55 111 434.786C111 435.021 111.534 435.212 112.192 435.212Z" fill="#000D2B"/>
<path opacity="0.4" d="M351.709 432.439C351.709 432.925 350.609 433.319 349.25 433.319C347.892 433.319 346.791 432.925 346.791 432.439C346.791 431.953 347.892 431.56 349.25 431.56C350.609 431.56 351.709 431.953 351.709 432.439Z" fill="#000D2B"/>
<path opacity="0.7" d="M403.536 455.906C403.536 456.142 403.057 456.332 402.466 456.332C401.874 456.332 401.395 456.142 401.395 455.906C401.395 455.67 401.874 455.479 402.466 455.479C403.057 455.479 403.536 455.67 403.536 455.906Z" fill="#000D2B"/>
<path opacity="0.2" d="M453.967 450.094C453.967 451.044 452.035 451.814 449.651 451.814C447.267 451.814 445.334 451.044 445.334 450.094C445.334 449.143 447.267 448.373 449.651 448.373C452.035 448.373 453.967 449.143 453.967 450.094Z" fill="#000D2B"/>
<path opacity="0.2" d="M173.959 419.544C176.343 419.544 178.276 418.773 178.276 417.823C178.276 416.873 176.343 416.103 173.959 416.103C171.575 416.103 169.643 416.873 169.643 417.823C169.643 418.773 171.575 419.544 173.959 419.544Z" fill="#000D2B"/>
<path opacity="0.6" d="M91.1527 432.81C91.1527 433.665 88.971 434.359 86.2788 434.359C83.5867 434.359 81.4049 433.665 81.4049 432.81C81.4049 431.954 83.5867 431.261 86.2788 431.261C88.971 431.262 91.1527 431.954 91.1527 432.81Z" fill="#001445"/>
<path opacity="0.6" d="M130.523 453.181C130.523 453.714 129.163 454.146 127.485 454.146C125.807 454.146 124.447 453.714 124.447 453.181C124.447 452.648 125.807 452.215 127.485 452.215C129.163 452.215 130.523 452.648 130.523 453.181Z" fill="#001445"/>
</g>
</g>
<mask id="mask49_10_1576" style="mask-type:luminance" maskUnits="userSpaceOnUse" x="0" y="0" width="470" height="470">
<path d="M470 0H0V470H470V0Z" fill="white"/>
</mask>
<g mask="url(#mask49_10_1576)">
<path d="M85.117 380.977L75.9727 360.035L80.4584 360.699L70.6513 338.238L75.9172 339.018L67.1179 318.864L71.1138 319.455L62.1838 299.006L53.2538 316.814L57.2507 317.404L48.4504 334.955L53.7163 335.733L43.9093 355.292L48.3959 355.955L39.2506 374.193L85.117 380.977Z" fill="#2C61F5"/>
<path opacity="0.1" d="M62.1838 299.006V377.585L85.117 380.977L75.9727 360.035L80.4584 360.699L70.6513 338.238L75.9172 339.018L67.1179 318.864L71.1138 319.455L62.1838 299.006Z" fill="#001445"/>
<path d="M394.562 386.338L385.539 367.304L389.966 366.431L380.289 346.019L385.486 344.994L376.803 326.677L380.745 325.9L371.935 307.314L363.125 329.374L367.067 328.597L358.385 350.337L363.581 349.312L353.904 373.542L358.331 372.669L349.309 395.261L394.562 386.338Z" fill="#2C61F5"/>
<path opacity="0.1" d="M371.935 307.314V390.799L394.562 386.338L385.539 367.304L389.966 366.431L380.289 346.019L385.486 344.994L376.803 326.677L380.745 325.9L371.935 307.314Z" fill="#001445"/>
<path d="M466.292 367.409L458.543 351.064L462.345 350.314L454.035 332.784L458.497 331.905L451.041 316.176L454.427 315.508L446.861 299.547L439.295 318.492L442.681 317.823L435.225 336.494L439.687 335.614L431.377 356.42L435.179 355.671L427.43 375.071L466.292 367.409Z" fill="#2C61F5"/>
<path opacity="0.1" d="M446.861 299.547V371.24L466.292 367.409L458.543 351.064L462.345 350.314L454.035 332.784L458.497 331.905L451.041 316.176L454.427 315.508L446.861 299.547Z" fill="#001445"/>
<path d="M438.407 389.568L430.167 372.184L434.209 371.386L425.372 352.743L430.117 351.807L422.187 335.078L425.788 334.368L417.741 317.393L409.694 337.542L413.295 336.832L405.366 356.688L410.111 355.752L401.273 377.881L405.316 377.084L397.076 397.718L438.407 389.568Z" fill="#2C61F5"/>
<path opacity="0.1" d="M417.741 317.393V393.643L438.407 389.568L430.167 372.184L434.209 371.386L425.372 352.743L430.117 351.807L422.187 335.078L425.788 334.368L417.741 317.393Z" fill="#001445"/>
<path d="M130.769 411.313L120.065 386.801L125.317 387.577L113.838 361.289L120.001 362.201L109.701 338.612L114.378 339.304L103.926 315.368L93.4745 336.212L98.152 336.904L87.8524 357.445L94.016 358.357L82.5367 381.25L87.7875 382.026L77.0838 403.373L130.769 411.313Z" fill="#2C61F5"/>
<path opacity="0.1" d="M103.926 315.368V407.342L130.769 411.313L120.065 386.801L125.317 387.577L113.838 361.289L120.001 362.201L109.701 338.612L114.378 339.304L103.926 315.368Z" fill="#001445"/>
<path d="M56.5184 394.049L44.0672 365.533L50.1763 366.436L36.8217 335.855L43.9929 336.916L32.0098 309.475L37.4515 310.28L25.2926 282.435L13.1337 306.683L18.5753 307.488L6.59316 331.384L13.7635 332.444L0.409839 359.075L6.51796 359.979L-5.93328 384.811L56.5184 394.049Z" fill="#2C61F5"/>
<path opacity="0.1" d="M25.2926 282.435V389.43L56.5184 394.049L44.0672 365.533L50.1763 366.436L36.8217 335.855L43.9929 336.916L32.0098 309.475L37.4515 310.28L25.2926 282.435Z" fill="#001445"/>
</g>
<mask id="mask50_10_1576" style="mask-type:luminance" maskUnits="userSpaceOnUse" x="0" y="0" width="470" height="470">
<path d="M470 0H0V470H470V0Z" fill="white"/>
</mask>
<g mask="url(#mask50_10_1576)">
<path d="M420.378 141.132C420.863 141.132 421.255 140.739 421.255 140.255C421.255 139.77 420.863 139.378 420.378 139.378C419.894 139.378 419.501 139.77 419.501 140.255C419.501 140.739 419.894 141.132 420.378 141.132Z" fill="white"/>
</g>
<mask id="mask51_10_1576" style="mask-type:luminance" maskUnits="userSpaceOnUse" x="0" y="0" width="470" height="470">
<path d="M470 0H0V470H470V0Z" fill="white"/>
</mask>
<g mask="url(#mask51_10_1576)">
<path d="M319.064 235.886C319.064 236.371 318.671 236.763 318.187 236.763C317.703 236.763 317.31 236.371 317.31 235.886C317.31 235.402 317.703 235.009 318.187 235.009C318.671 235.009 319.064 235.402 319.064 235.886Z" fill="white"/>
</g>
<mask id="mask52_10_1576" style="mask-type:luminance" maskUnits="userSpaceOnUse" x="0" y="0" width="470" height="470">
<path d="M470 0H0V470H470V0Z" fill="white"/>
</mask>
<g mask="url(#mask52_10_1576)">
<path d="M161.768 17.4154C161.768 17.8995 161.375 18.2924 160.891 18.2924C160.407 18.2924 160.014 17.8995 160.014 17.4154C160.014 16.9313 160.406 16.5384 160.891 16.5384C161.375 16.5384 161.768 16.9303 161.768 17.4154Z" fill="white"/>
</g>
<mask id="mask53_10_1576" style="mask-type:luminance" maskUnits="userSpaceOnUse" x="0" y="0" width="470" height="470">
<path d="M470 0H0V470H470V0Z" fill="white"/>
</mask>
<g mask="url(#mask53_10_1576)">
<path d="M354.37 197.182C354.37 197.666 353.977 198.059 353.493 198.059C353.009 198.059 352.616 197.666 352.616 197.182C352.616 196.698 353.009 196.305 353.493 196.305C353.977 196.305 354.37 196.698 354.37 197.182Z" fill="white"/>
</g>
<mask id="mask54_10_1576" style="mask-type:luminance" maskUnits="userSpaceOnUse" x="0" y="0" width="470" height="470">
<path d="M470 0H0V470H470V0Z" fill="white"/>
</mask>
<g mask="url(#mask54_10_1576)">
<path d="M382.434 23.2744C382.434 24.0311 381.821 24.644 381.065 24.644C380.308 24.644 379.695 24.0302 379.695 23.2744C379.695 22.5186 380.308 21.9048 381.065 21.9048C381.821 21.9039 382.434 22.5177 382.434 23.2744Z" fill="white"/>
</g>
<mask id="mask55_10_1576" style="mask-type:luminance" maskUnits="userSpaceOnUse" x="0" y="0" width="470" height="470">
<path d="M470 0H0V470H470V0Z" fill="white"/>
</mask>
<g mask="url(#mask55_10_1576)">
<path d="M334.228 109.867C334.985 109.867 335.598 109.254 335.598 108.498C335.598 107.741 334.985 107.128 334.228 107.128C333.472 107.128 332.859 107.741 332.859 108.498C332.859 109.254 333.472 109.867 334.228 109.867Z" fill="white"/>
</g>
<mask id="mask56_10_1576" style="mask-type:luminance" maskUnits="userSpaceOnUse" x="0" y="0" width="470" height="470">
<path d="M470 0H0V470H470V0Z" fill="white"/>
</mask>
<g mask="url(#mask56_10_1576)">
<path d="M122.622 165.62C122.622 166.377 122.009 166.99 121.252 166.99C120.496 166.99 119.883 166.376 119.883 165.62C119.883 164.864 120.497 164.251 121.252 164.251C122.009 164.251 122.622 164.864 122.622 165.62Z" fill="white"/>
</g>
<mask id="mask57_10_1576" style="mask-type:luminance" maskUnits="userSpaceOnUse" x="0" y="0" width="470" height="470">
<path d="M470 0H0V470H470V0Z" fill="white"/>
</mask>
<g mask="url(#mask57_10_1576)">
<path d="M421.749 202.484C421.749 203.241 421.136 203.854 420.379 203.854C419.623 203.854 419.01 203.24 419.01 202.484C419.01 201.728 419.623 201.115 420.379 201.115C421.135 201.115 421.749 201.728 421.749 202.484Z" fill="white"/>
</g>
<mask id="mask58_10_1576" style="mask-type:luminance" maskUnits="userSpaceOnUse" x="0" y="0" width="470" height="470">
<path d="M470 0H0V470H470V0Z" fill="white"/>
</mask>
<g mask="url(#mask58_10_1576)">
<path d="M78.7297 235.901C79.4861 235.901 80.0993 235.287 80.0993 234.531C80.0993 233.775 79.4861 233.161 78.7297 233.161C77.9733 233.161 77.3601 233.775 77.3601 234.531C77.3601 235.287 77.9733 235.901 78.7297 235.901Z" fill="white"/>
</g>
<mask id="mask59_10_1576" style="mask-type:luminance" maskUnits="userSpaceOnUse" x="0" y="0" width="470" height="470">
<path d="M470 0H0V470H470V0Z" fill="white"/>
</mask>
<g mask="url(#mask59_10_1576)">
<path opacity="0.2" d="M218.289 15.9932C218.289 16.7499 217.676 17.3627 216.919 17.3627C216.162 17.3627 215.55 16.7489 215.55 15.9932C215.55 15.2365 216.162 14.6236 216.919 14.6236C217.675 14.6236 218.289 15.2374 218.289 15.9932Z" fill="white"/>
</g>
<mask id="mask60_10_1576" style="mask-type:luminance" maskUnits="userSpaceOnUse" x="0" y="0" width="470" height="470">
<path d="M470 0H0V470H470V0Z" fill="white"/>
</mask>
<g mask="url(#mask60_10_1576)">
<path opacity="0.2" d="M392.183 188.305C392.183 189.062 391.57 189.675 390.813 189.675C390.057 189.675 389.444 189.062 389.444 188.305C389.444 187.549 390.057 186.936 390.813 186.936C391.569 186.935 392.183 187.549 392.183 188.305Z" fill="white"/>
</g>
<mask id="mask61_10_1576" style="mask-type:luminance" maskUnits="userSpaceOnUse" x="0" y="0" width="470" height="470">
<path d="M470 0H0V470H470V0Z" fill="white"/>
</mask>
<g mask="url(#mask61_10_1576)">
<path opacity="0.2" d="M23.0601 135.869C23.0601 136.626 22.4472 137.239 21.6905 137.239C20.9338 137.239 20.3209 136.626 20.3209 135.869C20.3209 135.113 20.9338 134.5 21.6905 134.5C22.4472 134.5 23.0601 135.114 23.0601 135.869Z" fill="white"/>
</g>
<mask id="mask62_10_1576" style="mask-type:luminance" maskUnits="userSpaceOnUse" x="0" y="0" width="470" height="470">
<path d="M470 0H0V470H470V0Z" fill="white"/>
</mask>
<g mask="url(#mask62_10_1576)">
<path opacity="0.2" d="M62.7911 195.81C63.5475 195.81 64.1606 195.197 64.1606 194.441C64.1606 193.684 63.5475 193.071 62.7911 193.071C62.0347 193.071 61.4215 193.684 61.4215 194.441C61.4215 195.197 62.0347 195.81 62.7911 195.81Z" fill="white"/>
</g>
<mask id="mask63_10_1576" style="mask-type:luminance" maskUnits="userSpaceOnUse" x="0" y="0" width="470" height="470">
<path d="M470 0H0V470H470V0Z" fill="white"/>
</mask>
<g mask="url(#mask63_10_1576)">
<path d="M281.102 17.4154C281.102 18.58 280.159 19.5247 278.993 19.5247C277.828 19.5247 276.884 18.581 276.884 17.4154C276.884 16.2498 277.828 15.306 278.993 15.306C280.159 15.306 281.102 16.2498 281.102 17.4154Z" fill="#0035B8"/>
</g>
<mask id="mask64_10_1576" style="mask-type:luminance" maskUnits="userSpaceOnUse" x="0" y="0" width="470" height="470">
<path d="M470 0H0V470H470V0Z" fill="white"/>
</mask>
<g mask="url(#mask64_10_1576)">
<path d="M130.784 48.8161C130.784 49.9807 129.839 50.9254 128.675 50.9254C127.51 50.9254 126.565 49.9807 126.565 48.8161C126.565 47.6514 127.509 46.7067 128.675 46.7067C129.84 46.7067 130.784 47.6505 130.784 48.8161Z" fill="#0035B8"/>
</g>
<mask id="mask65_10_1576" style="mask-type:luminance" maskUnits="userSpaceOnUse" x="0" y="0" width="470" height="470">
<path d="M470 0H0V470H470V0Z" fill="white"/>
</mask>
<g mask="url(#mask65_10_1576)">
<path d="M438.423 109.473C438.423 110.638 437.479 111.583 436.313 111.583C435.149 111.583 434.204 110.638 434.204 109.473C434.204 108.309 435.148 107.364 436.313 107.364C437.479 107.364 438.423 108.308 438.423 109.473Z" fill="#0035B8"/>
</g>
<mask id="mask66_10_1576" style="mask-type:luminance" maskUnits="userSpaceOnUse" x="0" y="0" width="470" height="470">
<path d="M470 0H0V470H470V0Z" fill="white"/>
</mask>
<g mask="url(#mask66_10_1576)">
<path d="M70.5226 100.615C70.5226 101.779 69.5779 102.724 68.4132 102.724C67.2485 102.724 66.3038 101.779 66.3038 100.615C66.3038 99.4501 67.2485 98.5054 68.4132 98.5054C69.5779 98.5054 70.5226 99.4501 70.5226 100.615Z" fill="#0035B8"/>
</g>
<mask id="mask67_10_1576" style="mask-type:luminance" maskUnits="userSpaceOnUse" x="0" y="0" width="470" height="470">
<path d="M470 0H0V470H470V0Z" fill="white"/>
</mask>
<g mask="url(#mask67_10_1576)">
<path d="M381.964 226.339C382.601 226.339 383.118 225.822 383.118 225.185C383.118 224.548 382.601 224.032 381.964 224.032C381.327 224.032 380.811 224.548 380.811 225.185C380.811 225.822 381.327 226.339 381.964 226.339Z" fill="#0035B8"/>
</g>
<mask id="mask68_10_1576" style="mask-type:luminance" maskUnits="userSpaceOnUse" x="0" y="0" width="470" height="470">
<path d="M470 0H0V470H470V0Z" fill="white"/>
</mask>
<g mask="url(#mask68_10_1576)">
<path d="M42.0594 170.62C42.0594 171.258 41.5433 171.774 40.906 171.774C40.2687 171.774 39.7526 171.258 39.7526 170.62C39.7526 169.983 40.2687 169.467 40.906 169.467C41.5433 169.466 42.0594 169.983 42.0594 170.62Z" fill="#0035B8"/>
</g>
<mask id="mask69_10_1576" style="mask-type:luminance" maskUnits="userSpaceOnUse" x="0" y="0" width="470" height="470">
<path d="M470 0H0V470H470V0Z" fill="white"/>
</mask>
<g mask="url(#mask69_10_1576)">
<path d="M433.051 36.8189C433.688 36.8189 434.205 36.3025 434.205 35.6655C434.205 35.0285 433.688 34.5121 433.051 34.5121C432.414 34.5121 431.898 35.0285 431.898 35.6655C431.898 36.3025 432.414 36.8189 433.051 36.8189Z" fill="#0035B8"/>
</g>
<mask id="mask70_10_1576" style="mask-type:luminance" maskUnits="userSpaceOnUse" x="0" y="0" width="470" height="470">
<path d="M470 0H0V470H470V0Z" fill="white"/>
</mask>
<g mask="url(#mask70_10_1576)">
<path d="M380.196 136.341C380.196 136.979 379.68 137.495 379.043 137.495C378.405 137.495 377.889 136.979 377.889 136.341C377.889 135.704 378.405 135.188 379.043 135.188C379.679 135.188 380.196 135.704 380.196 136.341Z" fill="#0035B8"/>
</g>
<mask id="mask71_10_1576" style="mask-type:luminance" maskUnits="userSpaceOnUse" x="0" y="0" width="470" height="470">
<path d="M470 0H0V470H470V0Z" fill="white"/>
</mask>
<g mask="url(#mask71_10_1576)">
<path d="M36.8236 24.4278C37.4606 24.4278 37.9769 23.9114 37.9769 23.2744C37.9769 22.6374 37.4606 22.121 36.8236 22.121C36.1866 22.121 35.6702 22.6374 35.6702 23.2744C35.6702 23.9114 36.1866 24.4278 36.8236 24.4278Z" fill="#0035B8"/>
</g>
<mask id="mask72_10_1576" style="mask-type:luminance" maskUnits="userSpaceOnUse" x="0" y="0" width="470" height="470">
<path d="M470 0H0V470H470V0Z" fill="white"/>
</mask>
<g mask="url(#mask72_10_1576)">
<path d="M448.999 232.694C448.999 233.178 448.606 233.571 448.122 233.571C447.637 233.571 447.244 233.179 447.244 232.694C447.244 232.21 447.636 231.817 448.122 231.817C448.606 231.818 448.999 232.21 448.999 232.694Z" fill="white"/>
</g>
<mask id="mask73_10_1576" style="mask-type:luminance" maskUnits="userSpaceOnUse" x="0" y="0" width="470" height="470">
<path d="M470 0H0V470H470V0Z" fill="white"/>
</mask>
<g mask="url(#mask73_10_1576)">
<path d="M387.54 104.049C387.54 104.587 387.104 105.023 386.566 105.023C386.027 105.023 385.591 104.587 385.591 104.049C385.591 103.51 386.027 103.074 386.566 103.074C387.104 103.074 387.54 103.511 387.54 104.049Z" fill="white"/>
</g>
<mask id="mask74_10_1576" style="mask-type:luminance" maskUnits="userSpaceOnUse" x="0" y="0" width="470" height="470">
<path d="M470 0H0V470H470V0Z" fill="white"/>
</mask>
<g mask="url(#mask74_10_1576)">
<path d="M213.311 52.907C213.311 53.3911 212.918 53.784 212.434 53.784C211.95 53.784 211.557 53.3911 211.557 52.907C211.557 52.4229 211.95 52.0299 212.434 52.0299C212.919 52.0309 213.311 52.4229 213.311 52.907Z" fill="white"/>
</g>
<mask id="mask75_10_1576" style="mask-type:luminance" maskUnits="userSpaceOnUse" x="0" y="0" width="470" height="470">
<path d="M470 0H0V470H470V0Z" fill="white"/>
</mask>
<g mask="url(#mask75_10_1576)">
<path d="M283.818 49.6922C283.818 50.1763 283.425 50.5692 282.941 50.5692C282.457 50.5692 282.064 50.1763 282.064 49.6922C282.064 49.2081 282.457 48.8151 282.941 48.8151C283.426 48.8161 283.818 49.2081 283.818 49.6922Z" fill="white"/>
</g>
<mask id="mask76_10_1576" style="mask-type:luminance" maskUnits="userSpaceOnUse" x="0" y="0" width="470" height="470">
<path d="M470 0H0V470H470V0Z" fill="white"/>
</mask>
<g mask="url(#mask76_10_1576)">
<path d="M29.3797 99.7378C29.3797 100.222 28.9877 100.615 28.5027 100.615C28.0186 100.615 27.6257 100.222 27.6257 99.7378C27.6257 99.2537 28.0176 98.8607 28.5027 98.8607C28.9877 98.8617 29.3797 99.2537 29.3797 99.7378Z" fill="white"/>
</g>
<mask id="mask77_10_1576" style="mask-type:luminance" maskUnits="userSpaceOnUse" x="0" y="0" width="470" height="470">
<path d="M470 0H0V470H470V0Z" fill="white"/>
</mask>
<g mask="url(#mask77_10_1576)">
<path d="M23.9371 198.236C23.9371 198.72 23.5442 199.113 23.0601 199.113C22.576 199.113 22.1831 198.721 22.1831 198.236C22.1831 197.752 22.576 197.359 23.0601 197.359C23.5442 197.36 23.9371 197.752 23.9371 198.236Z" fill="white"/>
</g>
<mask id="mask78_10_1576" style="mask-type:luminance" maskUnits="userSpaceOnUse" x="0" y="0" width="470" height="470">
<path d="M470 0H0V470H470V0Z" fill="white"/>
</mask>
<g mask="url(#mask78_10_1576)">
<path d="M80.7253 157.411L81.1041 159.857L83.55 160.236L81.1041 160.615L80.7253 163.061L80.3465 160.615L77.9006 160.236L80.3465 159.857L80.7253 157.411Z" fill="white"/>
</g>
<mask id="mask79_10_1576" style="mask-type:luminance" maskUnits="userSpaceOnUse" x="0" y="0" width="470" height="470">
<path d="M470 0H0V470H470V0Z" fill="white"/>
</mask>
<g mask="url(#mask79_10_1576)">
<path d="M335.598 38.8032L336.019 41.5217L338.737 41.9419L336.019 42.363L335.598 45.0805L335.178 42.363L332.459 41.9419L335.178 41.5217L335.598 38.8032Z" fill="white"/>
</g>
<mask id="mask80_10_1576" style="mask-type:luminance" maskUnits="userSpaceOnUse" x="0" y="0" width="470" height="470">
<path d="M470 0H0V470H470V0Z" fill="white"/>
</mask>
<g mask="url(#mask80_10_1576)">
<path d="M442.328 162.813L442.812 165.941L445.941 166.425L442.812 166.909L442.328 170.038L441.844 166.909L438.716 166.425L441.844 165.941L442.328 162.813Z" fill="white"/>
</g>
<mask id="mask81_10_1576" style="mask-type:luminance" maskUnits="userSpaceOnUse" x="0" y="0" width="470" height="470">
<path d="M470 0H0V470H470V0Z" fill="white"/>
</mask>
<g mask="url(#mask81_10_1576)">
<path d="M36.8236 231.053L37.161 233.234L39.3418 233.571L37.161 233.909L36.8236 236.089L36.4861 233.909L34.3053 233.571L36.4861 233.234L36.8236 231.053Z" fill="white"/>
</g>
<mask id="mask82_10_1576" style="mask-type:luminance" maskUnits="userSpaceOnUse" x="0" y="0" width="470" height="470">
<path d="M470 0H0V470H470V0Z" fill="white"/>
</mask>
<g mask="url(#mask82_10_1576)">
<path d="M406.266 109.063L406.604 111.244L408.783 111.582L406.604 111.92L406.266 114.1L405.928 111.92L403.747 111.582L405.928 111.244L406.266 109.063Z" fill="white"/>
</g>
<mask id="mask83_10_1576" style="mask-type:luminance" maskUnits="userSpaceOnUse" x="0" y="0" width="470" height="470">
<path d="M470 0H0V470H470V0Z" fill="white"/>
</mask>
<g mask="url(#mask83_10_1576)">
<path d="M96.0614 23.2744L96.8473 28.3476L101.92 29.1334L96.8473 29.9183L96.0614 34.9915L95.2765 29.9183L90.2024 29.1334L95.2765 28.3476L96.0614 23.2744Z" fill="white"/>
</g>
<mask id="mask84_10_1576" style="mask-type:luminance" maskUnits="userSpaceOnUse" x="0" y="0" width="470" height="470">
<path d="M470 0H0V470H470V0Z" fill="white"/>
</mask>
<g mask="url(#mask84_10_1576)">
<path d="M390.549 157.291C387.58 157.291 384.889 158.322 382.921 159.994C380.611 155.52 375.946 152.46 370.564 152.46C365.95 152.46 361.863 154.71 359.335 158.169C357.08 152.749 351.735 148.937 345.498 148.937C344.211 148.937 342.962 149.1 341.77 149.405C339.34 141.903 332.3 136.478 323.989 136.478C314.773 136.478 307.121 143.15 305.585 151.925C303.221 150.592 300.493 149.828 297.585 149.828C288.573 149.828 281.269 157.133 281.269 166.144C281.269 166.644 281.295 167.139 281.339 167.627H310.062H313.832H330.98H337.917H356.721H360.016H379.684H384.407H401.413C401.442 167.344 401.46 167.057 401.46 166.766C401.461 161.533 396.576 157.291 390.549 157.291Z" fill="#2653C7"/>
</g>
<mask id="mask85_10_1576" style="mask-type:luminance" maskUnits="userSpaceOnUse" x="0" y="0" width="470" height="470">
<path d="M470 0H0V470H470V0Z" fill="white"/>
</mask>
<g mask="url(#mask85_10_1576)">
<path d="M-37.5145 69.6032C-33.4386 69.6032 -29.7463 71.0189 -27.0457 73.3125C-23.8741 67.1733 -17.4727 62.9744 -10.0871 62.9744C-3.7553 62.9744 1.85368 66.0613 5.32416 70.8093C8.41865 63.3701 15.7544 58.139 24.3131 58.139C26.0794 58.139 27.793 58.3618 29.4286 58.781C32.7628 48.4861 42.425 41.0385 53.831 41.0385C66.4787 41.0385 76.9804 50.1941 79.0888 62.2383C82.3337 60.4091 86.0767 59.3601 90.067 59.3601C102.435 59.3601 112.461 69.3861 112.461 81.7537C112.461 82.4399 112.425 83.1186 112.365 83.7897H72.9459H67.7712H44.2383H34.718H8.9112H4.38792H-22.6042H-29.0874H-52.4266C-52.467 83.3996 -52.4905 83.0058 -52.4905 82.6072C-52.4896 75.4256 -45.7855 69.6032 -37.5145 69.6032Z" fill="#001C5C"/>
</g>
<mask id="mask86_10_1576" style="mask-type:luminance" maskUnits="userSpaceOnUse" x="0" y="0" width="470" height="470">
<path d="M470 0H0V470H470V0Z" fill="white"/>
</mask>
<g mask="url(#mask86_10_1576)">
<path d="M106.416 221.627C109.309 221.627 111.9 222.783 113.682 224.612C115.299 221.377 118.643 219.155 122.505 219.155C125.026 219.155 127.32 220.105 129.063 221.66C129.752 213.649 136.469 207.36 144.658 207.36C153.306 207.36 160.317 214.371 160.317 223.019C160.317 224.822 160.009 226.551 159.448 228.162H132.331H129.869H115.798H112.681H97.0334C98.1567 224.397 101.93 221.627 106.416 221.627Z" fill="#2653C7"/>
</g>
<mask id="mask87_10_1576" style="mask-type:luminance" maskUnits="userSpaceOnUse" x="0" y="0" width="470" height="470">
<path d="M470 0H0V470H470V0Z" fill="white"/>
</mask>
<g mask="url(#mask87_10_1576)">
<path d="M385.59 165.855C383.262 165.855 381.175 166.785 379.742 168.257C378.439 165.653 375.749 163.865 372.64 163.865C370.611 163.865 368.765 164.629 367.361 165.881C366.807 159.432 361.4 154.372 354.809 154.372C347.848 154.372 342.205 160.014 342.205 166.975C342.205 168.426 342.453 169.819 342.904 171.115H364.731H366.713H378.039H380.548H393.142C392.238 168.084 389.199 165.855 385.59 165.855Z" fill="#002B94"/>
</g>
<mask id="mask88_10_1576" style="mask-type:luminance" maskUnits="userSpaceOnUse" x="0" y="0" width="470" height="470">
<path d="M470 0H0V470H470V0Z" fill="white"/>
</mask>
<g mask="url(#mask88_10_1576)">
<path d="M339.989 82.8478C339.978 82.6429 339.96 82.4399 339.96 82.2321C339.96 76.1635 344.45 71.2435 349.987 71.2435C352.802 71.2435 355.343 72.5182 357.163 74.5655C359.075 71.2031 362.47 68.9575 366.351 68.9575C368.606 68.9575 370.699 69.7142 372.434 71.0076C374.347 66.1816 378.731 62.8042 383.838 62.8042C386.114 62.8042 388.241 63.4857 390.076 64.656C393.696 59.471 399.398 56.1236 405.817 56.1236C413.427 56.1236 420.031 60.8283 423.351 67.727C425.034 66.4044 427.091 65.6176 429.32 65.6176C432.671 65.6176 435.637 67.3848 437.512 70.1061C438.562 69.8166 439.66 69.6615 440.79 69.6615C447.729 69.6615 453.434 75.4416 454.118 82.8478H339.989Z" fill="#002B94"/>
<path d="M305.27 82.4502C306.276 79.9207 308.575 78.1507 311.253 78.1507C312.797 78.1507 314.214 78.7419 315.331 79.7242C316.898 76.4361 320.034 74.1886 323.653 74.1886C328.205 74.1886 331.998 77.7389 332.858 82.4493L305.27 82.4502Z" fill="#002B94"/>
</g>
<mask id="mask89_10_1576" style="mask-type:luminance" maskUnits="userSpaceOnUse" x="0" y="0" width="470" height="470">
<path d="M470 0H0V470H470V0Z" fill="white"/>
</mask>
<g mask="url(#mask89_10_1576)">
<path d="M232.524 251.169C232.623 250.718 232.676 250.252 232.676 249.776C232.676 245.717 228.935 242.427 224.319 242.427C221.83 242.427 219.597 243.385 218.066 244.902C217.012 239.018 211.871 234.55 205.683 234.55C200.619 234.55 196.255 237.544 194.259 241.856C192.658 240.419 190.554 239.545 188.248 239.545C183.232 239.545 179.167 243.673 179.167 248.766C179.167 249.597 179.277 250.402 179.48 251.168L232.524 251.169Z" fill="#2653C7"/>
</g>
<mask id="mask90_10_1576" style="mask-type:luminance" maskUnits="userSpaceOnUse" x="0" y="0" width="470" height="470">
<path d="M470 0H0V470H470V0Z" fill="white"/>
</mask>
<g mask="url(#mask90_10_1576)">
<path d="M382.477 81.2169C384.774 81.2169 386.833 82.1353 388.247 83.5886C389.532 81.0195 392.188 79.2542 395.256 79.2542C397.257 79.2542 399.08 80.0081 400.464 81.2433C401.012 74.8804 406.347 69.8852 412.852 69.8852C419.72 69.8852 425.289 75.4538 425.289 82.3224C425.289 83.754 425.044 85.1273 424.599 86.4076H403.06H401.105H389.927H387.451H375.023C375.917 83.4175 378.914 81.2169 382.477 81.2169Z" fill="#2653C7"/>
</g>
</g>
<defs>
<clipPath id="clip0_10_1576">
<rect width="470" height="470" fill="white"/>
</clipPath>
</defs>
</svg>
