<svg id="visual" viewBox="0 0 450 900" width="450" height="900" xmlns="http://www.w3.org/2000/svg" xmlns:xlink="http://www.w3.org/1999/xlink" version="1.1"><path d="M0 663L10.7 664.7C21.3 666.3 42.7 669.7 64.2 692.5C85.7 715.3 107.3 757.7 128.8 766.3C150.3 775 171.7 750 193 727.8C214.3 705.7 235.7 686.3 257 679.5C278.3 672.7 299.7 678.3 321.2 685.5C342.7 692.7 364.3 701.3 385.8 698.7C407.3 696 428.7 682 439.3 675L450 668L450 901L439.3 901C428.7 901 407.3 901 385.8 901C364.3 901 342.7 901 321.2 901C299.7 901 278.3 901 257 901C235.7 901 214.3 901 193 901C171.7 901 150.3 901 128.8 901C107.3 901 85.7 901 64.2 901C42.7 901 21.3 901 10.7 901L0 901Z" fill="#bd4fff"></path><path d="M0 781L10.7 767.8C21.3 754.7 42.7 728.3 64.2 712.3C85.7 696.3 107.3 690.7 128.8 692.8C150.3 695 171.7 705 193 708.2C214.3 711.3 235.7 707.7 257 713.3C278.3 719 299.7 734 321.2 744.8C342.7 755.7 364.3 762.3 385.8 762.8C407.3 763.3 428.7 757.7 439.3 754.8L450 752L450 901L439.3 901C428.7 901 407.3 901 385.8 901C364.3 901 342.7 901 321.2 901C299.7 901 278.3 901 257 901C235.7 901 214.3 901 193 901C171.7 901 150.3 901 128.8 901C107.3 901 85.7 901 64.2 901C42.7 901 21.3 901 10.7 901L0 901Z" fill="#b147f5"></path><path d="M0 729L10.7 734C21.3 739 42.7 749 64.2 760.2C85.7 771.3 107.3 783.7 128.8 793.8C150.3 804 171.7 812 193 810C214.3 808 235.7 796 257 780.8C278.3 765.7 299.7 747.3 321.2 736.3C342.7 725.3 364.3 721.7 385.8 718.7C407.3 715.7 428.7 713.3 439.3 712.2L450 711L450 901L439.3 901C428.7 901 407.3 901 385.8 901C364.3 901 342.7 901 321.2 901C299.7 901 278.3 901 257 901C235.7 901 214.3 901 193 901C171.7 901 150.3 901 128.8 901C107.3 901 85.7 901 64.2 901C42.7 901 21.3 901 10.7 901L0 901Z" fill="#a540ec"></path><path d="M0 825L10.7 815.7C21.3 806.3 42.7 787.7 64.2 772.5C85.7 757.3 107.3 745.7 128.8 739.8C150.3 734 171.7 734 193 739C214.3 744 235.7 754 257 758.5C278.3 763 299.7 762 321.2 769.5C342.7 777 364.3 793 385.8 795.3C407.3 797.7 428.7 786.3 439.3 780.7L450 775L450 901L439.3 901C428.7 901 407.3 901 385.8 901C364.3 901 342.7 901 321.2 901C299.7 901 278.3 901 257 901C235.7 901 214.3 901 193 901C171.7 901 150.3 901 128.8 901C107.3 901 85.7 901 64.2 901C42.7 901 21.3 901 10.7 901L0 901Z" fill="#9a38e2"></path><path d="M0 763L10.7 761.2C21.3 759.3 42.7 755.7 64.2 759C85.7 762.3 107.3 772.7 128.8 776C150.3 779.3 171.7 775.7 193 784.3C214.3 793 235.7 814 257 818.8C278.3 823.7 299.7 812.3 321.2 804C342.7 795.7 364.3 790.3 385.8 793.8C407.3 797.3 428.7 809.7 439.3 815.8L450 822L450 901L439.3 901C428.7 901 407.3 901 385.8 901C364.3 901 342.7 901 321.2 901C299.7 901 278.3 901 257 901C235.7 901 214.3 901 193 901C171.7 901 150.3 901 128.8 901C107.3 901 85.7 901 64.2 901C42.7 901 21.3 901 10.7 901L0 901Z" fill="#8e30d9"></path><path d="M0 791L10.7 799C21.3 807 42.7 823 64.2 828.3C85.7 833.7 107.3 828.3 128.8 829.8C150.3 831.3 171.7 839.7 193 837.3C214.3 835 235.7 822 257 811.5C278.3 801 299.7 793 321.2 789.2C342.7 785.3 364.3 785.7 385.8 790.5C407.3 795.3 428.7 804.7 439.3 809.3L450 814L450 901L439.3 901C428.7 901 407.3 901 385.8 901C364.3 901 342.7 901 321.2 901C299.7 901 278.3 901 257 901C235.7 901 214.3 901 193 901C171.7 901 150.3 901 128.8 901C107.3 901 85.7 901 64.2 901C42.7 901 21.3 901 10.7 901L0 901Z" fill="#8228cf"></path><path d="M0 851L10.7 848.7C21.3 846.3 42.7 841.7 64.2 843.2C85.7 844.7 107.3 852.3 128.8 855.3C150.3 858.3 171.7 856.7 193 855.8C214.3 855 235.7 855 257 853.8C278.3 852.7 299.7 850.3 321.2 845C342.7 839.7 364.3 831.3 385.8 832.8C407.3 834.3 428.7 845.7 439.3 851.3L450 857L450 901L439.3 901C428.7 901 407.3 901 385.8 901C364.3 901 342.7 901 321.2 901C299.7 901 278.3 901 257 901C235.7 901 214.3 901 193 901C171.7 901 150.3 901 128.8 901C107.3 901 85.7 901 64.2 901C42.7 901 21.3 901 10.7 901L0 901Z" fill="#7720c6"></path><path d="M0 854L10.7 848C21.3 842 42.7 830 64.2 829.7C85.7 829.3 107.3 840.7 128.8 846.5C150.3 852.3 171.7 852.7 193 847C214.3 841.3 235.7 829.7 257 828C278.3 826.3 299.7 834.7 321.2 836.5C342.7 838.3 364.3 833.7 385.8 835.7C407.3 837.7 428.7 846.3 439.3 850.7L450 855L450 901L439.3 901C428.7 901 407.3 901 385.8 901C364.3 901 342.7 901 321.2 901C299.7 901 278.3 901 257 901C235.7 901 214.3 901 193 901C171.7 901 150.3 901 128.8 901C107.3 901 85.7 901 64.2 901C42.7 901 21.3 901 10.7 901L0 901Z" fill="#6b16bc"></path><path d="M0 844L10.7 849.3C21.3 854.7 42.7 865.3 64.2 869.5C85.7 873.7 107.3 871.3 128.8 867.3C150.3 863.3 171.7 857.7 193 857.2C214.3 856.7 235.7 861.3 257 864.8C278.3 868.3 299.7 870.7 321.2 868.5C342.7 866.3 364.3 859.7 385.8 855.5C407.3 851.3 428.7 849.7 439.3 848.8L450 848L450 901L439.3 901C428.7 901 407.3 901 385.8 901C364.3 901 342.7 901 321.2 901C299.7 901 278.3 901 257 901C235.7 901 214.3 901 193 901C171.7 901 150.3 901 128.8 901C107.3 901 85.7 901 64.2 901C42.7 901 21.3 901 10.7 901L0 901Z" fill="#600cb2"></path><path d="M0 873L10.7 871.5C21.3 870 42.7 867 64.2 865.3C85.7 863.7 107.3 863.3 128.8 864.3C150.3 865.3 171.7 867.7 193 868.5C214.3 869.3 235.7 868.7 257 868.8C278.3 869 299.7 870 321.2 872.2C342.7 874.3 364.3 877.7 385.8 878.5C407.3 879.3 428.7 877.7 439.3 876.8L450 876L450 901L439.3 901C428.7 901 407.3 901 385.8 901C364.3 901 342.7 901 321.2 901C299.7 901 278.3 901 257 901C235.7 901 214.3 901 193 901C171.7 901 150.3 901 128.8 901C107.3 901 85.7 901 64.2 901C42.7 901 21.3 901 10.7 901L0 901Z" fill="#5400a9"></path></svg>