<svg id="visual" viewBox="0 0 600 900" width="600" height="900" xmlns="http://www.w3.org/2000/svg" xmlns:xlink="http://www.w3.org/1999/xlink" version="1.1">
  <path d="M0 724L12.5 712.3C25 700.7 50 677.3 75 660C100 642.7 125 631.3 150 632.2C175 633 200 646 225 663.7C250 681.3 275 703.7 300 698.7C325 693.7 350 661.3 375 646.2C400 631 425 633 450 641.2C475 649.3 500 663.7 525 668.2C550 672.7 575 667.3 587.5 664.7L600 662L600 901L587.5 901C575 901 550 901 525 901C500 901 475 901 450 901C425 901 400 901 375 901C350 901 325 901 300 901C275 901 250 901 225 901C200 901 175 901 150 901C125 901 100 901 75 901C50 901 25 901 12.5 901L0 901Z" fill="#a527ef"></path>
  <path d="M0 662L12.5 679.3C25 696.7 50 731.3 75 736.5C100 741.7 125 717.3 150 717.7C175 718 200 743 225 745.7C250 748.3 275 728.7 300 712C325 695.3 350 681.7 375 684.5C400 687.3 425 706.7 450 712C475 717.3 500 708.7 525 704C550 699.3 575 698.7 587.5 698.3L600 698L600 901L587.5 901C575 901 550 901 525 901C500 901 475 901 450 901C425 901 400 901 375 901C350 901 325 901 300 901C275 901 250 901 225 901C200 901 175 901 150 901C125 901 100 901 75 901C50 901 25 901 12.5 901L0 901Z" fill="#901edd"></path>
  <path d="M0 723L12.5 725.5C25 728 50 733 75 745.8C100 758.7 125 779.3 150 780.5C175 781.7 200 763.3 225 763C250 762.7 275 780.3 300 776.8C325 773.3 350 748.7 375 740C400 731.3 425 738.7 450 747.2C475 755.7 500 765.3 525 768.7C550 772 575 769 587.5 767.5L600 766L600 901L587.5 901C575 901 550 901 525 901C500 901 475 901 450 901C425 901 400 901 375 901C350 901 325 901 300 901C275 901 250 901 225 901C200 901 175 901 150 901C125 901 100 901 75 901C50 901 25 901 12.5 901L0 901Z" fill="#7c15cc"></path>
  <path d="M0 799L12.5 801.7C25 804.3 50 809.7 75 805.7C100 801.7 125 788.3 150 780.2C175 772 200 769 225 776.8C250 784.7 275 803.3 300 805.7C325 808 350 794 375 789C400 784 425 788 450 794.3C475 800.7 500 809.3 525 803.8C550 798.3 575 778.7 587.5 768.8L600 759L600 901L587.5 901C575 901 550 901 525 901C500 901 475 901 450 901C425 901 400 901 375 901C350 901 325 901 300 901C275 901 250 901 225 901C200 901 175 901 150 901C125 901 100 901 75 901C50 901 25 901 12.5 901L0 901Z" fill="#680aba"></path>
  <path d="M0 840L12.5 842.5C25 845 50 850 75 848.5C100 847 125 839 150 832.8C175 826.7 200 822.3 225 826C250 829.7 275 841.3 300 848.8C325 856.3 350 859.7 375 853.8C400 848 425 833 450 830.2C475 827.3 500 836.7 525 840.3C550 844 575 842 587.5 841L600 840L600 901L587.5 901C575 901 550 901 525 901C500 901 475 901 450 901C425 901 400 901 375 901C350 901 325 901 300 901C275 901 250 901 225 901C200 901 175 901 150 901C125 901 100 901 75 901C50 901 25 901 12.5 901L0 901Z" fill="#5400a9"></path>
</svg>

<svg id="visual" viewBox="0 0 600 900" width="600" height="900" xmlns="http://www.w3.org/2000/svg" xmlns:xlink="http://www.w3.org/1999/xlink" version="1.1">
  <path d="M0 676L12.5 682.7C25 689.3 50 702.7 75 698.8C100 695 125 674 150 671.5C175 669 200 685 225 691.3C250 697.7 275 694.3 300 687C325 679.7 350 668.3 375 656.3C400 644.3 425 631.7 450 640.8C475 650 500 681 525 680.2C550 679.3 575 646.7 587.5 630.3L600 614L600 901L587.5 901C575 901 550 901 525 901C500 901 475 901 450 901C425 901 400 901 375 901C350 901 325 901 300 901C275 901 250 901 225 901C200 901 175 901 150 901C125 901 100 901 75 901C50 901 25 901 12.5 901L0 901Z" fill="#a527ef"></path>
  <path d="M0 658L12.5 672.3C25 686.7 50 715.3 75 729.5C100 743.7 125 743.3 150 736.2C175 729 200 715 225 703.5C250 692 275 683 300 677.5C325 672 350 670 375 679.5C400 689 425 710 450 715.8C475 721.7 500 712.3 525 705.2C550 698 575 693 587.5 690.5L600 688L600 901L587.5 901C575 901 550 901 525 901C500 901 475 901 450 901C425 901 400 901 375 901C350 901 325 901 300 901C275 901 250 901 225 901C200 901 175 901 150 901C125 901 100 901 75 901C50 901 25 901 12.5 901L0 901Z" fill="#901edd"></path>
  <path d="M0 801L12.5 790.7C25 780.3 50 759.7 75 755.8C100 752 125 765 150 770.3C175 775.7 200 773.3 225 769.3C250 765.3 275 759.7 300 764.7C325 769.7 350 785.3 375 781C400 776.7 425 752.3 450 747.3C475 742.3 500 756.7 525 766.8C550 777 575 783 587.5 786L600 789L600 901L587.5 901C575 901 550 901 525 901C500 901 475 901 450 901C425 901 400 901 375 901C350 901 325 901 300 901C275 901 250 901 225 901C200 901 175 901 150 901C125 901 100 901 75 901C50 901 25 901 12.5 901L0 901Z" fill="#7c15cc"></path>
  <path d="M0 806L12.5 798C25 790 50 774 75 776.8C100 779.7 125 801.3 150 801.5C175 801.7 200 780.3 225 775.3C250 770.3 275 781.7 300 782.5C325 783.3 350 773.7 375 768.8C400 764 425 764 450 774.8C475 785.7 500 807.3 525 807.3C550 807.3 575 785.7 587.5 774.8L600 764L600 901L587.5 901C575 901 550 901 525 901C500 901 475 901 450 901C425 901 400 901 375 901C350 901 325 901 300 901C275 901 250 901 225 901C200 901 175 901 150 901C125 901 100 901 75 901C50 901 25 901 12.5 901L0 901Z" fill="#680aba"></path>
  <path d="M0 840L12.5 839.2C25 838.3 50 836.7 75 834.3C100 832 125 829 150 827.2C175 825.3 200 824.7 225 831.3C250 838 275 852 300 849.8C325 847.7 350 829.3 375 821C400 812.7 425 814.3 450 819.8C475 825.3 500 834.7 525 834.7C550 834.7 575 825.3 587.5 820.7L600 816L600 901L587.5 901C575 901 550 901 525 901C500 901 475 901 450 901C425 901 400 901 375 901C350 901 325 901 300 901C275 901 250 901 225 901C200 901 175 901 150 901C125 901 100 901 75 901C50 901 25 901 12.5 901L0 901Z" fill="#5400a9"></path>
</svg>