<svg id="visual" viewBox="0 0 960 540" width="960" height="540" xmlns="http://www.w3.org/2000/svg" xmlns:xlink="http://www.w3.org/1999/xlink" version="1.1"><path d="M373 540L415.8 527.2C458.7 514.3 544.3 488.7 562 463C579.7 437.3 529.3 411.7 489.8 386C450.3 360.3 421.7 334.7 451.2 308.8C480.7 283 568.3 257 616 231.2C663.7 205.3 671.3 179.7 649.2 154C627 128.3 575 102.7 571.8 77C568.7 51.3 614.3 25.7 637.2 12.8L660 0L960 0L960 12.8C960 25.7 960 51.3 960 77C960 102.7 960 128.3 960 154C960 179.7 960 205.3 960 231.2C960 257 960 283 960 308.8C960 334.7 960 360.3 960 386C960 411.7 960 437.3 960 463C960 488.7 960 514.3 960 527.2L960 540Z" fill="#bd4fff"></path><path d="M618 540L622.7 527.2C627.3 514.3 636.7 488.7 617.2 463C597.7 437.3 549.3 411.7 549.5 386C549.7 360.3 598.3 334.7 584.3 308.8C570.3 283 493.7 257 493.7 231.2C493.7 205.3 570.3 179.7 602.3 154C634.3 128.3 621.7 102.7 602.2 77C582.7 51.3 556.3 25.7 543.2 12.8L530 0L960 0L960 12.8C960 25.7 960 51.3 960 77C960 102.7 960 128.3 960 154C960 179.7 960 205.3 960 231.2C960 257 960 283 960 308.8C960 334.7 960 360.3 960 386C960 411.7 960 437.3 960 463C960 488.7 960 514.3 960 527.2L960 540Z" fill="#b349f7"></path><path d="M745 540L710.3 527.2C675.7 514.3 606.3 488.7 595 463C583.7 437.3 630.3 411.7 640.3 386C650.3 360.3 623.7 334.7 614.5 308.8C605.3 283 613.7 257 594.3 231.2C575 205.3 528 179.7 528 154C528 128.3 575 102.7 585.5 77C596 51.3 570 25.7 557 12.8L544 0L960 0L960 12.8C960 25.7 960 51.3 960 77C960 102.7 960 128.3 960 154C960 179.7 960 205.3 960 231.2C960 257 960 283 960 308.8C960 334.7 960 360.3 960 386C960 411.7 960 437.3 960 463C960 488.7 960 514.3 960 527.2L960 540Z" fill="#aa42ef"></path><path d="M597 540L619.8 527.2C642.7 514.3 688.3 488.7 715.5 463C742.7 437.3 751.3 411.7 753.5 386C755.7 360.3 751.3 334.7 734.7 308.8C718 283 689 257 650.3 231.2C611.7 205.3 563.3 179.7 541.3 154C519.3 128.3 523.7 102.7 541 77C558.3 51.3 588.7 25.7 603.8 12.8L619 0L960 0L960 12.8C960 25.7 960 51.3 960 77C960 102.7 960 128.3 960 154C960 179.7 960 205.3 960 231.2C960 257 960 283 960 308.8C960 334.7 960 360.3 960 386C960 411.7 960 437.3 960 463C960 488.7 960 514.3 960 527.2L960 540Z" fill="#a03ce7"></path><path d="M767 540L744.8 527.2C722.7 514.3 678.3 488.7 677.5 463C676.7 437.3 719.3 411.7 709.3 386C699.3 360.3 636.7 334.7 626.5 308.8C616.3 283 658.7 257 669.2 231.2C679.7 205.3 658.3 179.7 640.3 154C622.3 128.3 607.7 102.7 630.7 77C653.7 51.3 714.3 25.7 744.7 12.8L775 0L960 0L960 12.8C960 25.7 960 51.3 960 77C960 102.7 960 128.3 960 154C960 179.7 960 205.3 960 231.2C960 257 960 283 960 308.8C960 334.7 960 360.3 960 386C960 411.7 960 437.3 960 463C960 488.7 960 514.3 960 527.2L960 540Z" fill="#9636e0"></path><path d="M665 540L677.2 527.2C689.3 514.3 713.7 488.7 726.7 463C739.7 437.3 741.3 411.7 730 386C718.7 360.3 694.3 334.7 685.8 308.8C677.3 283 684.7 257 687 231.2C689.3 205.3 686.7 179.7 697.5 154C708.3 128.3 732.7 102.7 748.5 77C764.3 51.3 771.7 25.7 775.3 12.8L779 0L960 0L960 12.8C960 25.7 960 51.3 960 77C960 102.7 960 128.3 960 154C960 179.7 960 205.3 960 231.2C960 257 960 283 960 308.8C960 334.7 960 360.3 960 386C960 411.7 960 437.3 960 463C960 488.7 960 514.3 960 527.2L960 540Z" fill="#8d2fd8"></path><path d="M773 540L764.7 527.2C756.3 514.3 739.7 488.7 734.2 463C728.7 437.3 734.3 411.7 730.2 386C726 360.3 712 334.7 697.8 308.8C683.7 283 669.3 257 690.2 231.2C711 205.3 767 179.7 781 154C795 128.3 767 102.7 766.7 77C766.3 51.3 793.7 25.7 807.3 12.8L821 0L960 0L960 12.8C960 25.7 960 51.3 960 77C960 102.7 960 128.3 960 154C960 179.7 960 205.3 960 231.2C960 257 960 283 960 308.8C960 334.7 960 360.3 960 386C960 411.7 960 437.3 960 463C960 488.7 960 514.3 960 527.2L960 540Z" fill="#8329d0"></path><path d="M770 540L771 527.2C772 514.3 774 488.7 760.7 463C747.3 437.3 718.7 411.7 723.8 386C729 360.3 768 334.7 781.3 308.8C794.7 283 782.3 257 777.3 231.2C772.3 205.3 774.7 179.7 773.7 154C772.7 128.3 768.3 102.7 768.5 77C768.7 51.3 773.3 25.7 775.7 12.8L778 0L960 0L960 12.8C960 25.7 960 51.3 960 77C960 102.7 960 128.3 960 154C960 179.7 960 205.3 960 231.2C960 257 960 283 960 308.8C960 334.7 960 360.3 960 386C960 411.7 960 437.3 960 463C960 488.7 960 514.3 960 527.2L960 540Z" fill="#7a22c8"></path><path d="M763 540L779.7 527.2C796.3 514.3 829.7 488.7 844.3 463C859 437.3 855 411.7 834.5 386C814 360.3 777 334.7 761.5 308.8C746 283 752 257 772.2 231.2C792.3 205.3 826.7 179.7 824 154C821.3 128.3 781.7 102.7 763.3 77C745 51.3 748 25.7 749.5 12.8L751 0L960 0L960 12.8C960 25.7 960 51.3 960 77C960 102.7 960 128.3 960 154C960 179.7 960 205.3 960 231.2C960 257 960 283 960 308.8C960 334.7 960 360.3 960 386C960 411.7 960 437.3 960 463C960 488.7 960 514.3 960 527.2L960 540Z" fill="#701bc0"></path><path d="M806 540L807 527.2C808 514.3 810 488.7 811.8 463C813.7 437.3 815.3 411.7 810.2 386C805 360.3 793 334.7 791.5 308.8C790 283 799 257 809.3 231.2C819.7 205.3 831.3 179.7 831.5 154C831.7 128.3 820.3 102.7 826.5 77C832.7 51.3 856.3 25.7 868.2 12.8L880 0L960 0L960 12.8C960 25.7 960 51.3 960 77C960 102.7 960 128.3 960 154C960 179.7 960 205.3 960 231.2C960 257 960 283 960 308.8C960 334.7 960 360.3 960 386C960 411.7 960 437.3 960 463C960 488.7 960 514.3 960 527.2L960 540Z" fill="#6713b8"></path><path d="M906 540L900.3 527.2C894.7 514.3 883.3 488.7 877.2 463C871 437.3 870 411.7 875.8 386C881.7 360.3 894.3 334.7 898 308.8C901.7 283 896.3 257 896 231.2C895.7 205.3 900.3 179.7 895.3 154C890.3 128.3 875.7 102.7 871.5 77C867.3 51.3 873.7 25.7 876.8 12.8L880 0L960 0L960 12.8C960 25.7 960 51.3 960 77C960 102.7 960 128.3 960 154C960 179.7 960 205.3 960 231.2C960 257 960 283 960 308.8C960 334.7 960 360.3 960 386C960 411.7 960 437.3 960 463C960 488.7 960 514.3 960 527.2L960 540Z" fill="#5e09b1"></path><path d="M929 540L929.7 527.2C930.3 514.3 931.7 488.7 929.5 463C927.3 437.3 921.7 411.7 915.7 386C909.7 360.3 903.3 334.7 900 308.8C896.7 283 896.3 257 894.2 231.2C892 205.3 888 179.7 890.7 154C893.3 128.3 902.7 102.7 912.3 77C922 51.3 932 25.7 937 12.8L942 0L960 0L960 12.8C960 25.7 960 51.3 960 77C960 102.7 960 128.3 960 154C960 179.7 960 205.3 960 231.2C960 257 960 283 960 308.8C960 334.7 960 360.3 960 386C960 411.7 960 437.3 960 463C960 488.7 960 514.3 960 527.2L960 540Z" fill="#5400a9"></path></svg>